<svg xmlns="http://www.w3.org/2000/svg">
<defs>
<font id="GTAmericaMono-Regular" horiz-adv-x="620" >
  <font-face 
    font-family="GT America Mono"
    font-weight="400"
    font-stretch="normal"
    units-per-em="1000"
    panose-1="0 0 5 0 0 0 0 0 0 0"
    ascent="785"
    descent="-215"
    x-height="500"
    cap-height="710"
    bbox="-494 -241 1159 916"
    underline-thickness="50"
    underline-position="-150"
    unicode-range="U+000D-FB02"
  />
<missing-glyph 
d="M610 663h-174v-47h174v-48h-174v-47h174v-48h-174v-47h174v-47h-174v-48h174v-47h-600v426h600v-47zM57 667l13 9h-16l-5 15l-4 -15h-16l13 -9l-5 -15l12 9l13 -9zM132 676h-16l13 -9l-5 -15l12 10l13 -10l-5 15l12 9h-15l-5 15zM219 676h-16l13 -9l-5 -15l12 10l13 -10
l-5 15l12 9h-15l-5 15zM305 676h-15l13 -9l-5 -15l12 10l13 -10l-5 15l12 9h-15l-5 15zM405 667l12 9h-15l-5 15l-5 -15h-15l12 -9l-4 -15l12 10l13 -10zM88 632h-15l12 -9l-4 -14l12 9l12 -9l-4 14l12 9h-15l-5 15zM361 623l13 9h-16l-4 15l-5 -15h-15l12 -9l-5 -14l13 9
l12 -9zM263 364v93h94v80h-94v94h-80v-94h-93v-80h93v-93h80zM57 580l13 9h-16l-5 14l-4 -14h-16l13 -9l-5 -15l12 9l13 -9zM132 589h-16l13 -9l-5 -15l12 9l13 -9l-5 15l12 9h-15l-5 14zM305 589h-15l13 -9l-5 -15l12 9l13 -9l-5 15l12 9h-15l-5 14zM405 580l12 9h-15
l-5 14l-5 -14h-15l12 -9l-4 -15l12 9l13 -9zM57 492l13 10h-16l-5 14l-4 -14h-16l13 -10l-5 -14l12 9l13 -9zM405 492l12 10h-15l-5 14l-5 -14h-15l12 -10l-4 -14l12 9l13 -9zM57 405l13 9h-16l-5 15l-4 -15h-16l13 -9l-5 -14l12 9l13 -9zM144 405l12 9h-15l-5 15l-4 -15
h-16l13 -9l-5 -14l12 9l13 -9zM318 405l12 9h-15l-5 15l-5 -15h-15l13 -9l-5 -14l12 9l13 -9zM405 405l12 9h-15l-5 15l-5 -15h-15l12 -9l-4 -14l12 9l13 -9zM105 347l-4 15l12 9h-15l-5 14l-5 -14h-15l12 -9l-4 -15l12 9zM366 347l-5 15l13 9h-16l-4 14l-5 -14h-15l12 -9
l-5 -15l13 9zM62 303l-5 15l13 9h-16l-5 15l-4 -15h-16l13 -9l-5 -15l12 9zM149 303l-5 15l12 9h-15l-5 15l-4 -15h-16l13 -9l-5 -15l12 9zM236 303l-5 15l12 9h-15l-5 15l-4 -15h-16l13 -9l-5 -15l12 9zM323 303l-5 15l12 9h-15l-5 15l-5 -15h-15l13 -9l-5 -15l12 9z

<glyph glyph-name="fi" unicode="fi" horiz-adv-x="1240" 
d="M519 500v-69h-190v-431h-85v431h-153v69h153v55q0 173 188 173q38 0 87 -10v-75q-59 8 -87 8q-57 0 -80 -22.5t-23 -79.5v-49h190zM999 720v-120h-120v120h120zM745 0v70h160v360h-145v70h230v-430h169v-70h-414z" />
    <glyph glyph-name="fl" unicode="fl" horiz-adv-x="1240" 
d="M519 500v-69h-190v-431h-85v431h-153v69h153v55q0 173 188 173q38 0 87 -10v-75q-59 8 -87 8q-57 0 -80 -22.5t-23 -79.5v-49h190zM745 0v70h160v585h-150v70h235v-655h169v-70h-414z" />
    <glyph glyph-name=".notdef" 
d="M610 663h-174v-47h174v-48h-174v-47h174v-48h-174v-47h174v-47h-174v-48h174v-47h-600v426h600v-47zM57 667l13 9h-16l-5 15l-4 -15h-16l13 -9l-5 -15l12 9l13 -9zM132 676h-16l13 -9l-5 -15l12 10l13 -10l-5 15l12 9h-15l-5 15zM219 676h-16l13 -9l-5 -15l12 10l13 -10
l-5 15l12 9h-15l-5 15zM305 676h-15l13 -9l-5 -15l12 10l13 -10l-5 15l12 9h-15l-5 15zM405 667l12 9h-15l-5 15l-5 -15h-15l12 -9l-4 -15l12 10l13 -10zM88 632h-15l12 -9l-4 -14l12 9l12 -9l-4 14l12 9h-15l-5 15zM361 623l13 9h-16l-4 15l-5 -15h-15l12 -9l-5 -14l13 9
l12 -9zM263 364v93h94v80h-94v94h-80v-94h-93v-80h93v-93h80zM57 580l13 9h-16l-5 14l-4 -14h-16l13 -9l-5 -15l12 9l13 -9zM132 589h-16l13 -9l-5 -15l12 9l13 -9l-5 15l12 9h-15l-5 14zM305 589h-15l13 -9l-5 -15l12 9l13 -9l-5 15l12 9h-15l-5 14zM405 580l12 9h-15
l-5 14l-5 -14h-15l12 -9l-4 -15l12 9l13 -9zM57 492l13 10h-16l-5 14l-4 -14h-16l13 -10l-5 -14l12 9l13 -9zM405 492l12 10h-15l-5 14l-5 -14h-15l12 -10l-4 -14l12 9l13 -9zM57 405l13 9h-16l-5 15l-4 -15h-16l13 -9l-5 -14l12 9l13 -9zM144 405l12 9h-15l-5 15l-4 -15
h-16l13 -9l-5 -14l12 9l13 -9zM318 405l12 9h-15l-5 15l-5 -15h-15l13 -9l-5 -14l12 9l13 -9zM405 405l12 9h-15l-5 15l-5 -15h-15l12 -9l-4 -14l12 9l13 -9zM105 347l-4 15l12 9h-15l-5 14l-5 -14h-15l12 -9l-4 -15l12 9zM366 347l-5 15l13 9h-16l-4 14l-5 -14h-15l12 -9
l-5 -15l13 9zM62 303l-5 15l13 9h-16l-5 15l-4 -15h-16l13 -9l-5 -15l12 9zM149 303l-5 15l12 9h-15l-5 15l-4 -15h-16l13 -9l-5 -15l12 9zM236 303l-5 15l12 9h-15l-5 15l-4 -15h-16l13 -9l-5 -15l12 9zM323 303l-5 15l12 9h-15l-5 15l-5 -15h-15l13 -9l-5 -15l12 9z
M410 303l-5 15l12 9h-15l-5 15l-5 -15h-15l12 -9l-4 -15l12 9zM10 189v48h599v-48h-599zM10 95v47h600v-47h-600zM10 0v47h600v-47h-600z" />
    <glyph glyph-name=".null" horiz-adv-x="0" 
 />
    <glyph glyph-name="nonmarkingreturn" horiz-adv-x="333" 
 />
    <glyph glyph-name="CR" unicode="&#xd;" horiz-adv-x="0" 
 />
    <glyph glyph-name="space" unicode=" " 
 />
    <glyph glyph-name="exclam" unicode="!" 
d="M275 226l-16 484h101l-16 -484h-69zM376 128v-128h-133v128h133z" />
    <glyph glyph-name="quotedbl" unicode="&#x22;" 
d="M176 394l-36 316h131l-36 -316h-59zM385 394l-36 316h131l-36 -316h-59z" />
    <glyph glyph-name="numbersign" unicode="#" 
d="M565 422h-112l-28 -149h106v-69h-119l-38 -204h-81l38 204h-107l-38 -204h-81l38 204h-98v69h111l28 149h-99v69h112l37 200h81l-37 -200h107l37 200h81l-37 -200h99v-69zM344 273l28 149h-107l-28 -149h107z" />
    <glyph glyph-name="dollar" unicode="$" 
d="M558 185q0 -80 -54.5 -137.5t-163.5 -62.5v-92h-45v93q-106 8 -163.5 67t-70.5 149l90 18q27 -145 144 -161v256l-34 8q-82 21 -129.5 71.5t-47.5 128.5q0 76 58 129.5t153 57.5v90h45v-91q194 -14 212 -196l-89 -26q-11 135 -123 149v-245l34 -9q40 -10 69 -22.5
t57.5 -34.5t43 -57t14.5 -83zM290 403l5 -1v236q-67 -4 -96.5 -37t-29.5 -76q0 -45 33 -77t88 -45zM340 57q133 8 133 115q0 60 -33.5 87.5t-90.5 41.5l-9 2v-246z" />
    <glyph glyph-name="percent" unicode="%" 
d="M72 -14l393 744h72l-394 -744h-71zM158 384q-61 0 -97.5 44t-36.5 121q0 74 36.5 118t96.5 44q59 0 96 -45t37 -120q0 -74 -36.5 -118t-95.5 -44zM158 443q29 0 46 27t17 76q0 50 -17 78t-47 28q-31 0 -48.5 -27.5t-17.5 -75.5q0 -51 17.5 -78.5t49.5 -27.5zM464 0
q-61 0 -97.5 44t-36.5 121q0 74 36.5 118t96.5 44q59 0 96 -45t37 -120q0 -74 -36.5 -118t-95.5 -44zM464 59q29 0 46 27t17 76q0 50 -17 78t-47 28q-31 0 -48.5 -27.5t-17.5 -75.5q0 -51 17.5 -78.5t49.5 -27.5z" />
    <glyph glyph-name="ampersand" unicode="&#x26;" 
d="M580 78q10 0 22 2v-79q-22 -4 -35 -4q-67 0 -109 51l-10 12q-75 -77 -197 -77q-105 0 -160.5 54t-55.5 142q0 139 145 213q-24 30 -37 49.5t-28.5 57.5t-15.5 74q0 69 49 111.5t121 42.5q68 0 116 -38t48 -109q0 -111 -140 -196l-3 -2l160 -193q29 74 32 195l74 -11
q-5 -146 -57 -244l8 -10q30 -41 73 -41zM267 661q-39 0 -63 -21.5t-24 -61.5q0 -34 17 -67t54 -80q53 38 77 70.5t24 73.5q0 42 -23 64t-62 22zM264 56q89 0 141 58l-183 226q-55 -36 -78.5 -70t-23.5 -83q0 -67 39 -99t105 -32z" />
    <glyph glyph-name="quotesingle" unicode="'" 
d="M280 394l-36 316h131l-36 -316h-59z" />
    <glyph glyph-name="parenleft" unicode="(" 
d="M463 -140q-119 73 -186 197t-67 264t67 264t186 197l50 -48q-109 -85 -160.5 -184t-51.5 -229t51.5 -229t160.5 -184z" />
    <glyph glyph-name="parenright" unicode=")" 
d="M157 -140l-50 48q109 85 160.5 184t51.5 229t-51.5 229t-160.5 184l50 48q119 -73 186 -197t67 -264t-67 -264t-186 -197z" />
    <glyph glyph-name="asterisk" unicode="*" 
d="M308 464l-84 -156l-86 59l115 127l-152 30l35 95l141 -74l-27 165h110l-25 -165l149 77l35 -98l-163 -35l119 -122l-82 -56z" />
    <glyph glyph-name="plus" unicode="+" 
d="M545 366v-73h-193v-202h-85v202h-192v73h192v190h85v-190h193z" />
    <glyph glyph-name="comma" unicode="," 
d="M275 -148l-26 46q41 18 54 38.5t13 63.5h-73v128h133v-128q0 -59 -22 -92t-79 -56z" />
    <glyph glyph-name="hyphen" unicode="-" 
d="M165 318h289v-80h-289v80z" />
    <glyph glyph-name="period" unicode="." 
d="M376 128v-128h-133v128h133z" />
    <glyph glyph-name="slash" unicode="/" 
d="M208 -117h-79l282 877h79z" />
    <glyph glyph-name="zero" unicode="0" 
d="M310 710q253 0 254 -363q-1 -362 -254 -362t-254 362q1 363 254 363zM310 635q-80 0 -122.5 -65.5t-43.5 -222.5q0 -89 15 -147l275 367q-39 68 -124 68zM310 60q80 0 122.5 66t43.5 221q0 96 -17 159l-278 -369q40 -77 129 -77z" />
    <glyph glyph-name="one" unicode="1" 
d="M372 81h171v-81h-450v81h194v471q-43 -52 -151 -52h-34v81h29q135 0 170 114h71v-614z" />
    <glyph glyph-name="two" unicode="2" 
d="M77 0v74q121 89 236 199q66 64 92 114t26 112q0 64 -33.5 98.5t-93.5 34.5t-95 -34t-35 -91q0 -24 8 -64l-90 9q-7 28 -7 56q0 93 60 147.5t164 54.5q102 0 159 -54.5t57 -155.5q0 -73 -37.5 -140t-118.5 -142q-80 -74 -171 -137h335v-81h-456z" />
    <glyph glyph-name="three" unicode="3" 
d="M310 -15q-110 0 -175 59t-68 154l88 11q3 -68 44 -108.5t114 -40.5q71 0 110 36t39 101q0 57 -39.5 92t-112.5 35h-43v74h40q65 0 98 34t33 88t-33 84.5t-95 30.5q-69 0 -107.5 -42.5t-38.5 -118.5l-84 18q0 100 64 159t171 59q100 0 156.5 -51.5t56.5 -138.5
q0 -52 -33 -93.5t-87 -55.5q68 -12 106 -58t38 -116q0 -95 -66 -153.5t-176 -58.5z" />
    <glyph glyph-name="four" unicode="4" 
d="M363 0v176h-316v61l304 458h97v-449h114v-70h-114v-176h-85zM135 246h228v255q0 50 2 101h-1q-14 -38 -52 -96l-130 -195q-33 -50 -47 -65z" />
    <glyph glyph-name="five" unicode="5" 
d="M306 -15q-92 0 -153.5 50t-75.5 135l93 11q11 -54 47 -86.5t94 -32.5q69 0 107.5 43.5t38.5 120.5q0 80 -37 126.5t-107 46.5q-109 0 -139 -116l-86 9l41 403h384v-78h-316l-26 -236q50 93 164 93q99 0 155.5 -65t56.5 -178q0 -110 -65.5 -178t-175.5 -68z" />
    <glyph glyph-name="six" unicode="6" 
d="M332 464q98 0 156.5 -64.5t58.5 -172.5q0 -109 -63.5 -175.5t-165.5 -66.5q-124 0 -187 88t-63 259q0 182 67 280t192 98q87 0 141.5 -44t70.5 -128l-90 -20q-23 117 -123 117q-164 0 -170 -271q24 47 70.5 73.5t105.5 26.5zM319 60q63 0 100.5 45t37.5 121q0 75 -38 119
t-104 44q-57 0 -97.5 -36t-58.5 -105q8 -86 50.5 -137t109.5 -51z" />
    <glyph glyph-name="seven" unicode="7" 
d="M198 0v10q0 299 243 602h-358v83h460v-70q-121 -135 -183.5 -292.5t-62.5 -315.5v-17h-99z" />
    <glyph glyph-name="eight" unicode="8" 
d="M411 374q73 -28 105.5 -73t32.5 -115q0 -91 -64.5 -146t-171.5 -55q-110 0 -176 53.5t-66 141.5q0 143 135 185q-57 27 -83 67t-26 99q0 80 59 129.5t155 49.5q97 0 154.5 -48t57.5 -129q0 -121 -112 -159zM308 642q-56 0 -88.5 -29.5t-32.5 -81.5q0 -45 25.5 -73.5
t82.5 -47.5l34 -10q57 23 80.5 52t23.5 77q0 53 -33 83t-92 30zM313 57q69 0 107.5 34t38.5 95q0 48 -27 79.5t-86 51.5l-64 20q-65 -23 -92.5 -56.5t-27.5 -87.5q0 -61 41.5 -98.5t109.5 -37.5z" />
    <glyph glyph-name="nine" unicode="9" 
d="M298 710q252 0 252 -349q0 -111 -24 -192.5t-80.5 -132.5t-142.5 -51q-95 0 -152 47t-74 135l90 20q23 -127 137 -127q153 0 156 288q-52 -89 -168 -89q-99 0 -161 58.5t-62 164.5q0 100 63 164t166 64zM301 334q56 0 100.5 37.5t56.5 93.5q-9 73 -46.5 121.5
t-114.5 48.5q-62 0 -100 -42t-38 -110q0 -69 39.5 -109t102.5 -40z" />
    <glyph glyph-name="colon" unicode=":" 
d="M376 500v-128h-133v128h133zM376 128v-128h-133v128h133z" />
    <glyph glyph-name="semicolon" unicode=";" 
d="M376 500v-128h-133v128h133zM275 -148l-26 46q41 18 54 38.5t13 63.5h-73v128h133v-128q0 -59 -22 -92t-79 -56z" />
    <glyph glyph-name="less" unicode="&#x3c;" 
d="M542 85l-465 205v72l465 205v-79l-371 -161l371 -161v-81z" />
    <glyph glyph-name="equal" unicode="=" 
d="M75 384v80h470v-80h-470zM75 194v80h470v-80h-470z" />
    <glyph glyph-name="greater" unicode="&#x3e;" 
d="M77 85v81l371 161l-371 161v79l465 -205v-72z" />
    <glyph glyph-name="question" unicode="?" 
d="M92 473q-4 26 -4 52q0 92 59 147t162 55q111 0 166.5 -46.5t55.5 -130.5q0 -95 -90 -170l-54 -45q-41 -35 -41 -91v-18h-85v42q0 18 2.5 30t15.5 33t39 43l51 43q67 58 67 133q0 45 -32 73.5t-95 28.5q-60 0 -95.5 -34.5t-35.5 -102.5q0 -31 5 -53zM375 128v-128h-133
v128h133z" />
    <glyph glyph-name="at" unicode="@" 
d="M330 -94q-127 0 -200 74t-73 202v185q0 132 72 212.5t190 80.5q112 0 178.5 -73t66.5 -196v-127q0 -164 -103 -164q-31 0 -51.5 15.5t-25.5 41.5q-16 -27 -44 -42.5t-60 -15.5q-47 0 -77 29t-30 75q0 86 107 104l98 17v7q0 43 -14.5 62t-47.5 19q-69 0 -69 -69h-64
q0 59 37 93.5t100 34.5q62 0 91.5 -37.5t29.5 -116.5v-104q0 -59 29 -59q34 0 34 83v146q0 105 -50 163.5t-139 58.5q-92 0 -144.5 -61.5t-52.5 -170.5v-195q0 -98 59 -157t156 -59q62 0 125 29l21 -48q-68 -37 -149 -37zM298 154q35 0 57.5 25t22.5 64v32l-79 -17
q-60 -12 -60 -54q0 -23 16 -36.5t43 -13.5z" />
    <glyph glyph-name="A" unicode="A" 
d="M499 0l-66 205h-247l-65 -205h-92l228 710h106l228 -710h-92zM309 628q-28 -123 -98 -343h197q-67 209 -97 343h-2z" />
    <glyph glyph-name="B" unicode="B" 
d="M317 710q65 0 112.5 -17t72 -46.5t35.5 -60.5t11 -65q0 -53 -30.5 -94t-88.5 -58q65 -11 102 -56.5t37 -117.5q0 -37 -11.5 -69.5t-37 -61.5t-72 -46.5t-109.5 -17.5h-248v710h227zM183 633v-233h133q137 0 137 114q0 119 -137 119h-133zM183 324v-247h149q75 0 108 35.5
t33 91.5q0 54 -32.5 87t-98.5 33h-159z" />
    <glyph glyph-name="C" unicode="C" 
d="M307 -17q-125 0 -189 90.5t-64 255.5v52q0 164 67.5 255t193.5 91q223 0 250 -250l-93 -15q-6 89 -46 137t-112 48q-84 0 -124 -63.5t-40 -197.5v-51q0 -272 164 -272q145 0 158 186l92 -19q-12 -112 -76 -179.5t-181 -67.5z" />
    <glyph glyph-name="D" unicode="D" 
d="M76 0v710h208q143 0 222.5 -98t79.5 -256q0 -155 -83 -255.5t-221 -100.5h-206zM169 78h112q97 0 153 81t56 197q0 119 -54 197.5t-153 78.5h-114v-554z" />
    <glyph glyph-name="E" unicode="E" 
d="M520 710v-80h-322v-227h305v-78h-305v-245h329v-80h-422v710h415z" />
    <glyph glyph-name="F" unicode="F" 
d="M550 710v-80h-342v-227h315v-80h-315v-323h-93v710h435z" />
    <glyph glyph-name="G" unicode="G" 
d="M295 -17q-116 0 -178.5 93.5t-62.5 246.5v70q0 157 67.5 245.5t190.5 88.5q62 0 108 -21.5t70 -57.5t35.5 -68t16.5 -68l-91 -13q-7 58 -40.5 103t-101.5 45q-78 0 -118 -61t-40 -209v-39q0 -274 158 -274q45 0 78 20.5t48.5 52.5t22.5 61t7 56v42h-178v75h263v-371h-64
l-14 104q-49 -121 -177 -121z" />
    <glyph glyph-name="H" unicode="H" 
d="M539 710v-710h-93v324h-272v-324h-93v710h93v-308h272v308h93z" />
    <glyph glyph-name="I" unicode="I" 
d="M534 635h-178v-560h178v-75h-448v75h177v560h-177v75h448v-75z" />
    <glyph glyph-name="J" unicode="J" 
d="M520 215q0 -104 -60.5 -168t-171.5 -64q-60 0 -107 22t-73.5 58.5t-40 78.5t-13.5 87l92 31q0 -88 37.5 -142.5t108.5 -54.5q135 0 135 173v474h93v-495z" />
    <glyph glyph-name="K" unicode="K" 
d="M469 0l-196 364l-96 -118v-246h-93v710h93v-350l268 350h109l-216 -280l239 -430h-108z" />
    <glyph glyph-name="L" unicode="L" 
d="M115 710h93v-630h340v-80h-433v710z" />
    <glyph glyph-name="M" unicode="M" 
d="M415 448l-62 -278h-86l-62 278q-20 85 -32 183h-6q2 -90 2 -190v-441h-88v710h135l80 -371q9 -51 11 -63h6q2 12 11 63l80 371h135v-710h-88v441q0 100 2 190h-6q-12 -98 -32 -183z" />
    <glyph glyph-name="N" unicode="N" 
d="M412 227q25 -59 34 -93h2q-2 24 -2 76v500h93v-710h-109l-223 511l-32 84h-3q2 -19 2 -61v-534h-93v710h122z" />
    <glyph glyph-name="O" unicode="O" 
d="M310 -17q-128 0 -193.5 89.5t-65.5 250.5v64q0 161 65.5 250.5t193.5 89.5t193.5 -89.5t65.5 -250.5v-64q0 -161 -65.5 -250.5t-193.5 -89.5zM310 63q83 0 122.5 63t39.5 197v64q0 134 -39.5 197t-122.5 63t-122.5 -63t-39.5 -197v-64q0 -134 39.5 -197t122.5 -63z" />
    <glyph glyph-name="P" unicode="P" 
d="M203 290v-290h-93v710h232q68 0 117 -19t73.5 -51.5t35 -66.5t10.5 -73q0 -38 -12 -73t-39 -67t-79 -51t-123 -19h-122zM203 366h124q45 0 77 12t47.5 33t22 42.5t6.5 45.5q0 55 -31.5 94t-111.5 39h-134v-266z" />
    <glyph glyph-name="Q" unicode="Q" 
d="M569 323q0 -252 -152 -320q38 -49 103 -49q20 0 46 7v-85q-44 -6 -63 -6q-56 0 -98 31t-63 84q-20 -2 -32 -2q-128 0 -193.5 89.5t-65.5 250.5v64q0 161 65.5 250.5t193.5 89.5t193.5 -89.5t65.5 -250.5v-64zM472 323v64q0 134 -39.5 197t-122.5 63t-122.5 -63
t-39.5 -197v-64q0 -134 39.5 -197t122.5 -63t122.5 63t39.5 197z" />
    <glyph glyph-name="R" unicode="R" 
d="M472 0l-164 297h-130v-297h-93v710h228q115 0 177.5 -54t62.5 -153q0 -72 -40 -122t-111 -69l173 -312h-103zM178 632v-261h131q71 0 108.5 33.5t37.5 96.5q0 64 -37.5 97.5t-108.5 33.5h-131z" />
    <glyph glyph-name="S" unicode="S" 
d="M318 -17q-120 0 -184.5 62t-78.5 159l90 18q13 -71 55 -116t117 -45q60 0 102.5 26t42.5 87q0 34 -9.5 57.5t-28 38t-35 21.5t-42.5 14l-95 25q-175 47 -175 197q0 82 63 141t163 59q105 0 172 -48t77 -151l-89 -26q-6 78 -49.5 112.5t-107.5 34.5q-71 0 -102.5 -33.5
t-31.5 -80.5q0 -45 30.5 -75.5t78.5 -44.5l91 -24q41 -11 70 -24t57.5 -35.5t43 -59t14.5 -85.5q0 -84 -60.5 -144t-178.5 -60z" />
    <glyph glyph-name="T" unicode="T" 
d="M39 710h540v-80h-223v-630h-94v630h-223v80z" />
    <glyph glyph-name="U" unicode="U" 
d="M68 710h93v-473q0 -81 39 -127.5t113 -46.5q146 0 146 174v473h93v-473q0 -116 -59.5 -185t-179.5 -69t-182.5 69.5t-62.5 184.5v473z" />
    <glyph glyph-name="V" unicode="V" 
d="M295 137q6 -23 13 -55h4q7 32 13 55l157 573h99l-214 -710h-115l-213 710h97z" />
    <glyph glyph-name="W" unicode="W" 
d="M100 0l-54 710h93l24 -504q4 -75 4 -127h10q2 50 20 134l69 322h88l69 -322q18 -84 20 -134h10q0 52 4 127l24 504h93l-54 -710h-122l-64 305q-16 77 -19 142h-10q-3 -65 -19 -142l-64 -305h-122z" />
    <glyph glyph-name="X" unicode="X" 
d="M32 0l223 375l-198 335h105l118 -221q24 -44 27 -71h4q3 26 26 69l116 223h106l-195 -343l224 -367h-111l-142 258q-23 43 -26 67h-4q-3 -24 -28 -70l-139 -255h-106z" />
    <glyph glyph-name="Y" unicode="Y" 
d="M357 283v-283h-93v283l-231 427h103l174 -350l174 350h103z" />
    <glyph glyph-name="Z" unicode="Z" 
d="M68 86l372 544h-359v80h457v-86l-373 -544h387v-80h-484v86z" />
    <glyph glyph-name="bracketleft" unicode="[" 
d="M200 -114v871h283v-70h-207v-731h207v-70h-283z" />
    <glyph glyph-name="backslash" unicode="\" 
d="M411 -117l-282 877h79l282 -877h-79z" />
    <glyph glyph-name="bracketright" unicode="]" 
d="M420 -114h-283v70h207v731h-207v70h283v-871z" />
    <glyph glyph-name="asciicircum" unicode="^" 
d="M278 710h63l148 -262h-78l-101 170l-102 -170h-78z" />
    <glyph glyph-name="underscore" unicode="_" 
d="M0 -118h620v-70h-620v70z" />
    <glyph glyph-name="grave" unicode="`" 
d="M406 577h-75l-117 143h106z" />
    <glyph glyph-name="a" unicode="a" 
d="M499 169q0 -117 17 -169h-89q-6 45 -8 91q-49 -103 -169 -103q-74 0 -121 41t-47 106q0 78 70 118q48 26 170 41l91 11v9q0 67 -25.5 97.5t-81.5 30.5q-53 0 -83.5 -26t-33.5 -73h-91q7 80 63 124.5t151 44.5q97 0 142 -50t45 -158v-135zM414 243l-119 -16
q-65 -9 -94 -29.5t-29 -57.5q0 -38 25 -60t69 -22q68 0 108 43.5t40 116.5v25z" />
    <glyph glyph-name="b" unicode="b" 
d="M197 725v-312q21 44 62.5 71.5t91.5 27.5q95 0 150.5 -72.5t55.5 -188.5q0 -118 -56.5 -190.5t-152.5 -72.5q-51 0 -93.5 26.5t-62.5 71.5l-15 -86h-65v725h85zM195 236q0 -79 35.5 -126t97.5 -47q65 0 102 51t37 137q0 85 -36 135.5t-101 50.5q-63 0 -99 -47t-36 -128
v-26z" />
    <glyph glyph-name="c" unicode="c" 
d="M310 -12q-110 0 -170 74t-60 191t59.5 188t173.5 71q85 0 139.5 -47t63.5 -132l-87 -10q-14 115 -122 115q-67 0 -103 -49.5t-36 -134.5q0 -88 36.5 -139.5t105.5 -51.5q105 0 124 120l81 -13q-13 -81 -64.5 -131.5t-140.5 -50.5z" />
    <glyph glyph-name="d" unicode="d" 
d="M418 725h85v-725h-80v93q-48 -105 -159 -105q-94 0 -150 72t-56 191q0 118 60 189.5t159 71.5q97 0 141 -86v299zM420 262q0 80 -36.5 127.5t-98.5 47.5q-65 0 -101 -49t-36 -137q0 -87 36 -137.5t98 -50.5q64 0 101 47.5t37 128.5v23z" />
    <glyph glyph-name="e" unicode="e" 
d="M520 266q0 -12 -2 -38h-351q0 -72 39.5 -118.5t107.5 -46.5q86 0 132 89l72 -38q-64 -126 -204 -126q-115 0 -174.5 73t-59.5 199q0 115 61.5 183.5t166.5 68.5q109 0 160.5 -68t51.5 -178zM432 298q2 64 -31 106t-97 42t-100.5 -44.5t-36.5 -103.5h265z" />
    <glyph glyph-name="f" unicode="f" 
d="M519 500v-69h-190v-431h-85v431h-153v69h153v55q0 173 188 173q38 0 87 -10v-75q-59 8 -87 8q-57 0 -80 -22.5t-23 -79.5v-49h190z" />
    <glyph glyph-name="g" unicode="g" 
d="M523 508q-54 0 -74 -48q45 -45 45 -116q0 -76 -52 -123.5t-136 -47.5q-53 0 -93 20q-35 -17 -35 -50q0 -50 83 -50h129q78 0 120.5 -36t42.5 -100q0 -78 -65 -121t-182 -43q-106 0 -166.5 34t-60.5 93q0 40 23.5 69t63.5 43q-63 26 -63 89q0 70 72 97q-50 45 -50 121
q0 77 51.5 125t134.5 48q54 0 96 -22q28 92 121 92q20 0 32 -4v-74q-30 4 -37 4zM307 238q46 0 76.5 30t30.5 76q0 45 -29 74t-75 29t-75.5 -29.5t-29.5 -76.5q0 -46 28.5 -74.5t73.5 -28.5zM371 18h-113q-16 0 -42 2q-53 -24 -53 -76q0 -81 152 -81q153 0 153 85
q0 70 -97 70z" />
    <glyph glyph-name="h" unicode="h" 
d="M188 409q17 46 60.5 74.5t96.5 28.5q76 0 123 -44q49 -47 49 -159v-309h-85v304q0 133 -108 133q-51 0 -83 -30.5t-42.5 -67.5t-10.5 -78v-261h-85v725h85v-316z" />
    <glyph glyph-name="i" unicode="i" 
d="M379 720v-120h-120v120h120zM125 0v70h160v360h-145v70h230v-430h169v-70h-414z" />
    <glyph glyph-name="j" unicode="j" 
d="M431 720v-120h-120v120h120zM236 -202q-69 0 -126 18v74q63 -14 115 -14q61 0 87 27.5t26 99.5v427h-190v70h275v-502q0 -200 -187 -200z" />
    <glyph glyph-name="k" unicode="k" 
d="M444 0l-151 245l-91 -92v-153h-85v725h85v-471l224 246h111l-183 -193l195 -307h-105z" />
    <glyph glyph-name="l" unicode="l" 
d="M125 0v70h160v585h-150v70h235v-655h169v-70h-414z" />
    <glyph glyph-name="m" unicode="m" 
d="M125 423q15 41 43.5 65t65.5 24q77 0 104 -91q18 43 49.5 67t68.5 24q51 0 84.5 -37t33.5 -112v-363h-85v356q0 81 -59 81q-80 0 -80 -106v-331h-83v356q0 81 -59 81q-78 0 -78 -106v-331h-85v500h80v-77z" />
    <glyph glyph-name="n" unicode="n" 
d="M183 401q21 50 63 80.5t102 30.5q75 0 121 -43q48 -45 48 -160v-309h-85v304q0 133 -104 133q-40 0 -69 -17t-43.5 -45t-21 -56t-6.5 -58v-261h-85v500h80v-99z" />
    <glyph glyph-name="o" unicode="o" 
d="M310 -12q-105 0 -169 72t-64 190q0 119 64 190.5t169 71.5t169 -71.5t64 -190.5t-64 -190.5t-169 -71.5zM310 62q67 0 105 49.5t38 138.5q0 88 -38 138t-105 50t-105 -49.5t-38 -138.5t38 -138.5t105 -49.5z" />
    <glyph glyph-name="p" unicode="p" 
d="M192 500v-93q21 44 63.5 74.5t93.5 30.5q97 0 152.5 -72.5t55.5 -188.5q0 -118 -57 -190.5t-156 -72.5q-47 0 -88.5 25.5t-58.5 65.5v-274h-85v695h80zM195 239q0 -80 36 -128t99 -48q65 0 101 51t36 137q0 85 -34.5 135.5t-99.5 50.5q-63 0 -100.5 -47t-37.5 -127v-24z
" />
    <glyph glyph-name="q" unicode="q" 
d="M441 500h67v-695h-85v281q-21 -44 -62.5 -71t-93.5 -27q-93 0 -148.5 72.5t-55.5 190.5q0 116 59 188.5t157 72.5q46 0 86 -25t59 -61zM425 264q0 79 -38.5 126t-101.5 47q-62 0 -97 -50.5t-35 -135.5t35.5 -136.5t93.5 -51.5q67 0 105 47t38 126v28z" />
    <glyph glyph-name="r" unicode="r" 
d="M224 370q27 62 86 102t134 40q55 0 90 -10v-79q-40 10 -93 10q-94 0 -155 -64.5t-61 -182.5v-186h-85v500h84v-130z" />
    <glyph glyph-name="s" unicode="s" 
d="M321 -12q-89 0 -145.5 40t-69.5 114l86 15q9 -47 43 -73t89 -26q49 0 76.5 21.5t27.5 54.5q0 32 -18 48t-54 22l-98 18q-133 25 -133 140q0 66 51.5 108t138.5 42q84 0 137.5 -36t60.5 -99l-84 -19q-9 39 -39 62t-79 23q-48 0 -75.5 -20t-27.5 -57q0 -57 77 -71l97 -18
q130 -25 130 -136q0 -69 -50.5 -111t-140.5 -42z" />
    <glyph glyph-name="t" unicode="t" 
d="M88 431v69h143v131l85 36v-167h195v-69h-195v-259q0 -99 96 -99q52 0 99 9v-78q-56 -13 -98 -13q-91 0 -136.5 45.5t-45.5 123.5v271h-143z" />
    <glyph glyph-name="u" unicode="u" 
d="M427 95q-16 -41 -58 -74t-94 -33q-81 0 -128 44q-46 45 -46 159v309h87v-306q0 -133 104 -133q37 0 64 17t40.5 45t19.5 56.5t6 59.5v261h85v-500h-80v95z" />
    <glyph glyph-name="v" unicode="v" 
d="M263 0l-200 500h89l131 -342q17 -41 25 -71h4q9 40 22 71l135 342h87l-201 -500h-92z" />
    <glyph glyph-name="w" unicode="w" 
d="M28 500h89l51 -343l10 -71h7q5 31 16 84l65 330h87l65 -330q11 -53 16 -84h7l10 71l51 343h89l-97 -500h-107l-65 323q-7 33 -9 82h-7q-2 -49 -9 -82l-65 -323h-107z" />
    <glyph glyph-name="x" unicode="x" 
d="M309 199l-131 -199h-101l181 258l-168 242h100l121 -187l114 187h104l-165 -248l178 -252h-101z" />
    <glyph glyph-name="y" unicode="y" 
d="M177 500l141 -401l139 401h91l-200 -532q-33 -92 -79 -131t-111 -39q-25 0 -46 4v75q26 -2 36 -2q45 0 71 22t44 72l13 37l-195 494h96z" />
    <glyph glyph-name="z" unicode="z" 
d="M102 65l293 363h-283v72h385v-63l-290 -364h305v-73h-410v65z" />
    <glyph glyph-name="braceleft" unicode="{" 
d="M405 -114q-83 0 -131 41t-48 108v143q0 26 -2 42t-9.5 32t-24.5 23.5t-44 7.5v78q28 0 44.5 6t23.5 21.5t9 30.5t2 43v146q0 67 48 108t131 41h79v-70h-79q-48 0 -74.5 -27t-26.5 -73v-115q0 -60 -13.5 -97.5t-51.5 -51.5q38 -17 51 -56.5t13 -99.5v-111q0 -46 27.5 -73
t75.5 -27h78v-70h-78z" />
    <glyph glyph-name="bar" unicode="|" 
d="M274 -117v877h72v-877h-72z" />
    <glyph glyph-name="braceright" unicode="}" 
d="M215 -114h-78v70h78q48 0 75.5 27t27.5 73v111q0 60 13 99.5t51 56.5q-38 14 -51.5 51.5t-13.5 97.5v115q0 46 -26.5 73t-74.5 27h-79v70h79q83 0 131 -41t48 -108v-146q0 -28 2 -43t9 -30.5t23.5 -21.5t44.5 -6v-78q-27 0 -44 -7.5t-24.5 -23.5t-9.5 -32t-2 -42v-143
q0 -67 -48 -108t-131 -41z" />
    <glyph glyph-name="asciitilde" unicode="~" 
d="M214 389q40 0 75.5 -19.5t65.5 -38.5t56 -19q55 0 76 73l67 -16q-18 -68 -57.5 -100t-88.5 -32q-40 0 -74 19.5t-63 38.5t-55 19q-60 0 -77 -59l-73 8q13 64 54 95t94 31z" />
    <glyph glyph-name="uni00A0" unicode="&#xa0;" 
 />
    <glyph glyph-name="exclamdown" unicode="&#xa1;" 
d="M376 387h-133v128h133v-128zM275 289h69l16 -484h-101z" />
    <glyph glyph-name="cent" unicode="&#xa2;" 
d="M342 64q87 12 104 119l81 -13q-12 -76 -58.5 -125.5t-126.5 -55.5v-78h-49v78q-97 10 -149 82.5t-52 181.5q0 107 51.5 177t149.5 80v84h49v-83q78 -5 128 -51.5t58 -126.5l-87 -10q-12 101 -99 113v-372zM180 254q0 -78 28.5 -128t84.5 -60v370q-55 -10 -84 -58
t-29 -124z" />
    <glyph glyph-name="sterling" unicode="&#xa3;" 
d="M498 171l80 -16q-8 -61 -37.5 -101t-64 -54.5t-75.5 -14.5q-37 0 -95 13t-103 13q-75 0 -153 -19l-19 63q142 47 142 186q0 48 -8 91h-109v63h97q-13 63 -13 105q0 99 57 154.5t145 55.5q160 0 196 -152l-88 -22q-23 99 -109 99q-48 0 -77 -32.5t-29 -99.5q0 -43 13 -108
h171v-63h-160q6 -34 6 -73q0 -127 -100 -180q28 7 74 7q31 0 81 -8.5t80 -8.5q37 0 64 23.5t34 78.5z" />
    <glyph glyph-name="currency" unicode="&#xa4;" 
d="M535 303q0 -88 -49 -148l53 -59l-40 -36l-53 57q-57 -40 -132 -40q-79 0 -137 43l-56 -61l-40 36l58 63q-47 60 -47 145q0 86 47 146l-58 63l40 36l58 -61q58 42 135 42q74 0 130 -39l55 59l40 -36l-55 -60q51 -61 51 -150zM314 148q61 0 102 42.5t41 112.5t-41 112.5
t-102 42.5t-102.5 -42.5t-41.5 -112.5t41.5 -112.5t102.5 -42.5z" />
    <glyph glyph-name="yen" unicode="&#xa5;" 
d="M572 695l-217 -361h184v-60h-184v-71h184v-60h-184v-143h-90v143h-187v60h187v71h-187v60h187l-218 361h101l161 -280l162 280h101z" />
    <glyph glyph-name="brokenbar" unicode="&#xa6;" 
d="M345 760v-378h-71v378h71zM345 261v-378h-71v378h71z" />
    <glyph glyph-name="section" unicode="&#xa7;" 
d="M449 183q50 -42 50 -100q0 -73 -56.5 -112.5t-148.5 -39.5q-86 0 -140 44.5t-60 114.5l85 17q10 -47 43.5 -74.5t82.5 -27.5q46 0 76 18.5t30 50.5q0 31 -19.5 50.5t-81.5 46.5l-80 35q-76 33 -109.5 71t-33.5 90q0 85 83 127q-44 41 -44 101q0 70 54.5 111t140.5 41
q82 0 130.5 -38.5t58.5 -106.5l-84 -20q-18 98 -116 98q-41 0 -67.5 -21t-26.5 -55q0 -32 18 -52t76 -45l80 -35q76 -33 109.5 -71.5t33.5 -90.5q0 -87 -84 -127zM291 270l81 -39l30 -15q40 36 40 78q0 18 -6.5 33t-13.5 24.5t-26 21.5t-30 17.5t-39.5 18.5t-40.5 19l-66 32
h-1q-1 1 -2 1q-39 -35 -39 -77q0 -39 23 -60.5t90 -53.5z" />
    <glyph glyph-name="dieresis" unicode="&#xa8;" 
d="M269 720v-120h-119v120h119zM470 720v-120h-119v120h119z" />
    <glyph glyph-name="copyright" unicode="&#xa9;" 
d="M310 -17q-107 0 -178 74.5t-71 221.5v149q0 148 71 223.5t178 75.5t178 -75.5t71 -223.5v-149q0 -147 -71 -221.5t-178 -74.5zM310 30q86 0 142.5 61t56.5 188v149q0 127 -56.5 189.5t-142.5 62.5t-142.5 -62.5t-56.5 -189.5v-149q0 -127 56.5 -188t142.5 -61zM316 142
q-140 0 -140 171v88q0 167 139 167q59 0 92 -38t36 -103l-70 -4q-4 85 -60 85q-32 0 -49 -23t-17 -84v-88q0 -62 17 -86.5t50 -24.5q29 0 44 24t17 58l69 -10q-5 -57 -35.5 -94.5t-92.5 -37.5z" />
    <glyph glyph-name="ordfeminine" unicode="&#xaa;" 
d="M467 427q0 -81 11 -117h-77q-4 30 -6 62q-36 -71 -130 -71q-55 0 -89 29.5t-34 76.5q0 53 41 78.5t117 34.5l90 11q-1 53 -17.5 75.5t-57.5 22.5q-78 0 -81 -70h-81q5 59 48.5 92t117.5 33q76 0 112 -36.5t36 -113.5v-107zM391 487l-80 -10q-47 -6 -68 -21t-21 -42
t18.5 -43t50.5 -16q45 0 72.5 29t27.5 75v28z" />
    <glyph glyph-name="guillemotleft" unicode="&#xab;" 
d="M233 67l-168 208l173 207h90l-167 -206l164 -209h-92zM455 67l-168 208l173 207h90l-167 -206l164 -209h-92z" />
    <glyph glyph-name="logicalnot" unicode="&#xac;" 
d="M77 374h465v-243h-80v163h-385v80z" />
    <glyph glyph-name="registered" unicode="&#xae;" 
d="M310 727q107 0 178 -75.5t71 -223.5v-149q0 -147 -71 -221.5t-178 -74.5t-178 74.5t-71 221.5v149q0 148 71 223.5t178 75.5zM509 279v149q0 127 -56.5 189.5t-142.5 62.5t-142.5 -62.5t-56.5 -189.5v-149q0 -127 56.5 -188t142.5 -61t142.5 61t56.5 188zM442 445
q0 -78 -73 -108l84 -181h-73l-72 171h-53v-171h-66v406h122q69 0 100 -32.5t31 -84.5zM255 506v-122h46q76 0 76 61t-76 61h-46z" />
    <glyph glyph-name="macron" unicode="&#xaf;" 
d="M166 600v68h288v-68h-288z" />
    <glyph glyph-name="degree" unicode="&#xb0;" 
d="M465 558q0 -66 -44.5 -112.5t-110.5 -46.5q-65 0 -110 46t-45 113q0 68 45 113.5t110 45.5t110 -46t45 -113zM225 558q0 -39 24.5 -65.5t60.5 -26.5t60.5 26.5t24.5 65.5q0 40 -24.5 66t-60.5 26t-60.5 -26t-24.5 -66z" />
    <glyph glyph-name="plusminus" unicode="&#xb1;" 
d="M353 365h192v-73h-192v-160h-86v160h-192v73h192v161h86v-161zM75 0v80h470v-80h-470z" />
    <glyph glyph-name="acute" unicode="&#xb4;" 
d="M214 577l86 143h106l-117 -143h-75z" />
    <glyph glyph-name="uni00B5" unicode="&#xb5;" 
d="M422 500h85v-500h-80v95q-16 -41 -58 -74t-94 -33q-50 0 -89 18v-201h-85v695h87v-306q0 -133 104 -133q37 0 64 17t40.5 45t19.5 56.5t6 59.5v261z" />
    <glyph glyph-name="paragraph" unicode="&#xb6;" 
d="M275 361q-231 0 -231 178q0 65 34.5 107t85 58t116.5 16h296v-52h-104v-768h-60v768h-77v-768h-60v461z" />
    <glyph glyph-name="periodcentered" unicode="&#xb7;" 
d="M474 429v-128h-133v128h133z" />
    <glyph glyph-name="cedilla" unicode="&#xb8;" 
d="M278 7h53l-35 -56q14 12 43 12q33 0 53.5 -19.5t20.5 -51.5q0 -40 -32 -65.5t-76 -25.5q-70 0 -98 54l57 19q13 -28 42 -28q18 0 30.5 11t12.5 30q0 20 -12 30.5t-28 10.5q-23 0 -35 -15l-39 12z" />
    <glyph glyph-name="ordmasculine" unicode="&#xba;" 
d="M310 301q-80 0 -130 51.5t-50 140.5q0 88 50 139.5t130 51.5t130 -51.5t50 -139.5q0 -89 -50 -140.5t-130 -51.5zM310 360q47 0 73.5 35t26.5 98t-26.5 97.5t-73.5 34.5t-74 -35t-27 -97q0 -63 27 -98t74 -35z" />
    <glyph glyph-name="guillemotright" unicode="&#xbb;" 
d="M156 68l168 208l-173 207h-90l167 -206l-164 -209h92zM387 67l168 208l-173 207h-90l167 -206l-164 -209h92z" />
    <glyph glyph-name="onequarter" unicode="&#xbc;" horiz-adv-x="1240" 
d="M840 727h76l-515 -744h-77zM452 328h-284v51h110v250q-13 -13 -44 -24t-56 -11h-5v61h4q32 0 66 15.5t46 38.5h59v-330h104v-51zM1030 142h63v-52h-63v-90h-66v90h-197v50l184 241h79v-239zM964 142v183l-143 -183h143z" />
    <glyph glyph-name="onehalf" unicode="&#xbd;" horiz-adv-x="1240" 
d="M840 727h76l-515 -744h-77zM452 328h-284v51h110v250q-13 -13 -44 -24t-56 -11h-5v61h4q32 0 66 15.5t46 38.5h59v-330h104v-51zM881 55h192v-55h-286v52q100 68 151 118t51 96q0 67 -64 67q-31 0 -48 -16.5t-17 -47.5q0 -18 2 -24l-71 6q-2 18 -2 22q0 53 37.5 85
t98.5 32q65 0 100 -31.5t35 -88.5q0 -97 -179 -215z" />
    <glyph glyph-name="threequarters" unicode="&#xbe;" horiz-adv-x="1240" 
d="M840 727h76l-515 -744h-77zM277 544h26q29 0 48.5 14.5t19.5 44.5q0 29 -17 44.5t-46 15.5q-33 0 -50 -20.5t-15 -54.5l-74 6q-2 57 35 90.5t104 33.5q63 0 99 -28t36 -77q0 -36 -21.5 -60t-57.5 -30q41 -2 65 -27t24 -67q0 -49 -39 -79t-103 -30q-68 0 -105.5 32
t-38.5 89l74 5q-1 -31 18.5 -52t51.5 -21q30 0 49 16t19 46q0 63 -73 63h-29v46zM1093 90h-63v-90h-66v90h-197v50l184 241h79v-239h63v-52zM964 142v183l-143 -183h143z" />
    <glyph glyph-name="questiondown" unicode="&#xbf;" 
d="M244 392v128h133v-128h-133zM527 47q4 -26 4 -52q0 -92 -59 -147t-162 -55q-111 0 -166.5 46.5t-55.5 130.5q0 95 90 170l54 45q41 35 41 91v18h85v-42q0 -18 -2.5 -30t-15.5 -33t-39 -43l-51 -43q-67 -58 -67 -133q0 -45 32 -73.5t95 -28.5q60 0 95.5 34.5t35.5 102.5
q0 31 -5 53z" />
    <glyph glyph-name="Agrave" unicode="&#xc0;" 
d="M350 777h-80l-104 107h114zM499 0l-66 205h-247l-65 -205h-92l228 710h106l228 -710h-92zM309 628q-28 -123 -98 -343h197q-67 209 -97 343h-2z" />
    <glyph glyph-name="Aacute" unicode="&#xc1;" 
d="M454 884l-104 -107h-80l70 107h114zM499 0l-66 205h-247l-65 -205h-92l228 710h106l228 -710h-92zM309 628q-28 -123 -98 -343h197q-67 209 -97 343h-2z" />
    <glyph glyph-name="Acircumflex" unicode="&#xc2;" 
d="M308 845l-63 -69h-85l97 108h105l98 -108h-87zM499 0l-66 205h-247l-65 -205h-92l228 710h106l228 -710h-92zM309 628q-28 -123 -98 -343h197q-67 209 -97 343h-2z" />
    <glyph glyph-name="Atilde" unicode="&#xc3;" 
d="M231 823q-40 0 -51 -48l-60 11q10 52 43 77.5t75 25.5q38 0 81.5 -26.5t68.5 -26.5q43 0 52 45l59 -10q-8 -49 -39 -75t-80 -26q-41 0 -81.5 26.5t-67.5 26.5zM499 0l-66 205h-247l-65 -205h-92l228 710h106l228 -710h-92zM309 628q-28 -123 -98 -343h197
q-67 209 -97 343h-2z" />
    <glyph glyph-name="Adieresis" unicode="&#xc4;" 
d="M251 884v-111h-109v111h109zM478 884v-111h-109v111h109zM499 0l-66 205h-247l-65 -205h-92l228 710h106l228 -710h-92zM309 628q-28 -123 -98 -343h197q-67 209 -97 343h-2z" />
    <glyph glyph-name="Aring" unicode="&#xc5;" 
d="M310 734q-45 0 -72.5 25.5t-27.5 65.5t27.5 65.5t72.5 25.5t72.5 -25.5t27.5 -65.5t-27.5 -65.5t-72.5 -25.5zM310 871q-19 0 -31.5 -13t-12.5 -33t12.5 -33t31.5 -13t31.5 13t12.5 33t-12.5 33t-31.5 13zM499 0l-66 205h-247l-65 -205h-92l228 710h106l228 -710h-92z
M309 628q-28 -123 -98 -343h197q-67 209 -97 343h-2z" />
    <glyph glyph-name="AE" unicode="&#xc6;" 
d="M361 80h209v-80h-297v167h-120l-42 -167h-91l196 710h347v-80h-202v-227h185v-78h-185v-245zM171 241h102v405z" />
    <glyph glyph-name="Ccedilla" unicode="&#xc7;" 
d="M314 63q145 0 158 186l92 -19q-11 -107 -70.5 -174t-168.5 -73l-20 -32q13 12 43 12q33 0 53.5 -19.5t20.5 -51.5q0 -40 -32 -65.5t-76 -25.5q-70 0 -98 54l57 19q13 -28 42 -28q18 0 30.5 11t12.5 30q0 20 -12 30.5t-28 10.5q-23 0 -35 -15l-39 12l31 60
q-109 11 -165 100t-56 244v52q0 164 67.5 255t193.5 91q223 0 250 -250l-93 -15q-6 89 -46 137t-112 48q-84 0 -124 -63.5t-40 -197.5v-51q0 -272 164 -272z" />
    <glyph glyph-name="Egrave" unicode="&#xc8;" 
d="M350 777h-80l-104 107h114zM520 710v-80h-322v-227h305v-78h-305v-245h329v-80h-422v710h415z" />
    <glyph glyph-name="Eacute" unicode="&#xc9;" 
d="M270 777l70 107h114l-104 -107h-80zM520 710v-80h-322v-227h305v-78h-305v-245h329v-80h-422v710h415z" />
    <glyph glyph-name="Ecircumflex" unicode="&#xca;" 
d="M460 776h-87l-65 69l-63 -69h-85l97 108h105zM520 710v-80h-322v-227h305v-78h-305v-245h329v-80h-422v710h415z" />
    <glyph glyph-name="Edieresis" unicode="&#xcb;" 
d="M251 884v-111h-109v111h109zM478 884v-111h-109v111h109zM520 710v-80h-322v-227h305v-78h-305v-245h329v-80h-422v710h415z" />
    <glyph glyph-name="Igrave" unicode="&#xcc;" 
d="M350 777h-80l-104 107h114zM534 635h-178v-560h178v-75h-448v75h177v560h-177v75h448v-75z" />
    <glyph glyph-name="Iacute" unicode="&#xcd;" 
d="M454 884l-104 -107h-80l70 107h114zM534 635h-178v-560h178v-75h-448v75h177v560h-177v75h448v-75z" />
    <glyph glyph-name="Icircumflex" unicode="&#xce;" 
d="M308 845l-63 -69h-85l97 108h105l98 -108h-87zM534 635h-178v-560h178v-75h-448v75h177v560h-177v75h448v-75z" />
    <glyph glyph-name="Idieresis" unicode="&#xcf;" 
d="M251 884v-111h-109v111h109zM478 884v-111h-109v111h109zM534 635h-178v-560h178v-75h-448v75h177v560h-177v75h448v-75z" />
    <glyph glyph-name="Eth" unicode="&#xd0;" 
d="M284 710q143 0 222.5 -98t79.5 -256q0 -155 -83 -255.5t-221 -100.5h-206v329h-76v72h76v309h208zM281 78q97 0 153 81t56 197q0 119 -54 197.5t-153 78.5h-114v-231h167v-72h-167v-251h112z" />
    <glyph glyph-name="Ntilde" unicode="&#xd1;" 
d="M238 889q38 0 81.5 -26.5t68.5 -26.5q43 0 52 45l59 -10q-8 -49 -39 -75t-80 -26q-41 0 -81.5 26.5t-67.5 26.5q-40 0 -51 -48l-60 11q10 52 43 77.5t75 25.5zM412 227q25 -59 34 -93h2q-2 24 -2 76v500h93v-710h-109l-223 511l-32 84h-3q2 -19 2 -61v-534h-93v710h122z
" />
    <glyph glyph-name="Ograve" unicode="&#xd2;" 
d="M350 777h-80l-104 107h114zM310 -17q-128 0 -193.5 89.5t-65.5 250.5v64q0 161 65.5 250.5t193.5 89.5t193.5 -89.5t65.5 -250.5v-64q0 -161 -65.5 -250.5t-193.5 -89.5zM310 63q83 0 122.5 63t39.5 197v64q0 134 -39.5 197t-122.5 63t-122.5 -63t-39.5 -197v-64
q0 -134 39.5 -197t122.5 -63z" />
    <glyph glyph-name="Oacute" unicode="&#xd3;" 
d="M270 777l70 107h114l-104 -107h-80zM310 -17q-128 0 -193.5 89.5t-65.5 250.5v64q0 161 65.5 250.5t193.5 89.5t193.5 -89.5t65.5 -250.5v-64q0 -161 -65.5 -250.5t-193.5 -89.5zM310 63q83 0 122.5 63t39.5 197v64q0 134 -39.5 197t-122.5 63t-122.5 -63t-39.5 -197v-64
q0 -134 39.5 -197t122.5 -63z" />
    <glyph glyph-name="Ocircumflex" unicode="&#xd4;" 
d="M460 776h-87l-65 69l-63 -69h-85l97 108h105zM310 -17q-128 0 -193.5 89.5t-65.5 250.5v64q0 161 65.5 250.5t193.5 89.5t193.5 -89.5t65.5 -250.5v-64q0 -161 -65.5 -250.5t-193.5 -89.5zM310 63q83 0 122.5 63t39.5 197v64q0 134 -39.5 197t-122.5 63t-122.5 -63
t-39.5 -197v-64q0 -134 39.5 -197t122.5 -63z" />
    <glyph glyph-name="Otilde" unicode="&#xd5;" 
d="M238 889q38 0 81.5 -26.5t68.5 -26.5q43 0 52 45l59 -10q-8 -49 -39 -75t-80 -26q-41 0 -81.5 26.5t-67.5 26.5q-40 0 -51 -48l-60 11q10 52 43 77.5t75 25.5zM310 -17q-128 0 -193.5 89.5t-65.5 250.5v64q0 161 65.5 250.5t193.5 89.5t193.5 -89.5t65.5 -250.5v-64
q0 -161 -65.5 -250.5t-193.5 -89.5zM310 63q83 0 122.5 63t39.5 197v64q0 134 -39.5 197t-122.5 63t-122.5 -63t-39.5 -197v-64q0 -134 39.5 -197t122.5 -63z" />
    <glyph glyph-name="Odieresis" unicode="&#xd6;" 
d="M251 884v-111h-109v111h109zM478 884v-111h-109v111h109zM310 -17q-128 0 -193.5 89.5t-65.5 250.5v64q0 161 65.5 250.5t193.5 89.5t193.5 -89.5t65.5 -250.5v-64q0 -161 -65.5 -250.5t-193.5 -89.5zM310 63q83 0 122.5 63t39.5 197v64q0 134 -39.5 197t-122.5 63
t-122.5 -63t-39.5 -197v-64q0 -134 39.5 -197t122.5 -63z" />
    <glyph glyph-name="multiply" unicode="&#xd7;" 
d="M553 513l-186 -186l186 -185l-57 -58l-186 186l-186 -186l-57 57l186 186l-186 186l57 57l186 -185l185 185z" />
    <glyph glyph-name="Oslash" unicode="&#xd8;" 
d="M508 632q61 -88 61 -245v-64q0 -161 -65.5 -250.5t-193.5 -89.5q-104 0 -167 60l-48 -77l-52 26l61 99q-53 86 -53 232v64q0 161 65.5 250.5t193.5 89.5q95 0 157 -51l42 68l51 -28zM148 323q0 -83 15 -138l257 416q-39 46 -110 46q-83 0 -122.5 -63t-39.5 -197v-64z
M472 323v64q0 93 -20 155l-261 -421q40 -58 119 -58q83 0 122.5 63t39.5 197z" />
    <glyph glyph-name="Ugrave" unicode="&#xd9;" 
d="M350 777h-80l-104 107h114zM68 710h93v-473q0 -81 39 -127.5t113 -46.5q146 0 146 174v473h93v-473q0 -116 -59.5 -185t-179.5 -69t-182.5 69.5t-62.5 184.5v473z" />
    <glyph glyph-name="Uacute" unicode="&#xda;" 
d="M270 777l70 107h114l-104 -107h-80zM68 710h93v-473q0 -81 39 -127.5t113 -46.5q146 0 146 174v473h93v-473q0 -116 -59.5 -185t-179.5 -69t-182.5 69.5t-62.5 184.5v473z" />
    <glyph glyph-name="Ucircumflex" unicode="&#xdb;" 
d="M460 776h-87l-65 69l-63 -69h-85l97 108h105zM68 710h93v-473q0 -81 39 -127.5t113 -46.5q146 0 146 174v473h93v-473q0 -116 -59.5 -185t-179.5 -69t-182.5 69.5t-62.5 184.5v473z" />
    <glyph glyph-name="Udieresis" unicode="&#xdc;" 
d="M251 884v-111h-109v111h109zM478 884v-111h-109v111h109zM68 710h93v-473q0 -81 39 -127.5t113 -46.5q146 0 146 174v473h93v-473q0 -116 -59.5 -185t-179.5 -69t-182.5 69.5t-62.5 184.5v473z" />
    <glyph glyph-name="Yacute" unicode="&#xdd;" 
d="M270 777l70 107h114l-104 -107h-80zM357 283v-283h-93v283l-231 427h103l174 -350l174 350h103z" />
    <glyph glyph-name="Thorn" unicode="&#xde;" 
d="M188 202v-202h-90v710h90v-122h143q114 0 167.5 -57t53.5 -138q0 -31 -11 -62t-34.5 -61.5t-69 -49t-106.5 -18.5h-143zM188 512v-234h137q73 0 105 35.5t32 79.5q0 50 -33 84.5t-104 34.5h-137z" />
    <glyph glyph-name="germandbls" unicode="&#xdf;" 
d="M258 -5v71h36q83 0 124.5 39t41.5 105q0 65 -43 110.5t-143 50.5v66q135 7 135 114q0 48 -27.5 78.5t-80.5 30.5q-108 0 -108 -137v-523h-85v515q0 93 48 152.5t147 59.5q90 0 144 -47.5t54 -119.5q0 -56 -34.5 -95.5t-86.5 -53.5q74 -15 123 -62.5t49 -133.5
q0 -102 -70.5 -161t-187.5 -59h-36z" />
    <glyph glyph-name="agrave" unicode="&#xe0;" 
d="M347 577h-75l-117 143h106zM499 169q0 -117 17 -169h-89q-6 45 -8 91q-49 -103 -169 -103q-74 0 -121 41t-47 106q0 78 70 118q48 26 170 41l91 11v9q0 67 -25.5 97.5t-81.5 30.5q-53 0 -83.5 -26t-33.5 -73h-91q7 80 63 124.5t151 44.5q97 0 142 -50t45 -158v-135z
M414 243l-119 -16q-65 -9 -94 -29.5t-29 -57.5q0 -38 25 -60t69 -22q68 0 108 43.5t40 116.5v25z" />
    <glyph glyph-name="aacute" unicode="&#xe1;" 
d="M272 577l86 143h106l-117 -143h-75zM499 169q0 -117 17 -169h-89q-6 45 -8 91q-49 -103 -169 -103q-74 0 -121 41t-47 106q0 78 70 118q48 26 170 41l91 11v9q0 67 -25.5 97.5t-81.5 30.5q-53 0 -83.5 -26t-33.5 -73h-91q7 80 63 124.5t151 44.5q97 0 142 -50t45 -158
v-135zM414 243l-119 -16q-65 -9 -94 -29.5t-29 -57.5q0 -38 25 -60t69 -22q68 0 108 43.5t40 116.5v25z" />
    <glyph glyph-name="acircumflex" unicode="&#xe2;" 
d="M460 577h-84l-66 93l-66 -93h-84l103 143h94zM499 169q0 -117 17 -169h-89q-6 45 -8 91q-49 -103 -169 -103q-74 0 -121 41t-47 106q0 78 70 118q48 26 170 41l91 11v9q0 67 -25.5 97.5t-81.5 30.5q-53 0 -83.5 -26t-33.5 -73h-91q7 80 63 124.5t151 44.5q97 0 142 -50
t45 -158v-135zM414 243l-119 -16q-65 -9 -94 -29.5t-29 -57.5q0 -38 25 -60t69 -22q68 0 108 43.5t40 116.5v25z" />
    <glyph glyph-name="atilde" unicode="&#xe3;" 
d="M239 725q41 0 83 -32t63 -32q36 0 49 56l59 -10q-28 -116 -115 -116q-36 0 -76 32t-65 32q-20 0 -33.5 -15t-18.5 -39l-60 11q11 58 43.5 85.5t70.5 27.5zM499 169q0 -117 17 -169h-89q-6 45 -8 91q-49 -103 -169 -103q-74 0 -121 41t-47 106q0 78 70 118q48 26 170 41
l91 11v9q0 67 -25.5 97.5t-81.5 30.5q-53 0 -83.5 -26t-33.5 -73h-91q7 80 63 124.5t151 44.5q97 0 142 -50t45 -158v-135zM414 243l-119 -16q-65 -9 -94 -29.5t-29 -57.5q0 -38 25 -60t69 -22q68 0 108 43.5t40 116.5v25z" />
    <glyph glyph-name="adieresis" unicode="&#xe4;" 
d="M269 720v-120h-119v120h119zM470 720v-120h-119v120h119zM499 169q0 -117 17 -169h-89q-6 45 -8 91q-49 -103 -169 -103q-74 0 -121 41t-47 106q0 78 70 118q48 26 170 41l91 11v9q0 67 -25.5 97.5t-81.5 30.5q-53 0 -83.5 -26t-33.5 -73h-91q7 80 63 124.5t151 44.5
q97 0 142 -50t45 -158v-135zM414 243l-119 -16q-65 -9 -94 -29.5t-29 -57.5q0 -38 25 -60t69 -22q68 0 108 43.5t40 116.5v25z" />
    <glyph glyph-name="aring" unicode="&#xe5;" 
d="M310 551q-48 0 -77.5 29t-29.5 73t29.5 73t77.5 29t77.5 -29t29.5 -73t-29.5 -73t-77.5 -29zM310 599q23 0 36.5 15.5t13.5 38.5t-13.5 38.5t-36.5 15.5t-36.5 -15.5t-13.5 -38.5t13.5 -38.5t36.5 -15.5zM499 169q0 -117 17 -169h-89q-6 45 -8 91q-49 -103 -169 -103
q-74 0 -121 41t-47 106q0 78 70 118q48 26 170 41l91 11v9q0 67 -25.5 97.5t-81.5 30.5q-53 0 -83.5 -26t-33.5 -73h-91q7 80 63 124.5t151 44.5q97 0 142 -50t45 -158v-135zM414 243l-119 -16q-65 -9 -94 -29.5t-29 -57.5q0 -38 25 -60t69 -22q68 0 108 43.5t40 116.5v25z
" />
    <glyph glyph-name="ae" unicode="&#xe6;" 
d="M513 179l82 -16v-3q0 -77 -44.5 -124.5t-120.5 -47.5q-89 0 -134 70q-19 -31 -53.5 -50t-76.5 -19q-62 0 -101.5 37t-39.5 102q0 67 34.5 102.5t113.5 49.5l95 17v57q0 93 -75 93q-35 0 -55.5 -23.5t-20.5 -68.5v-21h-84v3q0 88 45 131.5t115 43.5q83 0 121 -47
q42 47 117 47t118.5 -49.5t43.5 -140.5v-83h-242v-73q0 -52 21.5 -79t58.5 -27t59.5 28t22.5 75v16zM430 442q-79 0 -79 -112v-34h157v35q0 111 -78 111zM269 150v92l-66 -13q-47 -9 -70 -28.5t-23 -62.5q0 -42 20 -63.5t53 -21.5q34 0 60 27t26 70z" />
    <glyph glyph-name="ccedilla" unicode="&#xe7;" 
d="M310 63q105 0 124 120l81 -13q-12 -77 -59 -126.5t-127 -54.5l-24 -38q13 12 43 12q33 0 53.5 -19.5t20.5 -51.5q0 -40 -32 -65.5t-76 -25.5q-70 0 -98 54l57 19q13 -28 42 -28q18 0 30.5 11t12.5 30q0 20 -12 30.5t-28 10.5q-23 0 -35 -15l-39 12l34 65
q-95 11 -146.5 83t-51.5 180q0 117 59.5 188t173.5 71q85 0 139.5 -47t63.5 -132l-87 -10q-14 115 -122 115q-67 0 -103 -49.5t-36 -134.5q0 -88 36.5 -139.5t105.5 -51.5z" />
    <glyph glyph-name="egrave" unicode="&#xe8;" 
d="M347 577h-75l-117 143h106zM520 266q0 -12 -2 -38h-351q0 -72 39.5 -118.5t107.5 -46.5q86 0 132 89l72 -38q-64 -126 -204 -126q-115 0 -174.5 73t-59.5 199q0 115 61.5 183.5t166.5 68.5q109 0 160.5 -68t51.5 -178zM432 298q2 64 -31 106t-97 42t-100.5 -44.5
t-36.5 -103.5h265z" />
    <glyph glyph-name="eacute" unicode="&#xe9;" 
d="M464 720l-117 -143h-75l86 143h106zM520 266q0 -12 -2 -38h-351q0 -72 39.5 -118.5t107.5 -46.5q86 0 132 89l72 -38q-64 -126 -204 -126q-115 0 -174.5 73t-59.5 199q0 115 61.5 183.5t166.5 68.5q109 0 160.5 -68t51.5 -178zM432 298q2 64 -31 106t-97 42t-100.5 -44.5
t-36.5 -103.5h265z" />
    <glyph glyph-name="ecircumflex" unicode="&#xea;" 
d="M310 670l-66 -93h-84l103 143h94l103 -143h-84zM520 266q0 -12 -2 -38h-351q0 -72 39.5 -118.5t107.5 -46.5q86 0 132 89l72 -38q-64 -126 -204 -126q-115 0 -174.5 73t-59.5 199q0 115 61.5 183.5t166.5 68.5q109 0 160.5 -68t51.5 -178zM432 298q2 64 -31 106t-97 42
t-100.5 -44.5t-36.5 -103.5h265z" />
    <glyph glyph-name="edieresis" unicode="&#xeb;" 
d="M269 720v-120h-119v120h119zM470 720v-120h-119v120h119zM520 266q0 -12 -2 -38h-351q0 -72 39.5 -118.5t107.5 -46.5q86 0 132 89l72 -38q-64 -126 -204 -126q-115 0 -174.5 73t-59.5 199q0 115 61.5 183.5t166.5 68.5q109 0 160.5 -68t51.5 -178zM432 298q2 64 -31 106
t-97 42t-100.5 -44.5t-36.5 -103.5h265z" />
    <glyph glyph-name="igrave" unicode="&#xec;" 
d="M356 577h-75l-117 143h106zM125 0v70h160v360h-145v70h230v-430h169v-70h-414z" />
    <glyph glyph-name="iacute" unicode="&#xed;" 
d="M281 577l86 143h106l-117 -143h-75zM125 0v70h160v360h-145v70h230v-430h169v-70h-414z" />
    <glyph glyph-name="icircumflex" unicode="&#xee;" 
d="M469 577h-84l-66 93l-66 -93h-84l103 143h94zM125 0v70h160v360h-145v70h230v-430h169v-70h-414z" />
    <glyph glyph-name="idieresis" unicode="&#xef;" 
d="M278 720v-120h-119v120h119zM479 720v-120h-119v120h119zM125 0v70h160v360h-145v70h230v-430h169v-70h-414z" />
    <glyph glyph-name="eth" unicode="&#xf0;" 
d="M412 603q116 -145 116 -347q0 -115 -62.5 -191.5t-165.5 -76.5q-102 0 -160 70.5t-58 191.5q0 117 56.5 187.5t154.5 70.5q35 0 62 -13.5t37 -24.5t21 -29q-29 79 -81 137l-162 -50l-20 54l135 42q-37 30 -84 48l56 53q60 -27 112 -75l88 27l19 -54zM303 63
q71 0 103 51.5t32 135.5t-32.5 135.5t-102.5 51.5q-65 0 -97.5 -52t-32.5 -135q0 -81 31.5 -134t98.5 -53z" />
    <glyph glyph-name="ntilde" unicode="&#xf1;" 
d="M239 725q41 0 83 -32t63 -32q36 0 49 56l59 -10q-28 -116 -115 -116q-36 0 -76 32t-65 32q-20 0 -33.5 -15t-18.5 -39l-60 11q11 58 43.5 85.5t70.5 27.5zM183 401q21 50 63 80.5t102 30.5q75 0 121 -43q48 -45 48 -160v-309h-85v304q0 133 -104 133q-40 0 -69 -17
t-43.5 -45t-21 -56t-6.5 -58v-261h-85v500h80v-99z" />
    <glyph glyph-name="ograve" unicode="&#xf2;" 
d="M347 577h-75l-117 143h106zM310 -12q-105 0 -169 72t-64 190q0 119 64 190.5t169 71.5t169 -71.5t64 -190.5t-64 -190.5t-169 -71.5zM310 62q67 0 105 49.5t38 138.5q0 88 -38 138t-105 50t-105 -49.5t-38 -138.5t38 -138.5t105 -49.5z" />
    <glyph glyph-name="oacute" unicode="&#xf3;" 
d="M272 577l86 143h106l-117 -143h-75zM310 -12q-105 0 -169 72t-64 190q0 119 64 190.5t169 71.5t169 -71.5t64 -190.5t-64 -190.5t-169 -71.5zM310 62q67 0 105 49.5t38 138.5q0 88 -38 138t-105 50t-105 -49.5t-38 -138.5t38 -138.5t105 -49.5z" />
    <glyph glyph-name="ocircumflex" unicode="&#xf4;" 
d="M460 577h-84l-66 93l-66 -93h-84l103 143h94zM310 -12q-105 0 -169 72t-64 190q0 119 64 190.5t169 71.5t169 -71.5t64 -190.5t-64 -190.5t-169 -71.5zM310 62q67 0 105 49.5t38 138.5q0 88 -38 138t-105 50t-105 -49.5t-38 -138.5t38 -138.5t105 -49.5z" />
    <glyph glyph-name="otilde" unicode="&#xf5;" 
d="M239 725q41 0 83 -32t63 -32q36 0 49 56l59 -10q-28 -116 -115 -116q-36 0 -76 32t-65 32q-20 0 -33.5 -15t-18.5 -39l-60 11q11 58 43.5 85.5t70.5 27.5zM310 -12q-105 0 -169 72t-64 190q0 119 64 190.5t169 71.5t169 -71.5t64 -190.5t-64 -190.5t-169 -71.5zM310 62
q67 0 105 49.5t38 138.5q0 88 -38 138t-105 50t-105 -49.5t-38 -138.5t38 -138.5t105 -49.5z" />
    <glyph glyph-name="odieresis" unicode="&#xf6;" 
d="M269 720v-120h-119v120h119zM470 720v-120h-119v120h119zM310 -12q-105 0 -169 72t-64 190q0 119 64 190.5t169 71.5t169 -71.5t64 -190.5t-64 -190.5t-169 -71.5zM310 62q67 0 105 49.5t38 138.5q0 88 -38 138t-105 50t-105 -49.5t-38 -138.5t38 -138.5t105 -49.5z" />
    <glyph glyph-name="divide" unicode="&#xf7;" 
d="M310 462q-23 0 -37.5 14.5t-14.5 37.5t14.5 37.5t37.5 14.5t37.5 -14t14.5 -38q0 -23 -14.5 -37.5t-37.5 -14.5zM75 288v76h470v-76h-470zM310 86q-23 0 -37.5 14.5t-14.5 37.5t14.5 37.5t37.5 14.5t37.5 -14t14.5 -38q0 -23 -14.5 -37.5t-37.5 -14.5z" />
    <glyph glyph-name="oslash" unicode="&#xf8;" 
d="M488 430q55 -71 55 -180q0 -119 -64 -190.5t-169 -71.5q-81 0 -139 44l-37 -46l-43 31l42 53q-56 70 -56 180q0 119 64 190.5t169 71.5q81 0 139 -44l37 46l44 -31zM167 250q0 -66 21 -111l212 266q-36 33 -90 33q-67 0 -105 -49.5t-38 -138.5zM310 62q67 0 105 49.5
t38 138.5q0 65 -21 110l-212 -266q37 -32 90 -32z" />
    <glyph glyph-name="ugrave" unicode="&#xf9;" 
d="M342 577h-75l-117 143h106zM427 95q-16 -41 -58 -74t-94 -33q-81 0 -128 44q-46 45 -46 159v309h87v-306q0 -133 104 -133q37 0 64 17t40.5 45t19.5 56.5t6 59.5v261h85v-500h-80v95z" />
    <glyph glyph-name="uacute" unicode="&#xfa;" 
d="M267 577l86 143h106l-117 -143h-75zM427 95q-16 -41 -58 -74t-94 -33q-81 0 -128 44q-46 45 -46 159v309h87v-306q0 -133 104 -133q37 0 64 17t40.5 45t19.5 56.5t6 59.5v261h85v-500h-80v95z" />
    <glyph glyph-name="ucircumflex" unicode="&#xfb;" 
d="M455 577h-84l-66 93l-66 -93h-84l103 143h94zM427 95q-16 -41 -58 -74t-94 -33q-81 0 -128 44q-46 45 -46 159v309h87v-306q0 -133 104 -133q37 0 64 17t40.5 45t19.5 56.5t6 59.5v261h85v-500h-80v95z" />
    <glyph glyph-name="udieresis" unicode="&#xfc;" 
d="M264 720v-120h-119v120h119zM465 720v-120h-119v120h119zM427 95q-16 -41 -58 -74t-94 -33q-81 0 -128 44q-46 45 -46 159v309h87v-306q0 -133 104 -133q37 0 64 17t40.5 45t19.5 56.5t6 59.5v261h85v-500h-80v95z" />
    <glyph glyph-name="yacute" unicode="&#xfd;" 
d="M272 577l86 143h106l-117 -143h-75zM177 500l141 -401l139 401h91l-200 -532q-33 -92 -79 -131t-111 -39q-25 0 -46 4v75q26 -2 36 -2q45 0 71 22t44 72l13 37l-195 494h96z" />
    <glyph glyph-name="thorn" unicode="&#xfe;" 
d="M197 725v-313q52 100 158 100q92 0 147 -75t55 -187t-55 -187t-147 -75q-106 0 -158 90v-273h-85v920h85zM195 237q0 -81 36 -127.5t101 -46.5q62 0 98.5 53.5t36.5 133.5t-36.5 133.5t-98.5 53.5q-65 0 -101 -46t-36 -126v-28z" />
    <glyph glyph-name="ydieresis" unicode="&#xff;" 
d="M269 720v-120h-119v120h119zM470 720v-120h-119v120h119zM177 500l141 -401l139 401h91l-200 -532q-33 -92 -79 -131t-111 -39q-25 0 -46 4v75q26 -2 36 -2q45 0 71 22t44 72l13 37l-195 494h96z" />
    <glyph glyph-name="Amacron" unicode="&#x100;" 
d="M470 841v-68h-320v68h320zM499 0l-66 205h-247l-65 -205h-92l228 710h106l228 -710h-92zM309 628q-28 -123 -98 -343h197q-67 209 -97 343h-2z" />
    <glyph glyph-name="amacron" unicode="&#x101;" 
d="M166 600v68h288v-68h-288zM499 169q0 -117 17 -169h-89q-6 45 -8 91q-49 -103 -169 -103q-74 0 -121 41t-47 106q0 78 70 118q48 26 170 41l91 11v9q0 67 -25.5 97.5t-81.5 30.5q-53 0 -83.5 -26t-33.5 -73h-91q7 80 63 124.5t151 44.5q97 0 142 -50t45 -158v-135z
M414 243l-119 -16q-65 -9 -94 -29.5t-29 -57.5q0 -38 25 -60t69 -22q68 0 108 43.5t40 116.5v25z" />
    <glyph glyph-name="Abreve" unicode="&#x102;" 
d="M310 769q-64 0 -109 29.5t-53 85.5h78q4 -23 26.5 -38.5t57.5 -15.5t57.5 15.5t27.5 38.5h77q-9 -56 -53.5 -85.5t-108.5 -29.5zM499 0l-66 205h-247l-65 -205h-92l228 710h106l228 -710h-92zM309 628q-28 -123 -98 -343h197q-67 209 -97 343h-2z" />
    <glyph glyph-name="abreve" unicode="&#x103;" 
d="M230 720q2 -38 24.5 -62.5t55.5 -24.5t55.5 24.5t24.5 62.5h72q-4 -74 -47 -111t-105 -37t-105 37t-47 111h72zM499 169q0 -117 17 -169h-89q-6 45 -8 91q-49 -103 -169 -103q-74 0 -121 41t-47 106q0 78 70 118q48 26 170 41l91 11v9q0 67 -25.5 97.5t-81.5 30.5
q-53 0 -83.5 -26t-33.5 -73h-91q7 80 63 124.5t151 44.5q97 0 142 -50t45 -158v-135zM414 243l-119 -16q-65 -9 -94 -29.5t-29 -57.5q0 -38 25 -60t69 -22q68 0 108 43.5t40 116.5v25z" />
    <glyph glyph-name="Aogonek" unicode="&#x104;" 
d="M573 -107l54 -20q-10 -37 -39.5 -56.5t-72.5 -19.5q-38 0 -66.5 23.5t-28.5 64.5q0 72 89 115h-10l-66 205h-247l-65 -205h-92l228 710h106l228 -710q-57 -20 -82 -49t-25 -56q0 -21 11 -34.5t29 -13.5q33 0 49 46zM309 628q-28 -123 -98 -343h197q-67 209 -97 343h-2z
" />
    <glyph glyph-name="aogonek" unicode="&#x105;" 
d="M498 -107l54 -20q-10 -37 -39.5 -56.5t-72.5 -19.5q-38 0 -66.5 23.5t-28.5 64.5q0 72 89 115h-7q-6 45 -8 91q-49 -103 -169 -103q-74 0 -121 41t-47 106q0 78 70 118q48 26 170 41l91 11v9q0 67 -25.5 97.5t-81.5 30.5q-53 0 -83.5 -26t-33.5 -73h-91q7 80 63 124.5
t151 44.5q97 0 142 -50t45 -158v-135q0 -117 17 -169q-57 -20 -82 -49t-25 -56q0 -21 11 -34.5t29 -13.5q33 0 49 46zM414 218v25l-119 -16q-65 -9 -94 -29.5t-29 -57.5q0 -38 25 -60t69 -22q68 0 108 43.5t40 116.5z" />
    <glyph glyph-name="Cacute" unicode="&#x106;" 
d="M270 777l70 107h114l-104 -107h-80zM307 -17q-125 0 -189 90.5t-64 255.5v52q0 164 67.5 255t193.5 91q223 0 250 -250l-93 -15q-6 89 -46 137t-112 48q-84 0 -124 -63.5t-40 -197.5v-51q0 -272 164 -272q145 0 158 186l92 -19q-12 -112 -76 -179.5t-181 -67.5z" />
    <glyph glyph-name="cacute" unicode="&#x107;" 
d="M272 577l86 143h106l-117 -143h-75zM310 -12q-110 0 -170 74t-60 191t59.5 188t173.5 71q85 0 139.5 -47t63.5 -132l-87 -10q-14 115 -122 115q-67 0 -103 -49.5t-36 -134.5q0 -88 36.5 -139.5t105.5 -51.5q105 0 124 120l81 -13q-13 -81 -64.5 -131.5t-140.5 -50.5z" />
    <glyph glyph-name="Ccircumflex" unicode="&#x108;" 
d="M460 776h-87l-65 69l-63 -69h-85l97 108h105zM307 -17q-125 0 -189 90.5t-64 255.5v52q0 164 67.5 255t193.5 91q223 0 250 -250l-93 -15q-6 89 -46 137t-112 48q-84 0 -124 -63.5t-40 -197.5v-51q0 -272 164 -272q145 0 158 186l92 -19q-12 -112 -76 -179.5t-181 -67.5z
" />
    <glyph glyph-name="ccircumflex" unicode="&#x109;" 
d="M460 577h-84l-66 93l-66 -93h-84l103 143h94zM310 -12q-110 0 -170 74t-60 191t59.5 188t173.5 71q85 0 139.5 -47t63.5 -132l-87 -10q-14 115 -122 115q-67 0 -103 -49.5t-36 -134.5q0 -88 36.5 -139.5t105.5 -51.5q105 0 124 120l81 -13q-13 -81 -64.5 -131.5
t-140.5 -50.5z" />
    <glyph glyph-name="Cdotaccent" unicode="&#x10a;" 
d="M370 884v-111h-120v111h120zM307 -17q-125 0 -189 90.5t-64 255.5v52q0 164 67.5 255t193.5 91q223 0 250 -250l-93 -15q-6 89 -46 137t-112 48q-84 0 -124 -63.5t-40 -197.5v-51q0 -272 164 -272q145 0 158 186l92 -19q-12 -112 -76 -179.5t-181 -67.5z" />
    <glyph glyph-name="cdotaccent" unicode="&#x10b;" 
d="M370 720v-120h-120v120h120zM310 -12q-110 0 -170 74t-60 191t59.5 188t173.5 71q85 0 139.5 -47t63.5 -132l-87 -10q-14 115 -122 115q-67 0 -103 -49.5t-36 -134.5q0 -88 36.5 -139.5t105.5 -51.5q105 0 124 120l81 -13q-13 -81 -64.5 -131.5t-140.5 -50.5z" />
    <glyph glyph-name="Ccaron" unicode="&#x10c;" 
d="M160 884h87l65 -69l63 69h85l-97 -108h-105zM307 -17q-125 0 -189 90.5t-64 255.5v52q0 164 67.5 255t193.5 91q223 0 250 -250l-93 -15q-6 89 -46 137t-112 48q-84 0 -124 -63.5t-40 -197.5v-51q0 -272 164 -272q145 0 158 186l92 -19q-12 -112 -76 -179.5t-181 -67.5z
" />
    <glyph glyph-name="ccaron" unicode="&#x10d;" 
d="M160 720h84l66 -93l66 93h84l-103 -143h-94zM310 -12q-110 0 -170 74t-60 191t59.5 188t173.5 71q85 0 139.5 -47t63.5 -132l-87 -10q-14 115 -122 115q-67 0 -103 -49.5t-36 -134.5q0 -88 36.5 -139.5t105.5 -51.5q105 0 124 120l81 -13q-13 -81 -64.5 -131.5
t-140.5 -50.5z" />
    <glyph glyph-name="Dcaron" unicode="&#x10e;" 
d="M160 884h87l65 -69l63 69h85l-97 -108h-105zM76 0v710h208q143 0 222.5 -98t79.5 -256q0 -155 -83 -255.5t-221 -100.5h-206zM169 78h112q97 0 153 81t56 197q0 119 -54 197.5t-153 78.5h-114v-554z" />
    <glyph glyph-name="dcaron" unicode="&#x10f;" 
d="M220 -10q-87 0 -139 72t-52 191q0 118 56 189.5t148 71.5q94 0 136 -86v299h85v-725h-80v93q-47 -105 -154 -105zM537 531l-18 35q27 7 36.5 18.5t9.5 35.5h-51v90h96v-80q0 -42 -17 -65t-56 -34zM238 65q61 0 97 47.5t36 128.5v23q0 80 -35 127.5t-95 47.5
q-58 0 -90 -49t-32 -137q0 -87 32 -137.5t87 -50.5z" />
    <glyph glyph-name="Dcroat" unicode="&#x110;" 
d="M284 710q143 0 222.5 -98t79.5 -256q0 -155 -83 -255.5t-221 -100.5h-206v329h-76v72h76v309h208zM281 78q97 0 153 81t56 197q0 119 -54 197.5t-153 78.5h-114v-231h167v-72h-167v-251h112z" />
    <glyph glyph-name="dcroat" unicode="&#x111;" 
d="M568 630v-51h-65v-579h-80v93q-48 -105 -159 -105q-94 0 -150 72t-56 191q0 118 60 189.5t159 71.5q97 0 141 -86v153h-263v51h263v95h85v-95h65zM420 239v23q0 80 -36.5 127.5t-98.5 47.5q-65 0 -101 -49t-36 -137q0 -87 36 -137.5t98 -50.5q64 0 101 47.5t37 128.5z
" />
    <glyph glyph-name="Emacron" unicode="&#x112;" 
d="M150 773v68h320v-68h-320zM520 710v-80h-322v-227h305v-78h-305v-245h329v-80h-422v710h415z" />
    <glyph glyph-name="emacron" unicode="&#x113;" 
d="M454 668v-68h-288v68h288zM520 266q0 -12 -2 -38h-351q0 -72 39.5 -118.5t107.5 -46.5q86 0 132 89l72 -38q-64 -126 -204 -126q-115 0 -174.5 73t-59.5 199q0 115 61.5 183.5t166.5 68.5q109 0 160.5 -68t51.5 -178zM432 298q2 64 -31 106t-97 42t-100.5 -44.5
t-36.5 -103.5h265z" />
    <glyph glyph-name="Ebreve" unicode="&#x114;" 
d="M226 884q4 -23 26.5 -38.5t57.5 -15.5t57.5 15.5t27.5 38.5h77q-9 -56 -53.5 -85.5t-108.5 -29.5t-109 29.5t-53 85.5h78zM520 710v-80h-322v-227h305v-78h-305v-245h329v-80h-422v710h415z" />
    <glyph glyph-name="ebreve" unicode="&#x115;" 
d="M310 572q-62 0 -105 37t-47 111h72q2 -38 24.5 -62.5t55.5 -24.5t55.5 24.5t24.5 62.5h72q-4 -74 -47 -111t-105 -37zM520 266q0 -12 -2 -38h-351q0 -72 39.5 -118.5t107.5 -46.5q86 0 132 89l72 -38q-64 -126 -204 -126q-115 0 -174.5 73t-59.5 199q0 115 61.5 183.5
t166.5 68.5q109 0 160.5 -68t51.5 -178zM432 298q2 64 -31 106t-97 42t-100.5 -44.5t-36.5 -103.5h265z" />
    <glyph glyph-name="Edotaccent" unicode="&#x116;" 
d="M370 884v-111h-120v111h120zM520 710v-80h-322v-227h305v-78h-305v-245h329v-80h-422v710h415z" />
    <glyph glyph-name="edotaccent" unicode="&#x117;" 
d="M370 720v-120h-120v120h120zM520 266q0 -12 -2 -38h-351q0 -72 39.5 -118.5t107.5 -46.5q86 0 132 89l72 -38q-64 -126 -204 -126q-115 0 -174.5 73t-59.5 199q0 115 61.5 183.5t166.5 68.5q109 0 160.5 -68t51.5 -178zM432 298q2 64 -31 106t-97 42t-100.5 -44.5
t-36.5 -103.5h265z" />
    <glyph glyph-name="Eogonek" unicode="&#x118;" 
d="M509 -107l54 -20q-10 -37 -39.5 -56.5t-72.5 -19.5q-38 0 -66.5 23.5t-28.5 64.5q0 72 89 115h-340v710h415v-80h-322v-227h305v-78h-305v-245h329v-80q-57 -20 -82 -49t-25 -56q0 -21 11 -34.5t29 -13.5q33 0 49 46z" />
    <glyph glyph-name="eogonek" unicode="&#x119;" 
d="M520 266q0 -12 -2 -38h-351q0 -72 39.5 -118.5t107.5 -46.5q86 0 132 89l72 -38q-45 -91 -132 -116q-53 -20 -77 -48.5t-24 -54.5q0 -21 11 -34.5t29 -13.5q33 0 49 46l54 -20q-10 -37 -39.5 -56.5t-72.5 -19.5q-38 0 -66.5 23.5t-28.5 64.5q0 63 68 104q-103 8 -156 80
t-53 191q0 115 61.5 183.5t166.5 68.5q109 0 160.5 -68t51.5 -178zM432 298q2 64 -31 106t-97 42t-100.5 -44.5t-36.5 -103.5h265z" />
    <glyph glyph-name="Ecaron" unicode="&#x11a;" 
d="M160 884h87l65 -69l63 69h85l-97 -108h-105zM520 710v-80h-322v-227h305v-78h-305v-245h329v-80h-422v710h415z" />
    <glyph glyph-name="ecaron" unicode="&#x11b;" 
d="M357 577h-94l-103 143h84l66 -93l66 93h84zM520 266q0 -12 -2 -38h-351q0 -72 39.5 -118.5t107.5 -46.5q86 0 132 89l72 -38q-64 -126 -204 -126q-115 0 -174.5 73t-59.5 199q0 115 61.5 183.5t166.5 68.5q109 0 160.5 -68t51.5 -178zM432 298q2 64 -31 106t-97 42
t-100.5 -44.5t-36.5 -103.5h265z" />
    <glyph glyph-name="Gcircumflex" unicode="&#x11c;" 
d="M460 776h-87l-65 69l-63 -69h-85l97 108h105zM295 -17q-116 0 -178.5 93.5t-62.5 246.5v70q0 157 67.5 245.5t190.5 88.5q62 0 108 -21.5t70 -57.5t35.5 -68t16.5 -68l-91 -13q-7 58 -40.5 103t-101.5 45q-78 0 -118 -61t-40 -209v-39q0 -274 158 -274q45 0 78 20.5
t48.5 52.5t22.5 61t7 56v42h-178v75h263v-371h-64l-14 104q-49 -121 -177 -121z" />
    <glyph glyph-name="gcircumflex" unicode="&#x11d;" 
d="M310 675l-63 -78h-87l103 123h94l103 -123h-87zM523 508q-54 0 -74 -48q45 -45 45 -116q0 -76 -52 -123.5t-136 -47.5q-53 0 -93 20q-35 -17 -35 -50q0 -50 83 -50h129q78 0 120.5 -36t42.5 -100q0 -78 -65 -121t-182 -43q-106 0 -166.5 34t-60.5 93q0 40 23.5 69
t63.5 43q-63 26 -63 89q0 70 72 97q-50 45 -50 121q0 77 51.5 125t134.5 48q54 0 96 -22q28 92 121 92q20 0 32 -4v-74q-30 4 -37 4zM307 238q46 0 76.5 30t30.5 76q0 45 -29 74t-75 29t-75.5 -29.5t-29.5 -76.5q0 -46 28.5 -74.5t73.5 -28.5zM371 18h-113q-16 0 -42 2
q-53 -24 -53 -76q0 -81 152 -81q153 0 153 85q0 70 -97 70z" />
    <glyph glyph-name="Gbreve" unicode="&#x11e;" 
d="M226 884q4 -23 26.5 -38.5t57.5 -15.5t57.5 15.5t27.5 38.5h77q-9 -56 -53.5 -85.5t-108.5 -29.5t-109 29.5t-53 85.5h78zM295 -17q-116 0 -178.5 93.5t-62.5 246.5v70q0 157 67.5 245.5t190.5 88.5q62 0 108 -21.5t70 -57.5t35.5 -68t16.5 -68l-91 -13q-7 58 -40.5 103
t-101.5 45q-78 0 -118 -61t-40 -209v-39q0 -274 158 -274q45 0 78 20.5t48.5 52.5t22.5 61t7 56v42h-178v75h263v-371h-64l-14 104q-49 -121 -177 -121z" />
    <glyph glyph-name="gbreve" unicode="&#x11f;" 
d="M310 572q-62 0 -105 37t-47 111h72q2 -38 24.5 -62.5t55.5 -24.5t55.5 24.5t24.5 62.5h72q-4 -74 -47 -111t-105 -37zM523 508q-54 0 -74 -48q45 -45 45 -116q0 -76 -52 -123.5t-136 -47.5q-53 0 -93 20q-35 -17 -35 -50q0 -50 83 -50h129q78 0 120.5 -36t42.5 -100
q0 -78 -65 -121t-182 -43q-106 0 -166.5 34t-60.5 93q0 40 23.5 69t63.5 43q-63 26 -63 89q0 70 72 97q-50 45 -50 121q0 77 51.5 125t134.5 48q54 0 96 -22q28 92 121 92q20 0 32 -4v-74q-30 4 -37 4zM307 238q46 0 76.5 30t30.5 76q0 45 -29 74t-75 29t-75.5 -29.5
t-29.5 -76.5q0 -46 28.5 -74.5t73.5 -28.5zM371 18h-113q-16 0 -42 2q-53 -24 -53 -76q0 -81 152 -81q153 0 153 85q0 70 -97 70z" />
    <glyph glyph-name="Gdotaccent" unicode="&#x120;" 
d="M370 884v-111h-120v111h120zM295 -17q-116 0 -178.5 93.5t-62.5 246.5v70q0 157 67.5 245.5t190.5 88.5q62 0 108 -21.5t70 -57.5t35.5 -68t16.5 -68l-91 -13q-7 58 -40.5 103t-101.5 45q-78 0 -118 -61t-40 -209v-39q0 -274 158 -274q45 0 78 20.5t48.5 52.5t22.5 61
t7 56v42h-178v75h263v-371h-64l-14 104q-49 -121 -177 -121z" />
    <glyph glyph-name="gdotaccent" unicode="&#x121;" 
d="M370 720v-120h-120v120h120zM523 508q-54 0 -74 -48q45 -45 45 -116q0 -76 -52 -123.5t-136 -47.5q-53 0 -93 20q-35 -17 -35 -50q0 -50 83 -50h129q78 0 120.5 -36t42.5 -100q0 -78 -65 -121t-182 -43q-106 0 -166.5 34t-60.5 93q0 40 23.5 69t63.5 43q-63 26 -63 89
q0 70 72 97q-50 45 -50 121q0 77 51.5 125t134.5 48q54 0 96 -22q28 92 121 92q20 0 32 -4v-74q-30 4 -37 4zM307 238q46 0 76.5 30t30.5 76q0 45 -29 74t-75 29t-75.5 -29.5t-29.5 -76.5q0 -46 28.5 -74.5t73.5 -28.5zM371 18h-113q-16 0 -42 2q-53 -24 -53 -76
q0 -81 152 -81q153 0 153 85q0 70 -97 70z" />
    <glyph glyph-name="uni0122" unicode="&#x122;" 
d="M295 -17q-116 0 -178.5 93.5t-62.5 246.5v70q0 157 67.5 245.5t190.5 88.5q62 0 108 -21.5t70 -57.5t35.5 -68t16.5 -68l-91 -13q-7 58 -40.5 103t-101.5 45q-78 0 -118 -61t-40 -209v-39q0 -274 158 -274q45 0 78 20.5t48.5 52.5t22.5 61t7 56v42h-178v75h263v-371h-64
l-14 104q-49 -121 -177 -121zM276 -237l-20 38q30 10 38.5 23t8.5 40h-51v90h96v-80q0 -43 -15.5 -69.5t-56.5 -41.5z" />
    <glyph glyph-name="uni0123" unicode="&#x123;" 
d="M358 670v-90h-96v80q0 43 15.5 69.5t56.5 41.5l20 -38q-30 -10 -38.5 -23t-8.5 -40h51zM523 508q-54 0 -74 -48q45 -45 45 -116q0 -76 -52 -123.5t-136 -47.5q-53 0 -93 20q-35 -17 -35 -50q0 -50 83 -50h129q78 0 120.5 -36t42.5 -100q0 -78 -65 -121t-182 -43
q-106 0 -166.5 34t-60.5 93q0 40 23.5 69t63.5 43q-63 26 -63 89q0 70 72 97q-50 45 -50 121q0 77 51.5 125t134.5 48q54 0 96 -22q28 92 121 92q20 0 32 -4v-74q-30 4 -37 4zM307 238q46 0 76.5 30t30.5 76q0 45 -29 74t-75 29t-75.5 -29.5t-29.5 -76.5q0 -46 28.5 -74.5
t73.5 -28.5zM371 18h-113q-16 0 -42 2q-53 -24 -53 -76q0 -81 152 -81q153 0 153 85q0 70 -97 70z" />
    <glyph glyph-name="Hcircumflex" unicode="&#x124;" 
d="M460 776h-87l-65 69l-63 -69h-85l97 108h105zM539 710v-710h-93v324h-272v-324h-93v710h93v-308h272v308h93z" />
    <glyph glyph-name="hcircumflex" unicode="&#x125;" 
d="M296 776h-87l-65 69l-63 -69h-85l97 108h105zM188 409q17 46 60.5 74.5t96.5 28.5q76 0 123 -44q49 -47 49 -159v-309h-85v304q0 133 -108 133q-51 0 -83 -30.5t-42.5 -67.5t-10.5 -78v-261h-85v725h85v-316z" />
    <glyph glyph-name="Hbar" unicode="&#x126;" 
d="M599 582v-59h-60v-523h-93v324h-272v-324h-93v523h-60v59h60v128h93v-128h272v128h93v-128h60zM446 402v121h-272v-121h272z" />
    <glyph glyph-name="hbar" unicode="&#x127;" 
d="M468 468q49 -47 49 -159v-309h-85v304q0 133 -108 133q-51 0 -83 -30.5t-42.5 -67.5t-10.5 -78v-261h-85v579h-103v51h103v95h85v-95h233v-51h-233v-170q17 46 60.5 74.5t96.5 28.5q76 0 123 -44z" />
    <glyph glyph-name="Itilde" unicode="&#x128;" 
d="M238 823q-44 0 -60 -48l-58 11q10 52 43.5 77.5t77.5 25.5q36 0 76.5 -29t65.5 -29q49 0 59 50l57 -10q-19 -106 -123 -106q-38 0 -75 29t-63 29zM534 635h-178v-560h178v-75h-448v75h177v560h-177v75h448v-75z" />
    <glyph glyph-name="itilde" unicode="&#x129;" 
d="M248 725q41 0 83 -32t63 -32q36 0 49 56l59 -10q-28 -116 -115 -116q-36 0 -76 32t-65 32q-20 0 -33.5 -15t-18.5 -39l-60 11q11 58 43.5 85.5t70.5 27.5zM125 0v70h160v360h-145v70h230v-430h169v-70h-414z" />
    <glyph glyph-name="Imacron" unicode="&#x12a;" 
d="M470 841v-68h-320v68h320zM534 635h-178v-560h178v-75h-448v75h177v560h-177v75h448v-75z" />
    <glyph glyph-name="imacron" unicode="&#x12b;" 
d="M175 600v68h288v-68h-288zM125 0v70h160v360h-145v70h230v-430h169v-70h-414z" />
    <glyph glyph-name="Ibreve" unicode="&#x12c;" 
d="M310 769q-64 0 -109 29.5t-53 85.5h78q4 -23 26.5 -38.5t57.5 -15.5t57.5 15.5t27.5 38.5h77q-9 -56 -53.5 -85.5t-108.5 -29.5zM534 635h-178v-560h178v-75h-448v75h177v560h-177v75h448v-75z" />
    <glyph glyph-name="ibreve" unicode="&#x12d;" 
d="M239 720q2 -38 24.5 -62.5t55.5 -24.5t55.5 24.5t24.5 62.5h72q-4 -74 -47 -111t-105 -37t-105 37t-47 111h72zM125 0v70h160v360h-145v70h230v-430h169v-70h-414z" />
    <glyph glyph-name="Iogonek" unicode="&#x12e;" 
d="M516 -107l54 -20q-10 -37 -39.5 -56.5t-72.5 -19.5q-38 0 -66.5 23.5t-28.5 64.5q0 72 89 115h-366v75h177v560h-177v75h448v-75h-178v-560h178v-75q-57 -20 -82 -49t-25 -56q0 -21 11 -34.5t29 -13.5q33 0 49 46z" />
    <glyph glyph-name="iogonek" unicode="&#x12f;" 
d="M379 720v-120h-120v120h120zM521 -107l54 -20q-10 -37 -39.5 -56.5t-72.5 -19.5q-38 0 -66.5 23.5t-28.5 64.5q0 72 89 115h-332v70h160v360h-145v70h230v-430h169v-70q-57 -20 -82 -49t-25 -56q0 -21 11 -34.5t29 -13.5q33 0 49 46z" />
    <glyph glyph-name="Idotaccent" unicode="&#x130;" 
d="M370 884v-111h-120v111h120zM534 635h-178v-560h178v-75h-448v75h177v560h-177v75h448v-75z" />
    <glyph glyph-name="dotlessi" unicode="&#x131;" 
d="M125 0v70h160v360h-145v70h230v-430h169v-70h-414z" />
    <glyph glyph-name="IJ" unicode="&#x132;" 
d="M188 710v-710h-93v710h93zM253 7v76q36 -10 89 -10q52 0 75.5 23.5t23.5 87.5v526h93v-535q0 -80 -44.5 -131t-145.5 -51q-55 0 -91 14z" />
    <glyph glyph-name="ij" unicode="&#x133;" 
d="M111 605v120h119v-120h-119zM391 605v120h119v-120h-119zM129 0v500h85v-500h-85zM329 -202q-50 0 -91 8v74q57 -4 80 -4q47 0 70 24.5t23 92.5v507h85v-512q0 -88 -40 -139t-127 -51z" />
    <glyph glyph-name="Jcircumflex" unicode="&#x134;" 
d="M624 776h-87l-65 69l-63 -69h-85l97 108h105zM520 215q0 -104 -60.5 -168t-171.5 -64q-60 0 -107 22t-73.5 58.5t-40 78.5t-13.5 87l92 31q0 -88 37.5 -142.5t108.5 -54.5q135 0 135 173v474h93v-495z" />
    <glyph glyph-name="jcircumflex" unicode="&#x135;" 
d="M532 576h-84l-66 93l-66 -93h-84l103 143h94zM236 -202q-69 0 -126 18v74q63 -14 115 -14q61 0 87 27.5t26 99.5v427h-190v70h275v-502q0 -200 -187 -200z" />
    <glyph glyph-name="uni0136" unicode="&#x136;" 
d="M338 430l239 -430h-108l-196 364l-96 -118v-246h-93v710h93v-350l268 350h109zM262 -136v90h96v-80q0 -43 -15.5 -69.5t-56.5 -41.5l-20 38q30 10 38.5 23t8.5 40h-51z" />
    <glyph glyph-name="uni0137" unicode="&#x137;" 
d="M354 307l195 -307h-105l-151 245l-91 -92v-153h-85v725h85v-471l224 246h111zM262 -136v90h96v-80q0 -43 -15.5 -69.5t-56.5 -41.5l-20 38q30 10 38.5 23t8.5 40h-51z" />
    <glyph glyph-name="kgreenlandic" unicode="&#x138;" 
d="M444 0l-158 257l-84 -82v-175h-85v500h85v-224l222 224h113l-189 -183l201 -317h-105z" />
    <glyph glyph-name="Lacute" unicode="&#x139;" 
d="M122 777l70 107h114l-104 -107h-80zM115 710h93v-630h340v-80h-433v710z" />
    <glyph glyph-name="lacute" unicode="&#x13a;" 
d="M288 777l70 107h114l-104 -107h-80zM125 0v70h160v585h-150v70h235v-655h169v-70h-414z" />
    <glyph glyph-name="uni013B" unicode="&#x13b;" 
d="M115 710h93v-630h340v-80h-433v710zM286 -237l-20 38q30 10 38.5 23t8.5 40h-51v90h96v-80q0 -43 -15.5 -69.5t-56.5 -41.5z" />
    <glyph glyph-name="uni013C" unicode="&#x13c;" 
d="M125 0v70h160v585h-150v70h235v-655h169v-70h-414zM306 -237l-20 38q30 10 38.5 23t8.5 40h-51v90h96v-80q0 -43 -15.5 -69.5t-56.5 -41.5z" />
    <glyph glyph-name="Lcaron" unicode="&#x13d;" 
d="M115 710h93v-630h340v-80h-433v710zM308 531l-18 35q27 7 36.5 18.5t9.5 35.5h-51v90h96v-80q0 -42 -17 -65t-56 -34z" />
    <glyph glyph-name="lcaron" unicode="&#x13e;" 
d="M125 0v70h160v585h-150v70h235v-655h169v-70h-414zM469 531l-18 35q27 7 36.5 18.5t9.5 35.5h-51v90h96v-80q0 -42 -17 -65t-56 -34z" />
    <glyph glyph-name="Ldot" unicode="&#x13f;" 
d="M115 710h93v-630h340v-80h-433v710zM462 500v-128h-133v128h133z" />
    <glyph glyph-name="ldot" unicode="&#x140;" 
d="M125 0v70h160v585h-150v70h235v-655h169v-70h-414zM510 429v-128h-98v128h98z" />
    <glyph glyph-name="Lslash" unicode="&#x141;" 
d="M208 80h340v-80h-433v285l-99 -61v77l99 61v348h93v-290l198 123v-77l-198 -123v-263z" />
    <glyph glyph-name="lslash" unicode="&#x142;" 
d="M370 70h169v-70h-414v70h160v268l-120 -79v72l120 79v245h-150v70h235v-259l120 79v-72l-120 -79v-324z" />
    <glyph glyph-name="Nacute" unicode="&#x143;" 
d="M270 777l70 107h114l-104 -107h-80zM412 227q25 -59 34 -93h2q-2 24 -2 76v500h93v-710h-109l-223 511l-32 84h-3q2 -19 2 -61v-534h-93v710h122z" />
    <glyph glyph-name="nacute" unicode="&#x144;" 
d="M272 577l86 143h106l-117 -143h-75zM183 401q21 50 63 80.5t102 30.5q75 0 121 -43q48 -45 48 -160v-309h-85v304q0 133 -104 133q-40 0 -69 -17t-43.5 -45t-21 -56t-6.5 -58v-261h-85v500h80v-99z" />
    <glyph glyph-name="uni0145" unicode="&#x145;" 
d="M412 227q25 -59 34 -93h2q-2 24 -2 76v500h93v-710h-109l-223 511l-32 84h-3q2 -19 2 -61v-534h-93v710h122zM286 -237l-20 38q30 10 38.5 23t8.5 40h-51v90h96v-80q0 -43 -15.5 -69.5t-56.5 -41.5z" />
    <glyph glyph-name="uni0146" unicode="&#x146;" 
d="M183 401q21 50 63 80.5t102 30.5q75 0 121 -43q48 -45 48 -160v-309h-85v304q0 133 -104 133q-40 0 -69 -17t-43.5 -45t-21 -56t-6.5 -58v-261h-85v500h80v-99zM286 -237l-20 38q30 10 38.5 23t8.5 40h-51v90h96v-80q0 -43 -15.5 -69.5t-56.5 -41.5z" />
    <glyph glyph-name="Ncaron" unicode="&#x147;" 
d="M160 884h87l65 -69l63 69h85l-97 -108h-105zM412 227q25 -59 34 -93h2q-2 24 -2 76v500h93v-710h-109l-223 511l-32 84h-3q2 -19 2 -61v-534h-93v710h122z" />
    <glyph glyph-name="ncaron" unicode="&#x148;" 
d="M160 720h84l66 -93l66 93h84l-103 -143h-94zM183 401q21 50 63 80.5t102 30.5q75 0 121 -43q48 -45 48 -160v-309h-85v304q0 133 -104 133q-40 0 -69 -17t-43.5 -45t-21 -56t-6.5 -58v-261h-85v500h80v-99z" />
    <glyph glyph-name="napostrophe" unicode="&#x149;" 
d="M61 531l-18 35q27 7 36.5 18.5t9.5 35.5h-51v90h96v-80q0 -42 -17 -65t-56 -34zM183 401q21 50 63 80.5t102 30.5q75 0 121 -43q48 -45 48 -160v-309h-85v304q0 133 -104 133q-40 0 -69 -17t-43.5 -45t-21 -56t-6.5 -58v-261h-85v500h80v-99z" />
    <glyph glyph-name="Eng" unicode="&#x14a;" 
d="M260 -210v83q34 -6 84 -6q100 0 100 106v27l-238 516l-32 84h-3q2 -19 2 -61v-539h-87v710h122l205 -458q25 -59 34 -93h2q-2 24 -2 76v475h87v-724q0 -110 -53.5 -156.5t-137.5 -46.5q-59 0 -83 7z" />
    <glyph glyph-name="eng" unicode="&#x14b;" 
d="M469 469q48 -45 48 -160v-333q0 -85 -28 -131.5t-98 -46.5q-34 0 -61 6v73q22 -2 42 -2q35 0 47.5 20t12.5 68v341q0 133 -104 133q-40 0 -69 -17t-43.5 -45t-21 -56t-6.5 -58v-261h-85v500h80v-99q21 50 63 80.5t102 30.5q75 0 121 -43z" />
    <glyph glyph-name="Omacron" unicode="&#x14c;" 
d="M150 773v68h320v-68h-320zM310 -17q-128 0 -193.5 89.5t-65.5 250.5v64q0 161 65.5 250.5t193.5 89.5t193.5 -89.5t65.5 -250.5v-64q0 -161 -65.5 -250.5t-193.5 -89.5zM310 63q83 0 122.5 63t39.5 197v64q0 134 -39.5 197t-122.5 63t-122.5 -63t-39.5 -197v-64
q0 -134 39.5 -197t122.5 -63z" />
    <glyph glyph-name="omacron" unicode="&#x14d;" 
d="M166 600v68h288v-68h-288zM310 -12q-105 0 -169 72t-64 190q0 119 64 190.5t169 71.5t169 -71.5t64 -190.5t-64 -190.5t-169 -71.5zM310 62q67 0 105 49.5t38 138.5q0 88 -38 138t-105 50t-105 -49.5t-38 -138.5t38 -138.5t105 -49.5z" />
    <glyph glyph-name="Obreve" unicode="&#x14e;" 
d="M226 884q4 -23 26.5 -38.5t57.5 -15.5t57.5 15.5t27.5 38.5h77q-9 -56 -53.5 -85.5t-108.5 -29.5t-109 29.5t-53 85.5h78zM310 -17q-128 0 -193.5 89.5t-65.5 250.5v64q0 161 65.5 250.5t193.5 89.5t193.5 -89.5t65.5 -250.5v-64q0 -161 -65.5 -250.5t-193.5 -89.5z
M310 63q83 0 122.5 63t39.5 197v64q0 134 -39.5 197t-122.5 63t-122.5 -63t-39.5 -197v-64q0 -134 39.5 -197t122.5 -63z" />
    <glyph glyph-name="obreve" unicode="&#x14f;" 
d="M230 720q2 -38 24.5 -62.5t55.5 -24.5t55.5 24.5t24.5 62.5h72q-4 -74 -47 -111t-105 -37t-105 37t-47 111h72zM310 -12q-105 0 -169 72t-64 190q0 119 64 190.5t169 71.5t169 -71.5t64 -190.5t-64 -190.5t-169 -71.5zM310 62q67 0 105 49.5t38 138.5q0 88 -38 138
t-105 50t-105 -49.5t-38 -138.5t38 -138.5t105 -49.5z" />
    <glyph glyph-name="Ohungarumlaut" unicode="&#x150;" 
d="M187 777l65 107h91l-72 -107h-84zM349 777l65 107h91l-72 -107h-84zM310 -17q-128 0 -193.5 89.5t-65.5 250.5v64q0 161 65.5 250.5t193.5 89.5t193.5 -89.5t65.5 -250.5v-64q0 -161 -65.5 -250.5t-193.5 -89.5zM310 63q83 0 122.5 63t39.5 197v64q0 134 -39.5 197
t-122.5 63t-122.5 -63t-39.5 -197v-64q0 -134 39.5 -197t122.5 -63z" />
    <glyph glyph-name="ohungarumlaut" unicode="&#x151;" 
d="M187 577l86 143h91l-93 -143h-84zM349 577l86 143h91l-93 -143h-84zM310 -12q-105 0 -169 72t-64 190q0 119 64 190.5t169 71.5t169 -71.5t64 -190.5t-64 -190.5t-169 -71.5zM310 62q67 0 105 49.5t38 138.5q0 88 -38 138t-105 50t-105 -49.5t-38 -138.5t38 -138.5
t105 -49.5z" />
    <glyph glyph-name="OE" unicode="&#x152;" 
d="M361 80h209v-80h-308q-105 0 -165 69q-59 70 -59 187v200q0 125 59 190q57 64 163 64h303v-80h-202v-227h185v-78h-185v-245zM252 78h21v554h-23q-61 0 -91 -44t-30 -132v-200q0 -87 32 -133q31 -45 91 -45z" />
    <glyph glyph-name="oe" unicode="&#x153;" 
d="M508 179l82 -16v-13q0 -74 -46.5 -118t-118.5 -44q-74 0 -119 50q-42 -50 -116 -50q-73 0 -116.5 46.5t-43.5 133.5v150q0 194 160 194q78 0 117 -50q42 50 119 50q75 0 118.5 -49.5t43.5 -140.5v-83h-242v-73q0 -52 21.5 -79t58.5 -27t59.5 28t22.5 75v16zM425 442
q-79 0 -79 -112v-34h157v35q0 111 -78 111zM190 61q37 0 55.5 25t18.5 84v162q0 107 -74 107q-75 0 -75 -110v-158q0 -110 75 -110z" />
    <glyph glyph-name="Racute" unicode="&#x154;" 
d="M453 884l-104 -107h-80l70 107h114zM472 0l-164 297h-130v-297h-93v710h228q115 0 177.5 -54t62.5 -153q0 -72 -40 -122t-111 -69l173 -312h-103zM178 632v-261h131q71 0 108.5 33.5t37.5 96.5q0 64 -37.5 97.5t-108.5 33.5h-131z" />
    <glyph glyph-name="racute" unicode="&#x155;" 
d="M272 577l86 143h106l-117 -143h-75zM224 370q27 62 86 102t134 40q55 0 90 -10v-79q-40 10 -93 10q-94 0 -155 -64.5t-61 -182.5v-186h-85v500h84v-130z" />
    <glyph glyph-name="uni0156" unicode="&#x156;" 
d="M402 312l173 -312h-103l-164 297h-130v-297h-93v710h228q115 0 177.5 -54t62.5 -153q0 -72 -40 -122t-111 -69zM178 632v-261h131q71 0 108.5 33.5t37.5 96.5q0 64 -37.5 97.5t-108.5 33.5h-131zM261 -136v90h96v-80q0 -43 -15.5 -69.5t-56.5 -41.5l-20 38q30 10 38.5 23
t8.5 40h-51z" />
    <glyph glyph-name="uni0157" unicode="&#x157;" 
d="M224 370q27 62 86 102t134 40q55 0 90 -10v-79q-40 10 -93 10q-94 0 -155 -64.5t-61 -182.5v-186h-85v500h84v-130zM159 -237l-20 38q30 10 38.5 23t8.5 40h-51v90h96v-80q0 -43 -15.5 -69.5t-56.5 -41.5z" />
    <glyph glyph-name="Rcaron" unicode="&#x158;" 
d="M362 776h-105l-98 108h87l65 -69l63 69h85zM472 0l-164 297h-130v-297h-93v710h228q115 0 177.5 -54t62.5 -153q0 -72 -40 -122t-111 -69l173 -312h-103zM178 632v-261h131q71 0 108.5 33.5t37.5 96.5q0 64 -37.5 97.5t-108.5 33.5h-131z" />
    <glyph glyph-name="rcaron" unicode="&#x159;" 
d="M160 720h84l66 -93l66 93h84l-103 -143h-94zM224 370q27 62 86 102t134 40q55 0 90 -10v-79q-40 10 -93 10q-94 0 -155 -64.5t-61 -182.5v-186h-85v500h84v-130z" />
    <glyph glyph-name="Sacute" unicode="&#x15a;" 
d="M270 777l70 107h114l-104 -107h-80zM318 -17q-120 0 -184.5 62t-78.5 159l90 18q13 -71 55 -116t117 -45q60 0 102.5 26t42.5 87q0 34 -9.5 57.5t-28 38t-35 21.5t-42.5 14l-95 25q-175 47 -175 197q0 82 63 141t163 59q105 0 172 -48t77 -151l-89 -26q-6 78 -49.5 112.5
t-107.5 34.5q-71 0 -102.5 -33.5t-31.5 -80.5q0 -45 30.5 -75.5t78.5 -44.5l91 -24q41 -11 70 -24t57.5 -35.5t43 -59t14.5 -85.5q0 -84 -60.5 -144t-178.5 -60z" />
    <glyph glyph-name="sacute" unicode="&#x15b;" 
d="M274 577l86 143h106l-117 -143h-75zM321 -12q-89 0 -145.5 40t-69.5 114l86 15q9 -47 43 -73t89 -26q49 0 76.5 21.5t27.5 54.5q0 32 -18 48t-54 22l-98 18q-133 25 -133 140q0 66 51.5 108t138.5 42q84 0 137.5 -36t60.5 -99l-84 -19q-9 39 -39 62t-79 23
q-48 0 -75.5 -20t-27.5 -57q0 -57 77 -71l97 -18q130 -25 130 -136q0 -69 -50.5 -111t-140.5 -42z" />
    <glyph glyph-name="Scircumflex" unicode="&#x15c;" 
d="M460 776h-87l-65 69l-63 -69h-85l97 108h105zM318 -17q-120 0 -184.5 62t-78.5 159l90 18q13 -71 55 -116t117 -45q60 0 102.5 26t42.5 87q0 34 -9.5 57.5t-28 38t-35 21.5t-42.5 14l-95 25q-175 47 -175 197q0 82 63 141t163 59q105 0 172 -48t77 -151l-89 -26
q-6 78 -49.5 112.5t-107.5 34.5q-71 0 -102.5 -33.5t-31.5 -80.5q0 -45 30.5 -75.5t78.5 -44.5l91 -24q41 -11 70 -24t57.5 -35.5t43 -59t14.5 -85.5q0 -84 -60.5 -144t-178.5 -60z" />
    <glyph glyph-name="scircumflex" unicode="&#x15d;" 
d="M462 577h-84l-66 93l-66 -93h-84l103 143h94zM321 -12q-89 0 -145.5 40t-69.5 114l86 15q9 -47 43 -73t89 -26q49 0 76.5 21.5t27.5 54.5q0 32 -18 48t-54 22l-98 18q-133 25 -133 140q0 66 51.5 108t138.5 42q84 0 137.5 -36t60.5 -99l-84 -19q-9 39 -39 62t-79 23
q-48 0 -75.5 -20t-27.5 -57q0 -57 77 -71l97 -18q130 -25 130 -136q0 -69 -50.5 -111t-140.5 -42z" />
    <glyph glyph-name="Scedilla" unicode="&#x15e;" 
d="M557 187q0 -76 -50.5 -134t-150.5 -68l-21 -34q13 12 43 12q33 0 53.5 -19.5t20.5 -51.5q0 -40 -32 -65.5t-76 -25.5q-70 0 -98 54l57 19q13 -28 42 -28q18 0 30.5 11t12.5 30q0 20 -12 30.5t-28 10.5q-23 0 -35 -15l-39 12l31 58q-114 4 -175 65.5t-75 155.5l90 18
q13 -71 55 -116t117 -45q60 0 102.5 26t42.5 87q0 34 -9.5 57.5t-28 38t-35 21.5t-42.5 14l-95 25q-175 47 -175 197q0 82 63 141t163 59q105 0 172 -48t77 -151l-89 -26q-6 78 -49.5 112.5t-107.5 34.5q-71 0 -102.5 -33.5t-31.5 -80.5q0 -45 30.5 -75.5t78.5 -44.5l91 -24
q41 -11 70 -24t57.5 -35.5t43 -59t14.5 -85.5z" />
    <glyph glyph-name="scedilla" unicode="&#x15f;" 
d="M382 277q130 -25 130 -136q0 -62 -42 -103t-117 -48l-24 -39q13 12 43 12q33 0 53.5 -19.5t20.5 -51.5q0 -40 -32 -65.5t-76 -25.5q-70 0 -98 54l57 19q13 -28 42 -28q18 0 30.5 11t12.5 30q0 20 -12 30.5t-28 10.5q-23 0 -35 -15l-39 12l33 64q-81 4 -132 44t-63 109
l86 15q9 -47 43 -73t89 -26q49 0 76.5 21.5t27.5 54.5q0 32 -18 48t-54 22l-98 18q-133 25 -133 140q0 66 51.5 108t138.5 42q84 0 137.5 -36t60.5 -99l-84 -19q-9 39 -39 62t-79 23q-48 0 -75.5 -20t-27.5 -57q0 -57 77 -71z" />
    <glyph glyph-name="Scaron" unicode="&#x160;" 
d="M160 884h87l65 -69l63 69h85l-97 -108h-105zM318 -17q-120 0 -184.5 62t-78.5 159l90 18q13 -71 55 -116t117 -45q60 0 102.5 26t42.5 87q0 34 -9.5 57.5t-28 38t-35 21.5t-42.5 14l-95 25q-175 47 -175 197q0 82 63 141t163 59q105 0 172 -48t77 -151l-89 -26
q-6 78 -49.5 112.5t-107.5 34.5q-71 0 -102.5 -33.5t-31.5 -80.5q0 -45 30.5 -75.5t78.5 -44.5l91 -24q41 -11 70 -24t57.5 -35.5t43 -59t14.5 -85.5q0 -84 -60.5 -144t-178.5 -60z" />
    <glyph glyph-name="scaron" unicode="&#x161;" 
d="M162 720h84l66 -93l66 93h84l-103 -143h-94zM321 -12q-89 0 -145.5 40t-69.5 114l86 15q9 -47 43 -73t89 -26q49 0 76.5 21.5t27.5 54.5q0 32 -18 48t-54 22l-98 18q-133 25 -133 140q0 66 51.5 108t138.5 42q84 0 137.5 -36t60.5 -99l-84 -19q-9 39 -39 62t-79 23
q-48 0 -75.5 -20t-27.5 -57q0 -57 77 -71l97 -18q130 -25 130 -136q0 -69 -50.5 -111t-140.5 -42z" />
    <glyph glyph-name="uni0162" unicode="&#x162;" 
d="M356 0h-21l-31 -49q14 12 43 12q33 0 53.5 -19.5t20.5 -51.5q0 -40 -32 -65.5t-76 -25.5q-70 0 -98 54l57 19q13 -28 42 -28q18 0 30.5 11t12.5 30q0 20 -12 30.5t-28 10.5q-23 0 -35 -15l-39 12l39 75h-20v630h-223v80h540v-80h-223v-630z" />
    <glyph glyph-name="uni0163" unicode="&#x163;" 
d="M438 -37q33 0 53.5 -19.5t20.5 -51.5q0 -40 -32 -65.5t-76 -25.5q-70 0 -98 54l57 19q13 -28 42 -28q18 0 30.5 11t12.5 30q0 20 -12 30.5t-28 10.5q-23 0 -35 -15l-39 12l36 69q-69 11 -104 55t-35 111v271h-143v69h143v131l85 36v-167h195v-69h-195v-259q0 -99 96 -99
q52 0 99 9v-78q-50 -12 -91 -13l-25 -40q13 12 43 12z" />
    <glyph glyph-name="Tcaron" unicode="&#x164;" 
d="M159 884h87l65 -69l63 69h85l-97 -108h-105zM39 710h540v-80h-223v-630h-94v630h-223v80z" />
    <glyph glyph-name="tcaron" unicode="&#x165;" 
d="M443 531l-18 35q27 7 36.5 18.5t9.5 35.5h-51v90h96v-80q0 -42 -17 -65t-56 -34zM88 431v69h143v131l85 36v-167h195v-69h-195v-259q0 -99 96 -99q52 0 99 9v-78q-56 -13 -98 -13q-91 0 -136.5 45.5t-45.5 123.5v271h-143z" />
    <glyph glyph-name="Tbar" unicode="&#x166;" 
d="M579 630h-223v-173h194v-59h-194v-398h-94v398h-193v59h193v173h-223v80h540v-80z" />
    <glyph glyph-name="tbar" unicode="&#x167;" 
d="M511 431h-195v-120h195v-71h-195v-68q0 -99 96 -99q52 0 99 9v-78q-56 -13 -98 -13q-91 0 -136.5 45.5t-45.5 123.5v80h-142v71h142v120h-143v69h143v131l85 36v-167h195v-69z" />
    <glyph glyph-name="Utilde" unicode="&#x168;" 
d="M238 889q38 0 81.5 -26.5t68.5 -26.5q43 0 52 45l59 -10q-8 -49 -39 -75t-80 -26q-41 0 -81.5 26.5t-67.5 26.5q-40 0 -51 -48l-60 11q10 52 43 77.5t75 25.5zM68 710h93v-473q0 -81 39 -127.5t113 -46.5q146 0 146 174v473h93v-473q0 -116 -59.5 -185t-179.5 -69
t-182.5 69.5t-62.5 184.5v473z" />
    <glyph glyph-name="utilde" unicode="&#x169;" 
d="M234 725q41 0 83 -32t63 -32q36 0 49 56l59 -10q-28 -116 -115 -116q-36 0 -76 32t-65 32q-20 0 -33.5 -15t-18.5 -39l-60 11q11 58 43.5 85.5t70.5 27.5zM427 95q-16 -41 -58 -74t-94 -33q-81 0 -128 44q-46 45 -46 159v309h87v-306q0 -133 104 -133q37 0 64 17t40.5 45
t19.5 56.5t6 59.5v261h85v-500h-80v95z" />
    <glyph glyph-name="Umacron" unicode="&#x16a;" 
d="M150 773v68h320v-68h-320zM68 710h93v-473q0 -81 39 -127.5t113 -46.5q146 0 146 174v473h93v-473q0 -116 -59.5 -185t-179.5 -69t-182.5 69.5t-62.5 184.5v473z" />
    <glyph glyph-name="umacron" unicode="&#x16b;" 
d="M161 600v68h288v-68h-288zM427 95q-16 -41 -58 -74t-94 -33q-81 0 -128 44q-46 45 -46 159v309h87v-306q0 -133 104 -133q37 0 64 17t40.5 45t19.5 56.5t6 59.5v261h85v-500h-80v95z" />
    <glyph glyph-name="Ubreve" unicode="&#x16c;" 
d="M226 884q4 -23 26.5 -38.5t57.5 -15.5t57.5 15.5t27.5 38.5h77q-9 -56 -53.5 -85.5t-108.5 -29.5t-109 29.5t-53 85.5h78zM68 710h93v-473q0 -81 39 -127.5t113 -46.5q146 0 146 174v473h93v-473q0 -116 -59.5 -185t-179.5 -69t-182.5 69.5t-62.5 184.5v473z" />
    <glyph glyph-name="ubreve" unicode="&#x16d;" 
d="M225 720q2 -38 24.5 -62.5t55.5 -24.5t55.5 24.5t24.5 62.5h72q-4 -74 -47 -111t-105 -37t-105 37t-47 111h72zM427 95q-16 -41 -58 -74t-94 -33q-81 0 -128 44q-46 45 -46 159v309h87v-306q0 -133 104 -133q37 0 64 17t40.5 45t19.5 56.5t6 59.5v261h85v-500h-80v95z
" />
    <glyph glyph-name="Uring" unicode="&#x16e;" 
d="M310 734q-45 0 -72.5 25.5t-27.5 65.5t27.5 65.5t72.5 25.5t72.5 -25.5t27.5 -65.5t-27.5 -65.5t-72.5 -25.5zM310 779q19 0 31.5 13t12.5 33t-12.5 33t-31.5 13t-31.5 -13t-12.5 -33t12.5 -33t31.5 -13zM68 710h93v-473q0 -81 39 -127.5t113 -46.5q146 0 146 174v473h93
v-473q0 -116 -59.5 -185t-179.5 -69t-182.5 69.5t-62.5 184.5v473z" />
    <glyph glyph-name="uring" unicode="&#x16f;" 
d="M305 551q-48 0 -77.5 29t-29.5 73t29.5 73t77.5 29t77.5 -29t29.5 -73t-29.5 -73t-77.5 -29zM305 599q23 0 36.5 15.5t13.5 38.5t-13.5 38.5t-36.5 15.5t-36.5 -15.5t-13.5 -38.5t13.5 -38.5t36.5 -15.5zM427 95q-16 -41 -58 -74t-94 -33q-81 0 -128 44q-46 45 -46 159
v309h87v-306q0 -133 104 -133q37 0 64 17t40.5 45t19.5 56.5t6 59.5v261h85v-500h-80v95z" />
    <glyph glyph-name="Uhungarumlaut" unicode="&#x170;" 
d="M187 777l65 107h91l-72 -107h-84zM349 777l65 107h91l-72 -107h-84zM68 710h93v-473q0 -81 39 -127.5t113 -46.5q146 0 146 174v473h93v-473q0 -116 -59.5 -185t-179.5 -69t-182.5 69.5t-62.5 184.5v473z" />
    <glyph glyph-name="uhungarumlaut" unicode="&#x171;" 
d="M182 577l86 143h91l-93 -143h-84zM344 577l86 143h91l-93 -143h-84zM427 95q-16 -41 -58 -74t-94 -33q-81 0 -128 44q-46 45 -46 159v309h87v-306q0 -133 104 -133q37 0 64 17t40.5 45t19.5 56.5t6 59.5v261h85v-500h-80v95z" />
    <glyph glyph-name="Uogonek" unicode="&#x172;" 
d="M459 710h93v-473q0 -93 -38 -157t-116 -86q-49 -21 -70.5 -47.5t-21.5 -51.5q0 -21 11 -34.5t29 -13.5q33 0 49 46l54 -20q-10 -37 -39.5 -56.5t-72.5 -19.5q-38 0 -66.5 23.5t-28.5 64.5q0 58 59 98q-114 4 -173.5 73t-59.5 181v473h93v-473q0 -81 39 -127.5t113 -46.5
q146 0 146 174v473z" />
    <glyph glyph-name="uogonek" unicode="&#x173;" 
d="M489 -107l54 -20q-10 -37 -39.5 -56.5t-72.5 -19.5q-38 0 -66.5 23.5t-28.5 64.5q0 72 89 115h2v95q-16 -41 -58 -74t-94 -33q-81 0 -128 44q-46 45 -46 159v309h87v-306q0 -133 104 -133q37 0 64 17t40.5 45t19.5 56.5t6 59.5v261h85v-500q-57 -20 -82 -49t-25 -56
q0 -21 11 -34.5t29 -13.5q33 0 49 46z" />
    <glyph glyph-name="Wcircumflex" unicode="&#x174;" 
d="M460 776h-87l-65 69l-63 -69h-85l97 108h105zM100 0l-54 710h93l24 -504q4 -75 4 -127h10q2 50 20 134l69 322h88l69 -322q18 -84 20 -134h10q0 52 4 127l24 504h93l-54 -710h-122l-64 305q-16 77 -19 142h-10q-3 -65 -19 -142l-64 -305h-122z" />
    <glyph glyph-name="wcircumflex" unicode="&#x175;" 
d="M460 577h-84l-66 93l-66 -93h-84l103 143h94zM28 500h89l51 -343l10 -71h7q5 31 16 84l65 330h87l65 -330q11 -53 16 -84h7l10 71l51 343h89l-97 -500h-107l-65 323q-7 33 -9 82h-7q-2 -49 -9 -82l-65 -323h-107z" />
    <glyph glyph-name="Ycircumflex" unicode="&#x176;" 
d="M460 776h-87l-65 69l-63 -69h-85l97 108h105zM357 283v-283h-93v283l-231 427h103l174 -350l174 350h103z" />
    <glyph glyph-name="ycircumflex" unicode="&#x177;" 
d="M460 577h-84l-66 93l-66 -93h-84l103 143h94zM177 500l141 -401l139 401h91l-200 -532q-33 -92 -79 -131t-111 -39q-25 0 -46 4v75q26 -2 36 -2q45 0 71 22t44 72l13 37l-195 494h96z" />
    <glyph glyph-name="Ydieresis" unicode="&#x178;" 
d="M251 884v-111h-109v111h109zM478 884v-111h-109v111h109zM357 283v-283h-93v283l-231 427h103l174 -350l174 350h103z" />
    <glyph glyph-name="Zacute" unicode="&#x179;" 
d="M270 777l70 107h114l-104 -107h-80zM68 86l372 544h-359v80h457v-86l-373 -544h387v-80h-484v86z" />
    <glyph glyph-name="zacute" unicode="&#x17a;" 
d="M272 577l86 143h106l-117 -143h-75zM102 65l293 363h-283v72h385v-63l-290 -364h305v-73h-410v65z" />
    <glyph glyph-name="Zdotaccent" unicode="&#x17b;" 
d="M370 884v-111h-120v111h120zM68 86l372 544h-359v80h457v-86l-373 -544h387v-80h-484v86z" />
    <glyph glyph-name="zdotaccent" unicode="&#x17c;" 
d="M370 720v-120h-120v120h120zM102 65l293 363h-283v72h385v-63l-290 -364h305v-73h-410v65z" />
    <glyph glyph-name="Zcaron" unicode="&#x17d;" 
d="M160 884h87l65 -69l63 69h85l-97 -108h-105zM68 86l372 544h-359v80h457v-86l-373 -544h387v-80h-484v86z" />
    <glyph glyph-name="zcaron" unicode="&#x17e;" 
d="M160 720h84l66 -93l66 93h84l-103 -143h-94zM102 65l293 363h-283v72h385v-63l-290 -364h305v-73h-410v65z" />
    <glyph glyph-name="florin" unicode="&#x192;" 
d="M430 635q-46 0 -63 -26.5t-24 -82.5l-12 -90h106v-66h-114l-67 -520h-86l66 520h-94v66h102l10 76q6 51 14.5 82t27 60.5t51 42.5t82.5 13q31 0 49 -6v-74q-22 5 -48 5z" />
    <glyph glyph-name="AEacute" unicode="&#x1fc;" 
d="M552 884l-104 -107h-80l70 107h114zM361 80h209v-80h-297v167h-120l-42 -167h-91l196 710h347v-80h-202v-227h185v-78h-185v-245zM171 241h102v405z" />
    <glyph glyph-name="aeacute" unicode="&#x1fd;" 
d="M464 720l-117 -143h-75l86 143h106zM513 179l82 -16v-3q0 -77 -44.5 -124.5t-120.5 -47.5q-89 0 -134 70q-19 -31 -53.5 -50t-76.5 -19q-62 0 -101.5 37t-39.5 102q0 67 34.5 102.5t113.5 49.5l95 17v57q0 93 -75 93q-35 0 -55.5 -23.5t-20.5 -68.5v-21h-84v3
q0 88 45 131.5t115 43.5q83 0 121 -47q42 47 117 47t118.5 -49.5t43.5 -140.5v-83h-242v-73q0 -52 21.5 -79t58.5 -27t59.5 28t22.5 75v16zM430 442q-79 0 -79 -112v-34h157v35q0 111 -78 111zM269 150v92l-66 -13q-47 -9 -70 -28.5t-23 -62.5q0 -42 20 -63.5t53 -21.5
q34 0 60 27t26 70z" />
    <glyph glyph-name="Oslashacute" unicode="&#x1fe;" 
d="M454 884l-104 -107h-80l70 107h114zM508 632q61 -88 61 -245v-64q0 -161 -65.5 -250.5t-193.5 -89.5q-104 0 -167 60l-48 -77l-52 26l61 99q-53 86 -53 232v64q0 161 65.5 250.5t193.5 89.5q95 0 157 -51l42 68l51 -28zM148 323q0 -83 15 -138l257 416q-39 46 -110 46
q-83 0 -122.5 -63t-39.5 -197v-64zM472 323v64q0 93 -20 155l-261 -421q40 -58 119 -58q83 0 122.5 63t39.5 197z" />
    <glyph glyph-name="oslashacute" unicode="&#x1ff;" 
d="M464 720l-117 -143h-75l86 143h106zM488 430q55 -71 55 -180q0 -119 -64 -190.5t-169 -71.5q-81 0 -139 44l-37 -46l-43 31l42 53q-56 70 -56 180q0 119 64 190.5t169 71.5q81 0 139 -44l37 46l44 -31zM167 250q0 -66 21 -111l212 266q-36 33 -90 33q-67 0 -105 -49.5
t-38 -138.5zM310 62q67 0 105 49.5t38 138.5q0 65 -21 110l-212 -266q37 -32 90 -32z" />
    <glyph glyph-name="uni0218" unicode="&#x218;" 
d="M318 -17q-120 0 -184.5 62t-78.5 159l90 18q13 -71 55 -116t117 -45q60 0 102.5 26t42.5 87q0 34 -9.5 57.5t-28 38t-35 21.5t-42.5 14l-95 25q-175 47 -175 197q0 82 63 141t163 59q105 0 172 -48t77 -151l-89 -26q-6 78 -49.5 112.5t-107.5 34.5q-71 0 -102.5 -33.5
t-31.5 -80.5q0 -45 30.5 -75.5t78.5 -44.5l91 -24q41 -11 70 -24t57.5 -35.5t43 -59t14.5 -85.5q0 -84 -60.5 -144t-178.5 -60zM316 -237l-20 38q30 10 38.5 23t8.5 40h-51v90h96v-80q0 -43 -15.5 -69.5t-56.5 -41.5z" />
    <glyph glyph-name="uni0219" unicode="&#x219;" 
d="M321 -12q-89 0 -145.5 40t-69.5 114l86 15q9 -47 43 -73t89 -26q49 0 76.5 21.5t27.5 54.5q0 32 -18 48t-54 22l-98 18q-133 25 -133 140q0 66 51.5 108t138.5 42q84 0 137.5 -36t60.5 -99l-84 -19q-9 39 -39 62t-79 23q-48 0 -75.5 -20t-27.5 -57q0 -57 77 -71l97 -18
q130 -25 130 -136q0 -69 -50.5 -111t-140.5 -42zM310 -237l-20 38q30 10 38.5 23t8.5 40h-51v90h96v-80q0 -43 -15.5 -69.5t-56.5 -41.5z" />
    <glyph glyph-name="uni021A" unicode="&#x21a;" 
d="M39 710h540v-80h-223v-630h-94v630h-223v80zM285 -237l-20 38q30 10 38.5 23t8.5 40h-51v90h96v-80q0 -43 -15.5 -69.5t-56.5 -41.5z" />
    <glyph glyph-name="uni021B" unicode="&#x21b;" 
d="M88 431v69h143v131l85 36v-167h195v-69h-195v-259q0 -99 96 -99q52 0 99 9v-78q-56 -13 -98 -13q-91 0 -136.5 45.5t-45.5 123.5v271h-143zM376 -237l-20 38q30 10 38.5 23t8.5 40h-51v90h96v-80q0 -43 -15.5 -69.5t-56.5 -41.5z" />
    <glyph glyph-name="uni0237" unicode="&#x237;" 
d="M236 -202q-69 0 -126 18v74q63 -14 115 -14q61 0 87 27.5t26 99.5v427h-190v70h275v-502q0 -200 -187 -200z" />
    <glyph glyph-name="uni0243" unicode="&#x243;" 
d="M544 195q0 -32 -9 -61.5t-28.5 -57t-55.5 -47t-84 -25.5v-111h-53v107h-71v-107h-53v107h-114v695h114v90h53v-90h50h21v90h53v-96q57 -11 94 -41t50 -62.5t13 -69.5q0 -54 -30.5 -97t-88.5 -60q65 -11 102 -54t37 -110zM163 618v-228h129q137 0 137 119q0 109 -137 109
h-129zM308 77q75 0 108 35.5t33 91.5q0 50 -32.5 80t-98.5 30h-155v-237h145z" />
    <glyph glyph-name="circumflex" unicode="&#x2c6;" 
d="M460 577h-84l-66 93l-66 -93h-84l103 143h94z" />
    <glyph glyph-name="caron" unicode="&#x2c7;" 
d="M160 720h84l66 -93l66 93h84l-103 -143h-94z" />
    <glyph glyph-name="breve" unicode="&#x2d8;" 
d="M230 720q2 -38 24.5 -62.5t55.5 -24.5t55.5 24.5t24.5 62.5h72q-4 -74 -47 -111t-105 -37t-105 37t-47 111h72z" />
    <glyph glyph-name="dotaccent" unicode="&#x2d9;" 
d="M370 720v-120h-120v120h120z" />
    <glyph glyph-name="ring" unicode="&#x2da;" 
d="M310 551q-48 0 -77.5 29t-29.5 73t29.5 73t77.5 29t77.5 -29t29.5 -73t-29.5 -73t-77.5 -29zM310 599q23 0 36.5 15.5t13.5 38.5t-13.5 38.5t-36.5 15.5t-36.5 -15.5t-13.5 -38.5t13.5 -38.5t36.5 -15.5z" />
    <glyph glyph-name="ogonek" unicode="&#x2db;" 
d="M413 -127q-10 -37 -39.5 -56.5t-72.5 -19.5q-38 0 -66.5 23.5t-28.5 64.5q0 72 89 115h82q-57 -20 -82 -49t-25 -56q0 -21 11 -34.5t29 -13.5q33 0 49 46z" />
    <glyph glyph-name="tilde" unicode="&#x2dc;" 
d="M240 725q41 0 83 -32t63 -32q36 0 49 56l59 -10q-28 -116 -115 -116q-36 0 -76 32t-65 32q-20 0 -33.5 -15t-18.5 -39l-60 11q11 58 43.5 85.5t70.5 27.5z" />
    <glyph glyph-name="hungarumlaut" unicode="&#x2dd;" 
d="M140 577l86 143h91l-93 -143h-84zM302 577l86 143h91l-93 -143h-84z" />
    <glyph glyph-name="gravecomb" unicode="&#x300;" horiz-adv-x="0" 
d="M-214 577h-75l-117 143h106z" />
    <glyph glyph-name="acutecomb" unicode="&#x301;" horiz-adv-x="0" 
d="M-406 577l86 143h106l-117 -143h-75z" />
    <glyph glyph-name="uni0302" unicode="&#x302;" horiz-adv-x="0" 
d="M-160 577h-84l-66 93l-66 -93h-84l103 143h94z" />
    <glyph glyph-name="tildecomb" unicode="&#x303;" horiz-adv-x="0" 
d="M-380 725q41 0 83 -32t63 -32q36 0 49 56l59 -10q-28 -116 -115 -116q-36 0 -76 32t-65 32q-20 0 -33.5 -15t-18.5 -39l-60 11q11 58 43.5 85.5t70.5 27.5z" />
    <glyph glyph-name="uni0304" unicode="&#x304;" horiz-adv-x="0" 
d="M-454 600v68h288v-68h-288z" />
    <glyph glyph-name="uni0306" unicode="&#x306;" horiz-adv-x="0" 
d="M-390 720q2 -38 24.5 -62.5t55.5 -24.5t55.5 24.5t24.5 62.5h72q-4 -74 -47 -111t-105 -37t-105 37t-47 111h72z" />
    <glyph glyph-name="uni0307" unicode="&#x307;" horiz-adv-x="0" 
d="M-250 720v-120h-120v120h120z" />
    <glyph glyph-name="uni0308" unicode="&#x308;" horiz-adv-x="0" 
d="M-351 720v-120h-119v120h119zM-150 720v-120h-119v120h119z" />
    <glyph glyph-name="uni030A" unicode="&#x30a;" horiz-adv-x="0" 
d="M-310 551q-48 0 -77.5 29t-29.5 73t29.5 73t77.5 29t77.5 -29t29.5 -73t-29.5 -73t-77.5 -29zM-310 599q23 0 36.5 15.5t13.5 38.5t-13.5 38.5t-36.5 15.5t-36.5 -15.5t-13.5 -38.5t13.5 -38.5t36.5 -15.5z" />
    <glyph glyph-name="uni030B" unicode="&#x30b;" horiz-adv-x="0" 
d="M-480 577l86 143h91l-93 -143h-84zM-318 577l86 143h91l-93 -143h-84z" />
    <glyph glyph-name="uni030C" unicode="&#x30c;" horiz-adv-x="0" 
d="M-460 720h84l66 -93l66 93h84l-103 -143h-94z" />
    <glyph glyph-name="uni0312" unicode="&#x312;" horiz-adv-x="0" 
d="M-286 771l20 -38q-30 -10 -38.5 -23t-8.5 -40h51v-90h-96v80q0 43 15.5 69.5t56.5 41.5z" />
    <glyph glyph-name="uni0326" unicode="&#x326;" horiz-adv-x="0" 
d="M-334 -237l-20 38q30 10 38.5 23t8.5 40h-51v90h96v-80q0 -43 -15.5 -69.5t-56.5 -41.5z" />
    <glyph glyph-name="uni0327" unicode="&#x327;" horiz-adv-x="0" 
d="M-342 7h53l-35 -56q14 12 43 12q33 0 53.5 -19.5t20.5 -51.5q0 -40 -32 -65.5t-76 -25.5q-70 0 -98 54l57 19q13 -28 42 -28q18 0 30.5 11t12.5 30q0 20 -12 30.5t-28 10.5q-23 0 -35 -15l-39 12z" />
    <glyph glyph-name="uni0328" unicode="&#x328;" horiz-adv-x="0" 
d="M-207 -127q-10 -37 -39.5 -56.5t-72.5 -19.5q-38 0 -66.5 23.5t-28.5 64.5q0 72 89 115h82q-57 -20 -82 -49t-25 -56q0 -21 11 -34.5t29 -13.5q33 0 49 46z" />
    <glyph glyph-name="uni0394" unicode="&#x394;" 
d="M63 0l199 710h99l196 -710h-494zM310 610l-137 -535h269z" />
    <glyph glyph-name="uni03A9" unicode="&#x3a9;" 
d="M553 0h-196l-15 212q64 16 94 76t30 147q0 95 -38.5 155.5t-116.5 60.5q-74 0 -114.5 -62t-40.5 -155q0 -83 33 -144.5t90 -77.5l-15 -212h-196v79h122l8 82q-58 29 -95.5 104t-37.5 170q0 129 69 210.5t178 81.5q112 0 177.5 -79.5t65.5 -210.5q0 -223 -132 -276l9 -82
h121v-79z" />
    <glyph glyph-name="uni03BC" unicode="&#x3bc;" 
d="M422 500h85v-500h-80v95q-16 -41 -58 -74t-94 -33q-50 0 -89 18v-201h-85v695h87v-306q0 -133 104 -133q37 0 64 17t40.5 45t19.5 56.5t6 59.5v261z" />
    <glyph glyph-name="pi" unicode="&#x3c0;" 
d="M554 -1q-18 -6 -40 -6q-66 0 -91 35.5t-25 94.5v309h-175v-432h-85v432h-73v68h490v-68h-72v-307q0 -55 43 -55q10 0 28 3v-74z" />
    <glyph glyph-name="uni0E3F" unicode="&#xe3f;" 
d="M403 356q64 -11 101 -54t37 -111q0 -78 -53.5 -134.5t-170.5 -56.5h-9v-107h-53v107h-177v695h177v91h53v-91q60 -2 103.5 -19t66.5 -44.5t33 -56t10 -60.5q0 -55 -30 -98t-88 -61zM162 620v-233h93v233h-93zM431 508q0 107 -123 112v-233q123 6 123 121zM162 75h93v237
h-93v-237zM311 75q75 0 107.5 35t32.5 90q0 51 -32 81.5t-98 30.5h-13v-237h3z" />
    <glyph glyph-name="Wgrave" unicode="&#x1e80;" 
d="M350 777h-80l-104 107h114zM100 0l-54 710h93l24 -504q4 -75 4 -127h10q2 50 20 134l69 322h88l69 -322q18 -84 20 -134h10q0 52 4 127l24 504h93l-54 -710h-122l-64 305q-16 77 -19 142h-10q-3 -65 -19 -142l-64 -305h-122z" />
    <glyph glyph-name="wgrave" unicode="&#x1e81;" 
d="M347 577h-75l-117 143h106zM28 500h89l51 -343l10 -71h7q5 31 16 84l65 330h87l65 -330q11 -53 16 -84h7l10 71l51 343h89l-97 -500h-107l-65 323q-7 33 -9 82h-7q-2 -49 -9 -82l-65 -323h-107z" />
    <glyph glyph-name="Wacute" unicode="&#x1e82;" 
d="M270 777l70 107h114l-104 -107h-80zM100 0l-54 710h93l24 -504q4 -75 4 -127h10q2 50 20 134l69 322h88l69 -322q18 -84 20 -134h10q0 52 4 127l24 504h93l-54 -710h-122l-64 305q-16 77 -19 142h-10q-3 -65 -19 -142l-64 -305h-122z" />
    <glyph glyph-name="wacute" unicode="&#x1e83;" 
d="M272 577l86 143h106l-117 -143h-75zM28 500h89l51 -343l10 -71h7q5 31 16 84l65 330h87l65 -330q11 -53 16 -84h7l10 71l51 343h89l-97 -500h-107l-65 323q-7 33 -9 82h-7q-2 -49 -9 -82l-65 -323h-107z" />
    <glyph glyph-name="Wdieresis" unicode="&#x1e84;" 
d="M251 884v-111h-109v111h109zM478 884v-111h-109v111h109zM100 0l-54 710h93l24 -504q4 -75 4 -127h10q2 50 20 134l69 322h88l69 -322q18 -84 20 -134h10q0 52 4 127l24 504h93l-54 -710h-122l-64 305q-16 77 -19 142h-10q-3 -65 -19 -142l-64 -305h-122z" />
    <glyph glyph-name="wdieresis" unicode="&#x1e85;" 
d="M269 720v-120h-119v120h119zM470 720v-120h-119v120h119zM28 500h89l51 -343l10 -71h7q5 31 16 84l65 330h87l65 -330q11 -53 16 -84h7l10 71l51 343h89l-97 -500h-107l-65 323q-7 33 -9 82h-7q-2 -49 -9 -82l-65 -323h-107z" />
    <glyph glyph-name="Ygrave" unicode="&#x1ef2;" 
d="M350 777h-80l-104 107h114zM357 283v-283h-93v283l-231 427h103l174 -350l174 350h103z" />
    <glyph glyph-name="ygrave" unicode="&#x1ef3;" 
d="M347 577h-75l-117 143h106zM177 500l141 -401l139 401h91l-200 -532q-33 -92 -79 -131t-111 -39q-25 0 -46 4v75q26 -2 36 -2q45 0 71 22t44 72l13 37l-195 494h96z" />
    <glyph glyph-name="endash" unicode="&#x2013;" 
d="M104 310h412v-64h-412v64z" />
    <glyph glyph-name="emdash" unicode="&#x2014;" 
d="M42 310h535v-64h-535v64z" />
    <glyph glyph-name="quoteleft" unicode="&#x2018;" 
d="M344 740l26 -46q-41 -18 -54 -38.5t-13 -63.5h73v-128h-133v128q0 59 22 92t79 56z" />
    <glyph glyph-name="quoteright" unicode="&#x2019;" 
d="M275 434l-26 46q41 18 54 38.5t13 63.5h-73v128h133v-128q0 -59 -22 -92t-79 -56z" />
    <glyph glyph-name="quotesinglbase" unicode="&#x201a;" 
d="M275 -148l-26 46q41 18 54 38.5t13 63.5h-73v128h133v-128q0 -59 -22 -92t-79 -56z" />
    <glyph glyph-name="quotedblleft" unicode="&#x201c;" 
d="M227 740l26 -46q-41 -18 -54 -38.5t-13 -63.5h73v-128h-133v128q0 59 22 92t79 56zM461 740l26 -46q-41 -18 -54 -38.5t-13 -63.5h73v-128h-133v128q0 59 22 92t79 56z" />
    <glyph glyph-name="quotedblright" unicode="&#x201d;" 
d="M159 434l-26 46q41 18 54 38.5t13 63.5h-73v128h133v-128q0 -59 -22 -92t-79 -56zM393 434l-26 46q41 18 54 38.5t13 63.5h-73v128h133v-128q0 -59 -22 -92t-79 -56z" />
    <glyph glyph-name="quotedblbase" unicode="&#x201e;" 
d="M158 -149l-26 46q41 18 54 38.5t13 63.5h-73v128h133v-128q0 -59 -22 -92t-79 -56zM392 -149l-26 46q41 18 54 38.5t13 63.5h-73v128h133v-128q0 -59 -22 -92t-79 -56z" />
    <glyph glyph-name="dagger" unicode="&#x2020;" 
d="M352 430v-530h-85v530h-131v70h131v220h85v-220h132v-70h-132z" />
    <glyph glyph-name="daggerdbl" unicode="&#x2021;" 
d="M484 430h-132v-246h130v-70h-130v-214h-85v214h-131v70h131v246h-131v70h131v220h85v-220h132v-70z" />
    <glyph glyph-name="bullet" unicode="&#x2022;" 
d="M309 440q42 0 68.5 -26t26.5 -69q0 -41 -26.5 -66.5t-68.5 -25.5q-41 0 -67.5 25.5t-26.5 66.5q0 42 26.5 68.5t67.5 26.5z" />
    <glyph glyph-name="ellipsis" unicode="&#x2026;" 
d="M169 125v-125h-133v125h133zM376 125v-125h-133v125h133zM583 125v-125h-133v125h133z" />
    <glyph glyph-name="perthousand" unicode="&#x2030;" 
d="M152 426q-55 0 -88 38.5t-33 103.5t33 103.5t88 38.5t88 -38.5t33 -103.5t-33 -103.5t-88 -38.5zM531 707v-79l-482 -468v77zM152 655q-57 0 -57 -87t57 -87t57 87t-57 87zM457 284q55 0 88 -38.5t33 -103.5t-33 -103.5t-88 -38.5q-57 0 -89 40q-32 -40 -89 -40
q-55 0 -88 38.5t-33 103.5t33 103.5t88 38.5q57 0 89 -40q32 40 89 40zM279 55q57 0 57 87t-57 87t-57 -87t57 -87zM457 55q57 0 57 87t-57 87t-57 -87t57 -87z" />
    <glyph glyph-name="guilsinglleft" unicode="&#x2039;" 
d="M336 67l-168 208l173 207h90l-167 -206l164 -209h-92z" />
    <glyph glyph-name="guilsinglright" unicode="&#x203a;" 
d="M284 67h-92l164 209l-167 206h90l173 -207z" />
    <glyph glyph-name="fraction" unicode="&#x2044;" horiz-adv-x="0" 
d="M220 727h76l-515 -744h-77z" />
    <glyph glyph-name="uni20A9" unicode="&#x20a9;" 
d="M579 406h-39l-7 -75h46v-55h-52l-28 -276h-114l-34 276h-83l-34 -276h-114l-28 276h-52v55h46l-7 75h-39v55h33l-24 234h74l21 -234h86l31 234h97l31 -234h86l21 234h74l-24 -234h33v-55zM301 549l-11 -88h39l-11 88q-5 44 -6 68h-5q-1 -24 -6 -68zM148 406l7 -75h58
l10 75h-75zM274 331h71l-10 75h-51zM464 331l7 75h-75l10 -75h58zM187 128l19 148h-46l13 -148q4 -31 4 -49h4q4 36 6 49zM446 128l13 148h-46l19 -148q2 -13 6 -49h4q0 18 4 49z" />
    <glyph glyph-name="Euro" unicode="&#x20ac;" 
d="M538 166l72 -31q-70 -150 -234 -150q-114 0 -185 72t-91 201h-90v60h84q-1 12 -1 37q0 26 1 38h-84v60h91q20 125 93 191t186 66q162 0 221 -150l-78 -30q-45 101 -149 101q-148 0 -180 -178h271v-60h-278q-1 -12 -1 -37q0 -26 1 -38h278v-60h-271q16 -97 65 -145.5
t120 -48.5q105 0 159 102z" />
    <glyph glyph-name="uni20B9" unicode="&#x20b9;" 
d="M550 695v-65h-213q58 -38 68 -111h145v-60h-144q-18 -175 -226 -175l239 -284h-107l-243 296v57h102q128 0 144 106h-246v60h246q-18 111 -144 111h-102v65h481z" />
    <glyph glyph-name="uni20BA" unicode="&#x20ba;" 
d="M471 242l81 -19q-46 -223 -253 -223h-161v272l-71 -22v67l71 22v78l-71 -22v67l71 22v211h90v-184l217 66v-67l-217 -66v-78l217 66v-67l-217 -66v-219h57q44 0 77.5 13.5t54.5 39t33 51t21 58.5z" />
    <glyph glyph-name="uni20BD" unicode="&#x20bd;" 
d="M323 285h-106v-84h157v-60h-157v-141h-90v141h-71v60h71v84h-70v65h70v345h196q67 0 116 -18.5t75 -50t38 -65.5t12 -71t-12 -71t-38 -65.5t-75 -50t-116 -18.5zM217 615v-265h101q80 0 116.5 40.5t36.5 94.5q0 52 -36.5 91t-116.5 39h-101z" />
    <glyph glyph-name="uni2105" unicode="&#x2105;" 
d="M223 602q-3 32 -19.5 49.5t-41.5 17.5q-71 0 -71 -103q0 -106 72 -106q25 0 41.5 16t20.5 44l67 -11q-12 -53 -46.5 -80.5t-82.5 -27.5q-64 0 -101.5 42.5t-37.5 122.5q0 77 37.5 119.5t100.5 42.5q52 0 88 -30t40 -87zM495 728h72l-454 -742h-71zM596 150
q0 -77 -37.5 -119.5t-99.5 -42.5q-64 0 -101.5 42.5t-37.5 122.5q0 77 37.5 119.5t100.5 42.5q62 0 100 -43.5t38 -121.5zM387 153q0 -106 72 -106q68 0 68 103q0 106 -69 106q-71 0 -71 -103z" />
    <glyph glyph-name="uni2113" unicode="&#x2113;" 
d="M326 153q0 -43 17.5 -62.5t55.5 -19.5q22 0 52 7v-78q-33 -9 -74 -9q-76 0 -106 41t-30 118v71q-35 -19 -88 -41l-29 64q89 40 117 56v279q0 77 37 113t90 36q63 0 95 -39t32 -105q0 -191 -169 -312v-119zM326 595v-232q84 81 84 209q0 49 -11 68.5t-33 19.5
q-40 0 -40 -65z" />
    <glyph glyph-name="uni2116" unicode="&#x2116;" 
d="M219 261q4 -21 14 -61t14 -61h3q-12 99 -12 196v375h71v-710h-88l-117 469q-5 19 -14 57t-14 57h-3q13 -115 13 -202v-381h-71v710h92zM370 441v76q0 149 119 149q116 0 116 -147v-82q0 -67 -32 -104t-84 -37q-54 0 -86.5 37.5t-32.5 107.5zM535 438v88q0 77 -46 77
q-49 0 -49 -80v-84q0 -80 49 -80q46 0 46 79z" />
    <glyph glyph-name="trademark" unicode="&#x2122;" 
d="M108 324v330h-75v56h221v-56h-80v-330h-66zM293 324v386h96l39 -253q9 -50 10 -77h3q1 27 10 77l39 253h96v-386h-58v271v61h-1q-1 -15 -6 -42l-50 -290h-63l-50 290q-4 26 -6 42h-1v-61v-271h-58z" />
    <glyph glyph-name="uni2126" unicode="&#x2126;" 
d="M553 0h-196l-15 212q64 16 94 76t30 147q0 95 -38.5 155.5t-116.5 60.5q-74 0 -114.5 -62t-40.5 -155q0 -83 33 -144.5t90 -77.5l-15 -212h-196v79h122l8 82q-58 29 -95.5 104t-37.5 170q0 129 69 210.5t178 81.5q112 0 177.5 -79.5t65.5 -210.5q0 -223 -132 -276l9 -82
h121v-79z" />
    <glyph glyph-name="estimated" unicode="&#x212e;" 
d="M331 41q56 0 100.5 31t67.5 98l56 -26q-29 -80 -90 -120.5t-144 -40.5q-126 0 -193.5 100.5t-67.5 273.5q0 167 67.5 264t194.5 97q125 0 181 -86t56 -280h-354v-256q50 -55 126 -55zM420 632q-37 28 -98 28q-72 0 -117 -42v-209h215v223z" />
    <glyph glyph-name="uni2153" unicode="&#x2153;" horiz-adv-x="1240" 
d="M840 727h76l-515 -744h-77zM452 328h-284v51h110v250q-13 -13 -44 -24t-56 -11h-5v61h4q32 0 66 15.5t46 38.5h59v-330h104v-51zM984 195q41 -2 65 -27t24 -67q0 -49 -39 -79t-103 -30q-68 0 -105.5 32t-38.5 89l74 5q-1 -31 18.5 -52t51.5 -21q30 0 49 16t19 46
q0 63 -73 63h-29v46h26q29 0 48.5 14.5t19.5 44.5q0 29 -17 44.5t-46 15.5q-33 0 -50 -20.5t-15 -54.5l-74 6q-2 57 35 90.5t104 33.5q63 0 99 -28t36 -77q0 -36 -21.5 -60t-57.5 -30z" />
    <glyph glyph-name="uni2154" unicode="&#x2154;" horiz-adv-x="1240" 
d="M840 727h76l-515 -744h-77zM167 380q100 68 151 118t51 96q0 67 -64 67q-31 0 -48 -16.5t-17 -47.5q0 -18 2 -24l-71 6q-2 18 -2 22q0 53 37.5 85t98.5 32q65 0 100 -31.5t35 -88.5q0 -97 -179 -215h192v-55h-286v52zM897 216h26q29 0 48.5 14.5t19.5 44.5q0 29 -17 44.5
t-46 15.5q-33 0 -50 -20.5t-15 -54.5l-74 6q-2 57 35 90.5t104 33.5q63 0 99 -28t36 -77q0 -36 -21.5 -60t-57.5 -30q41 -2 65 -27t24 -67q0 -49 -39 -79t-103 -30q-68 0 -105.5 32t-38.5 89l74 5q-1 -31 18.5 -52t51.5 -21q30 0 49 16t19 46q0 63 -73 63h-29v46z" />
    <glyph glyph-name="oneeighth" unicode="&#x215b;" horiz-adv-x="1240" 
d="M840 727h76l-515 -744h-77zM452 328h-284v51h110v250q-13 -13 -44 -24t-56 -11h-5v61h4q32 0 66 15.5t46 38.5h59v-330h104v-51zM987 212q45 -11 70.5 -36t25.5 -75q0 -51 -42 -80t-114 -29q-70 0 -110.5 28t-40.5 77q0 72 88 90q-79 23 -79 98q0 47 39 76t102 29
t101.5 -25.5t38.5 -69.5q0 -63 -79 -83zM925 341q-33 0 -52 -15t-19 -42q0 -45 70 -59l27 -5q50 16 50 62q0 28 -20.5 43.5t-55.5 15.5zM930 44q38 0 60 16t22 44q0 31 -20 45.5t-58 22.5l-28 6q-60 -22 -60 -71q0 -30 22 -46.5t62 -16.5z" />
    <glyph glyph-name="threeeighths" unicode="&#x215c;" horiz-adv-x="1240" 
d="M840 727h76l-515 -744h-77zM453 429q0 -49 -39 -79t-103 -30q-68 0 -105.5 32t-38.5 89l74 5q-1 -31 18.5 -52t51.5 -21q30 0 49 16t19 46q0 63 -73 63h-29v46h26q29 0 48.5 14.5t19.5 44.5q0 29 -17 44.5t-46 15.5q-33 0 -50 -20.5t-15 -54.5l-74 6q-2 57 35 90.5
t104 33.5q63 0 99 -28t36 -77q0 -36 -21.5 -60t-57.5 -30q41 -2 65 -27t24 -67zM987 212q45 -11 70.5 -36t25.5 -75q0 -51 -42 -80t-114 -29q-70 0 -110.5 28t-40.5 77q0 72 88 90q-79 23 -79 98q0 47 39 76t102 29t101.5 -25.5t38.5 -69.5q0 -63 -79 -83zM925 341
q-33 0 -52 -15t-19 -42q0 -45 70 -59l27 -5q50 16 50 62q0 28 -20.5 43.5t-55.5 15.5zM930 44q38 0 60 16t22 44q0 31 -20 45.5t-58 22.5l-28 6q-60 -22 -60 -71q0 -30 22 -46.5t62 -16.5z" />
    <glyph glyph-name="fiveeighths" unicode="&#x215d;" horiz-adv-x="1240" 
d="M840 727h76l-515 -744h-77zM454 457q0 -66 -39 -101.5t-108 -35.5q-59 0 -98 29t-44 77l65 7q6 -28 27 -44t51 -16q36 0 57.5 22t21.5 61q0 35 -20 55.5t-55 20.5q-60 0 -77 -55l-59 6l23 226h235v-56h-186l-13 -124q32 55 100 55q55 0 87 -34.5t32 -92.5zM987 212
q45 -11 70.5 -36t25.5 -75q0 -51 -42 -80t-114 -29q-70 0 -110.5 28t-40.5 77q0 72 88 90q-79 23 -79 98q0 47 39 76t102 29t101.5 -25.5t38.5 -69.5q0 -63 -79 -83zM925 341q-33 0 -52 -15t-19 -42q0 -45 70 -59l27 -5q50 16 50 62q0 28 -20.5 43.5t-55.5 15.5zM930 44
q38 0 60 16t22 44q0 31 -20 45.5t-58 22.5l-28 6q-60 -22 -60 -71q0 -30 22 -46.5t62 -16.5z" />
    <glyph glyph-name="seveneighths" unicode="&#x215e;" horiz-adv-x="1240" 
d="M840 727h76l-515 -744h-77zM447 651q-57 -55 -91 -139.5t-36 -183.5h-77v5q-1 87 36.5 171.5t101.5 145.5h-208v59h274v-58zM987 212q45 -11 70.5 -36t25.5 -75q0 -51 -42 -80t-114 -29q-70 0 -110.5 28t-40.5 77q0 72 88 90q-79 23 -79 98q0 47 39 76t102 29
t101.5 -25.5t38.5 -69.5q0 -63 -79 -83zM925 341q-33 0 -52 -15t-19 -42q0 -45 70 -59l27 -5q50 16 50 62q0 28 -20.5 43.5t-55.5 15.5zM930 44q38 0 60 16t22 44q0 31 -20 45.5t-58 22.5l-28 6q-60 -22 -60 -71q0 -30 22 -46.5t62 -16.5z" />
    <glyph glyph-name="arrowleft" unicode="&#x2190;" 
d="M565 302h-359v-95l-164 123l164 123v-95h359v-56z" />
    <glyph glyph-name="arrowup" unicode="&#x2191;" 
d="M281 -35v621h-94l123 164l123 -164h-94v-621h-58z" />
    <glyph glyph-name="arrowright" unicode="&#x2192;" 
d="M55 358h359v95l164 -123l-164 -123v95h-359v56z" />
    <glyph glyph-name="arrowdown" unicode="&#x2193;" 
d="M339 745v-621h94l-123 -164l-123 164h94v621h58z" />
    <glyph glyph-name="arrowboth" unicode="&#x2194;" 
d="M401 302h-195v-95l-164 123l164 123v-95h195v95l164 -123l-164 -123v95z" />
    <glyph glyph-name="arrowupdn" unicode="&#x2195;" 
d="M310 -40l-123 164h94v462h-94l123 164l123 -164h-94v-462h94z" />
    <glyph glyph-name="uni2196" unicode="&#x2196;" 
d="M146 588l-79 -80v202h201l-79 -80l364 -364l-43 -42z" />
    <glyph glyph-name="uni2197" unicode="&#x2197;" 
d="M476 589l-364 -364l-43 42l364 364l-79 80h201v-202z" />
    <glyph glyph-name="uni2198" unicode="&#x2198;" 
d="M476 133l79 80v-202h-201l79 80l-364 364l43 42z" />
    <glyph glyph-name="uni2199" unicode="&#x2199;" 
d="M144 133l364 364l43 -42l-364 -364l79 -80h-201v202z" />
    <glyph glyph-name="uni21A9" unicode="&#x21a9;" 
d="M208 207l-164 123l164 123v-95h133q69 0 109 35t40 100q0 66 -39.5 100.5t-109.5 34.5h-96v56h107q93 0 147.5 -50t54.5 -141t-55 -141t-147 -50h-144v-95z" />
    <glyph glyph-name="uni21AA" unicode="&#x21aa;" 
d="M412 207v95h-144q-92 0 -147 50t-55 141t54.5 141t147.5 50h107v-56h-96q-70 0 -109.5 -34.5t-39.5 -100.5q0 -65 40 -100t109 -35h133v95l164 -123z" />
    <glyph glyph-name="uni21B0" unicode="&#x21b0;" 
d="M467 0v572h-260v-95l-164 123l164 123v-95h319v-628h-59z" />
    <glyph glyph-name="uni21B1" unicode="&#x21b1;" 
d="M153 0h-59v628h319v95l164 -123l-164 -123v95h-260v-572z" />
    <glyph glyph-name="uni21B2" unicode="&#x21b2;" 
d="M492 710h59v-628h-319v-95l-164 123l164 123v-95h260v572z" />
    <glyph glyph-name="uni21B3" unicode="&#x21b3;" 
d="M153 710v-572h260v95l164 -123l-164 -123v95h-319v628h59z" />
    <glyph glyph-name="uni21B4" unicode="&#x21b4;" 
d="M346 152h94v502h-385v56h444v-558h93l-123 -164z" />
    <glyph glyph-name="uni21B5" unicode="&#x21b5;" 
d="M523 352h95l-123 -164l-123 164h87v57q0 134 -36.5 196.5t-114.5 62.5q-95 0 -129 -88l-56 23q54 123 185 123q108 0 161.5 -82t53.5 -231v-61zM310 41q95 0 129 88l56 -23q-54 -123 -185 -123q-108 0 -161.5 82t-53.5 231v56h-93l123 164l123 -164h-89v-52
q0 -134 36.5 -196.5t114.5 -62.5z" />
    <glyph glyph-name="uni21C4" unicode="&#x21c4;" 
d="M515 418h-309v-95l-164 123l164 123v-95h309v-56zM106 242h308v95l164 -123l-164 -123v95h-308v56z" />
    <glyph glyph-name="uni21C5" unicode="&#x21c5;" 
d="M549 586h-94v-542h-58v542h-94l123 164zM71 124h94v542h58v-542h94l-123 -164z" />
    <glyph glyph-name="partialdiff" unicode="&#x2202;" 
d="M281 721q138 0 205.5 -101.5t67.5 -281.5q0 -163 -67.5 -259t-186.5 -96q-103 0 -169 68t-66 173q0 102 61 167.5t157 65.5q124 0 185 -96q0 133 -47 209t-140 76q-42 0 -85 -16l-22 71q51 20 107 20zM304 56q66 0 113.5 52t50.5 159q-57 117 -166 117q-71 0 -111 -44
t-40 -116q0 -73 42.5 -120.5t110.5 -47.5z" />
    <glyph glyph-name="emptyset" unicode="&#x2205;" 
d="M539 513l-56 -60q49 -60 49 -149q0 -100 -61 -163t-161 -63q-77 0 -134 41l-55 -60l-40 36l56 61q-49 60 -49 148q0 100 61.5 163t160.5 63q76 0 134 -40l55 59zM166 304q0 -54 24 -91l204 221q-36 25 -84 25q-65 0 -104.5 -43t-39.5 -112zM454 304q0 54 -24 91
l-203 -221q34 -25 83 -25q65 0 104.5 43t39.5 112z" />
    <glyph glyph-name="uni2206" unicode="&#x2206;" 
d="M63 0l199 710h99l196 -710h-494zM310 610l-137 -535h269z" />
    <glyph glyph-name="product" unicode="&#x220f;" 
d="M463 -88v713h-306v-713h-86v793h478v-793h-86z" />
    <glyph glyph-name="summation" unicode="&#x2211;" 
d="M62 -88v62l278 353l-265 317v61h470v-77h-356l258 -301l-276 -338h386v-77h-495z" />
    <glyph glyph-name="minus" unicode="&#x2212;" 
d="M75 288v80h470v-80h-470z" />
    <glyph glyph-name="radical" unicode="&#x221a;" 
d="M51 302h135l80 -277l222 709h81l-263 -828h-79l-104 327h-72v69z" />
    <glyph glyph-name="infinity" unicode="&#x221e;" 
d="M428 468q56 0 93 -38.5t37 -101.5q0 -61 -39 -100t-92 -39q-33 0 -65 23.5t-53 56.5q-53 -81 -120 -81q-51 0 -89 37t-38 102q0 63 37.5 102t90.5 39q34 0 67.5 -22t52.5 -55q54 77 118 77zM196 260q43 0 79 68q-38 68 -84 68q-24 0 -41.5 -17t-17.5 -52q0 -32 21 -49.5
t43 -17.5zM425 260q24 0 42.5 18.5t18.5 48.5q0 34 -17.5 51.5t-42.5 17.5t-42.5 -16.5t-39.5 -51.5q39 -68 81 -68z" />
    <glyph glyph-name="integral" unicode="&#x222b;" 
d="M86 -115v73q11 -1 30 -1q88 0 120.5 35t32.5 127v365q0 107 51.5 168.5t163.5 60.5q24 0 49 -3v-73q-24 4 -49 4q-71 0 -100 -41t-29 -124v-365q0 -114 -56.5 -171t-183.5 -56q-19 0 -29 1z" />
    <glyph glyph-name="approxequal" unicode="&#x2248;" 
d="M421 364q-38 0 -106 25t-104 25q-37 0 -75 -11.5t-61 -28.5v80q20 17 56 28.5t70 11.5q45 0 109.5 -25t100.5 -25q37 0 74.5 11.5t59.5 28.5v-80q-18 -17 -53.5 -28.5t-70.5 -11.5zM421 174q-38 0 -106 25t-104 25q-37 0 -75 -11.5t-61 -28.5v80q20 17 56 28.5t70 11.5
q45 0 109.5 -25t100.5 -25q37 0 74.5 11.5t59.5 28.5v-80q-18 -17 -53.5 -28.5t-70.5 -11.5z" />
    <glyph glyph-name="notequal" unicode="&#x2260;" 
d="M545 384h-185l-43 -110h228v-80h-259l-51 -131h-56l51 131h-155v80h186l43 110h-229v80h260l50 127h56l-50 -127h154v-80z" />
    <glyph glyph-name="lessequal" unicode="&#x2264;" 
d="M551 131l-465 205v72l465 205v-79l-371 -161l371 -161v-81zM69 75h460v-75h-460v75z" />
    <glyph glyph-name="greaterequal" unicode="&#x2265;" 
d="M77 131v81l371 161l-371 161v79l465 -205v-72zM559 75v-75h-460v75h460z" />
    <glyph glyph-name="uni2460" unicode="&#x2460;" 
d="M309 -17q-128 0 -205.5 83t-77.5 229v120q0 145 78 228.5t205 83.5q128 0 206 -83t78 -229v-120q0 -146 -78 -229t-206 -83zM309 29q104 0 167.5 69.5t63.5 194.5v124q0 124 -63.5 194t-167.5 70t-167 -70t-63 -194v-124q0 -125 63 -194.5t167 -69.5zM211 178h199v53h-68
v301h-48q-17 -50 -70 -50h-5v-58h6q39 0 57 23v-216h-71v-53z" />
    <glyph glyph-name="uni2461" unicode="&#x2461;" 
d="M309 -17q-128 0 -205.5 83t-77.5 229v120q0 145 78 228.5t205 83.5q128 0 206 -83t78 -229v-120q0 -146 -78 -229t-206 -83zM309 29q104 0 167.5 69.5t63.5 194.5v124q0 124 -63.5 194t-167.5 70t-167 -70t-63 -194v-124q0 -125 63 -194.5t167 -69.5zM207 174v41
q77 85 108.5 133t31.5 99q0 44 -38 44q-39 0 -39 -43q0 -22 1 -33l-61 5q-1 8 -1 25q0 42 26 66.5t76 24.5q99 0 99 -91q0 -37 -19 -75.5t-40.5 -64.5t-75.5 -86h138v-45h-206z" />
    <glyph glyph-name="uni2462" unicode="&#x2462;" 
d="M309 -17q-128 0 -205.5 83t-77.5 229v120q0 145 78 228.5t205 83.5q128 0 206 -83t78 -229v-120q0 -146 -78 -229t-206 -83zM309 29q104 0 167.5 69.5t63.5 194.5v124q0 124 -63.5 194t-167.5 70t-167 -70t-63 -194v-124q0 -125 63 -194.5t167 -69.5zM311 170
q-53 0 -78 25.5t-25 89.5l61 5q0 -44 10 -59.5t31 -15.5q40 0 40 58q0 39 -11.5 52.5t-36.5 13.5h-15v42h15q22 0 33.5 14t11.5 50q0 51 -38 51q-20 0 -29.5 -15.5t-9.5 -57.5l-61 6q0 60 25.5 85.5t74.5 25.5q99 0 99 -95q0 -73 -57 -83q31 -5 45.5 -25t14.5 -64
q0 -103 -100 -103z" />
    <glyph glyph-name="uni2463" unicode="&#x2463;" 
d="M309 -17q-128 0 -205.5 83t-77.5 229v120q0 145 78 228.5t205 83.5q128 0 206 -83t78 -229v-120q0 -146 -78 -229t-206 -83zM309 29q104 0 167.5 69.5t63.5 194.5v124q0 124 -63.5 194t-167.5 70t-167 -70t-63 -194v-124q0 -125 63 -194.5t167 -69.5zM423 259h-42v-81
h-57v81h-127v43l114 230h70v-228h42v-45zM324 472l-80 -168h80v168z" />
    <glyph glyph-name="uni2464" unicode="&#x2464;" 
d="M309 -17q-128 0 -205.5 83t-77.5 229v120q0 145 78 228.5t205 83.5q128 0 206 -83t78 -229v-120q0 -146 -78 -229t-206 -83zM309 29q104 0 167.5 69.5t63.5 194.5v124q0 124 -63.5 194t-167.5 70t-167 -70t-63 -194v-124q0 -125 63 -194.5t167 -69.5zM309 174
q-101 0 -101 107l60 6q0 -39 10 -54t31 -15t31 17t10 64q0 45 -9 61.5t-30 16.5q-38 0 -43 -42l-56 4l11 197h174v-46h-127l-5 -103q17 34 65 34q41 0 61 -28t20 -94t-25.5 -95.5t-76.5 -29.5z" />
    <glyph glyph-name="uni2465" unicode="&#x2465;" 
d="M309 727q128 0 206 -83t78 -229v-120q0 -146 -78 -229t-206 -83t-205.5 83t-77.5 229v120q0 145 78 228.5t205 83.5zM540 293v124q0 124 -63.5 194t-167.5 70t-167 -70t-63 -194v-124q0 -125 63 -194.5t167 -69.5t167.5 69.5t63.5 194.5zM330 417q41 0 61.5 -27t20.5 -96
q0 -124 -100 -124q-57 0 -81 38.5t-24 141.5q0 108 25.5 149t79.5 41q97 0 97 -93l-60 -6q0 57 -38 57q-21 0 -31 -21.5t-12 -87.5q18 28 62 28zM311 213q20 0 30 17t10 64q0 46 -10 62.5t-30 16.5q-32 0 -44 -32q1 -78 11 -103t33 -25z" />
    <glyph glyph-name="uni2466" unicode="&#x2466;" 
d="M309 -17q-128 0 -205.5 83t-77.5 229v120q0 145 78 228.5t205 83.5q128 0 206 -83t78 -229v-120q0 -146 -78 -229t-206 -83zM309 29q104 0 167.5 69.5t63.5 194.5v124q0 124 -63.5 194t-167.5 70t-167 -70t-63 -194v-124q0 -125 63 -194.5t167 -69.5zM213 485v47h194v-40
q-83 -123 -83 -293v-21h-62v8q0 168 87 299h-136z" />
    <glyph glyph-name="uni2467" unicode="&#x2467;" 
d="M309 727q128 0 206 -83t78 -229v-120q0 -146 -78 -229t-206 -83t-205.5 83t-77.5 229v120q0 145 78 228.5t205 83.5zM540 293v124q0 124 -63.5 194t-167.5 70t-167 -70t-63 -194v-124q0 -125 63 -194.5t167 -69.5t167.5 69.5t63.5 194.5zM359 369q27 -11 40 -31.5
t13 -63.5q0 -103 -103 -103q-102 0 -102 103q0 65 54 84q-49 21 -49 92q0 44 26.5 67t70.5 23q96 0 96 -90q0 -34 -11 -52t-35 -29zM309 502q-39 0 -39 -52q0 -34 9.5 -46t29.5 -18l8 -3q30 13 30 67q0 30 -9.5 41t-28.5 11zM310 212q40 0 40 62q0 25 -5.5 38.5t-12 17.5
t-22.5 10l-8 3q-18 -7 -26 -21.5t-8 -47.5q0 -35 10.5 -48.5t31.5 -13.5z" />
    <glyph glyph-name="uni2468" unicode="&#x2468;" 
d="M309 727q128 0 206 -83t78 -229v-120q0 -146 -78 -229t-206 -83t-205.5 83t-77.5 229v120q0 145 78 228.5t205 83.5zM540 293v124q0 124 -63.5 194t-167.5 70t-167 -70t-63 -194v-124q0 -125 63 -194.5t167 -69.5t167.5 69.5t63.5 194.5zM309 540q57 0 80 -39t23 -152
q0 -105 -24.5 -142t-79.5 -37q-97 0 -97 99l60 6q0 -63 39 -63q22 0 31.5 23.5t10.5 95.5q-18 -26 -61 -26q-41 0 -62 26t-21 88q0 121 101 121zM309 349q32 0 43 31q-2 74 -12 96.5t-31 22.5t-31 -16.5t-10 -63.5q0 -40 10.5 -55t30.5 -15z" />
    <glyph glyph-name="uni24EA" unicode="&#x24ea;" 
d="M309 -17q-128 0 -205.5 83t-77.5 229v120q0 145 78 228.5t205 83.5q128 0 206 -83t78 -229v-120q0 -146 -78 -229t-206 -83zM309 29q104 0 167.5 69.5t63.5 194.5v124q0 124 -63.5 194t-167.5 70t-167 -70t-63 -194v-124q0 -125 63 -194.5t167 -69.5zM310 170
q-52 0 -78.5 39.5t-26.5 145.5t26.5 145.5t78.5 39.5t78.5 -39.5t26.5 -145.5t-26.5 -145.5t-78.5 -39.5zM310 214q14 0 22.5 8.5t14.5 40.5t6 92t-6 92t-14.5 40.5t-22.5 8.5t-22.5 -8.5t-14.5 -40.5t-6 -92t6 -92t14.5 -40.5t22.5 -8.5z" />
    <glyph glyph-name="uni24FF" unicode="&#x24ff;" 
d="M309 -17q-128 0 -205.5 83t-77.5 229v120q0 146 77.5 229t205.5 83t206 -83t78 -229v-120q0 -146 -78 -229t-206 -83zM310 170q52 0 78.5 39.5t26.5 145.5t-26.5 145.5t-78.5 39.5t-78.5 -39.5t-26.5 -145.5t26.5 -145.5t78.5 -39.5zM310 214q-14 0 -22.5 8.5t-14.5 40.5
t-6 92t6 92t14.5 40.5t22.5 8.5t22.5 -8.5t14.5 -40.5t6 -92t-6 -92t-14.5 -40.5t-22.5 -8.5z" />
    <glyph glyph-name="lozenge" unicode="&#x25ca;" 
d="M347 -17h-76l-202 372l202 372h76l204 -372zM309 644l-152 -289l152 -289l155 289z" />
    <glyph glyph-name="circle" unicode="&#x25cb;" 
d="M310 -17q-107 0 -178 74.5t-71 221.5v149q0 148 71 223.5t178 75.5t178 -75.5t71 -223.5v-149q0 -147 -71 -221.5t-178 -74.5zM310 30q86 0 142.5 61t56.5 188v149q0 127 -56.5 189.5t-142.5 62.5t-142.5 -62.5t-56.5 -189.5v-149q0 -127 56.5 -188t142.5 -61z" />
    <glyph glyph-name="uni25CF" unicode="&#x25cf;" 
d="M307 -17q-105 0 -175.5 76t-70.5 225v148q0 148 70 221.5t176 73.5q110 0 180.5 -74t70.5 -221v-148q0 -149 -71.5 -225t-179.5 -76z" />
    <glyph glyph-name="uni2776" unicode="&#x2776;" 
d="M309 -17q-128 0 -205.5 83t-77.5 229v120q0 146 77.5 229t205.5 83t206 -83t78 -229v-120q0 -146 -78 -229t-206 -83zM211 178h199v53h-68v301h-48q-17 -50 -70 -50h-5v-58h6q39 0 57 23v-216h-71v-53z" />
    <glyph glyph-name="uni2777" unicode="&#x2777;" 
d="M309 -17q-128 0 -205.5 83t-77.5 229v120q0 146 77.5 229t205.5 83t206 -83t78 -229v-120q0 -146 -78 -229t-206 -83zM207 174h206v45h-138q54 60 75.5 86t40.5 64.5t19 75.5q0 91 -99 91q-50 0 -76 -24.5t-26 -66.5q0 -17 1 -25l61 -5q-1 11 -1 33q0 43 39 43
q38 0 38 -44q0 -51 -31.5 -99t-108.5 -133v-41z" />
    <glyph glyph-name="uni2778" unicode="&#x2778;" 
d="M309 -17q-128 0 -205.5 83t-77.5 229v120q0 146 77.5 229t205.5 83t206 -83t78 -229v-120q0 -146 -78 -229t-206 -83zM311 170q100 0 100 103q0 44 -14.5 64t-45.5 25q57 10 57 83q0 95 -99 95q-49 0 -74.5 -25.5t-25.5 -85.5l61 -6q0 42 9.5 57.5t29.5 15.5q38 0 38 -51
q0 -36 -11.5 -50t-33.5 -14h-15v-42h15q25 0 36.5 -13.5t11.5 -52.5q0 -58 -40 -58q-21 0 -31 15.5t-10 59.5l-61 -5q0 -64 25 -89.5t78 -25.5z" />
    <glyph glyph-name="uni2779" unicode="&#x2779;" 
d="M309 -17q-128 0 -205.5 83t-77.5 229v120q0 146 77.5 229t205.5 83t206 -83t78 -229v-120q0 -146 -78 -229t-206 -83zM324 178h57v81h42v45h-42v228h-70l-114 -230v-43h127v-81zM244 304l80 168v-168h-80z" />
    <glyph glyph-name="uni277A" unicode="&#x277a;" 
d="M309 -17q-128 0 -205.5 83t-77.5 229v120q0 146 77.5 229t205.5 83t206 -83t78 -229v-120q0 -146 -78 -229t-206 -83zM309 174q51 0 76.5 29.5t25.5 95.5t-20 94t-61 28q-48 0 -65 -34l5 103h127v46h-174l-11 -197l56 -4q5 42 43 42q21 0 30 -16.5t9 -61.5q0 -47 -10 -64
t-31 -17t-31 15t-10 54l-60 -6q0 -107 101 -107z" />
    <glyph glyph-name="uni277B" unicode="&#x277b;" 
d="M309 -17q-128 0 -205.5 83t-77.5 229v120q0 146 77.5 229t205.5 83t206 -83t78 -229v-120q0 -146 -78 -229t-206 -83zM312 170q100 0 100 124q0 69 -20.5 96t-61.5 27q-44 0 -62 -28q2 66 12 87.5t31 21.5q38 0 38 -57l60 6q0 93 -97 93q-54 0 -79.5 -41t-25.5 -149
q0 -103 24 -141.5t81 -38.5zM311 213q-23 0 -33 25t-11 103q12 32 44 32q20 0 30 -16.5t10 -62.5q0 -47 -10 -64t-30 -17z" />
    <glyph glyph-name="uni277C" unicode="&#x277c;" 
d="M309 -17q-128 0 -205.5 83t-77.5 229v120q0 146 77.5 229t205.5 83t206 -83t78 -229v-120q0 -146 -78 -229t-206 -83zM262 178h62q0 98 18.5 172.5t64.5 141.5v40h-194v-47h136q-87 -131 -87 -307z" />
    <glyph glyph-name="uni277D" unicode="&#x277d;" 
d="M309 -17q-128 0 -205.5 83t-77.5 229v120q0 146 77.5 229t205.5 83t206 -83t78 -229v-120q0 -146 -78 -229t-206 -83zM309 171q103 0 103 103q0 43 -13 63.5t-40 31.5q24 11 35 29t11 52q0 90 -96 90q-44 0 -70.5 -23t-26.5 -67q0 -71 49 -92q-54 -19 -54 -84
q0 -103 102 -103zM317 383l-8 3q-20 6 -29.5 18t-9.5 46q0 52 39 52q19 0 28.5 -11t9.5 -41q0 -54 -30 -67zM310 212q-21 0 -31.5 13.5t-10.5 48.5q0 33 8 47.5t26 21.5l8 -3q16 -6 22.5 -10t12 -17.5t5.5 -38.5q0 -62 -40 -62z" />
    <glyph glyph-name="uni277E" unicode="&#x277e;" 
d="M309 -17q-128 0 -205.5 83t-77.5 229v120q0 146 77.5 229t205.5 83t206 -83t78 -229v-120q0 -146 -78 -229t-206 -83zM308 170q55 0 79.5 37t24.5 142q0 113 -23 152t-80 39q-101 0 -101 -121q0 -62 21 -88t62 -26q43 0 61 26q-1 -72 -10.5 -95.5t-31.5 -23.5
q-39 0 -39 63l-60 -6q0 -99 97 -99zM309 349q-20 0 -30.5 15t-10.5 55q0 47 10 63.5t31 16.5t31 -22.5t12 -96.5q-11 -31 -43 -31z" />
    <glyph glyph-name="uniE000" unicode="&#xe000;" 
d="M274 152l-123 -164l-123 164h93v558h444v-56h-385v-502h94z" />
    <glyph glyph-name="uniF8FF" unicode="&#xf8ff;" 
d="M610 663h-174v-47h174v-48h-174v-47h174v-48h-174v-47h174v-47h-174v-48h174v-47h-600v426h600v-47zM57 667l13 9h-16l-5 15l-4 -15h-16l13 -9l-5 -15l12 9l13 -9zM132 676h-16l13 -9l-5 -15l12 10l13 -10l-5 15l12 9h-15l-5 15zM219 676h-16l13 -9l-5 -15l12 10l13 -10
l-5 15l12 9h-15l-5 15zM305 676h-15l13 -9l-5 -15l12 10l13 -10l-5 15l12 9h-15l-5 15zM405 667l12 9h-15l-5 15l-5 -15h-15l12 -9l-4 -15l12 10l13 -10zM88 632h-15l12 -9l-4 -14l12 9l12 -9l-4 14l12 9h-15l-5 15zM361 623l13 9h-16l-4 15l-5 -15h-15l12 -9l-5 -14l13 9
l12 -9zM263 364v93h94v80h-94v94h-80v-94h-93v-80h93v-93h80zM57 580l13 9h-16l-5 14l-4 -14h-16l13 -9l-5 -15l12 9l13 -9zM132 589h-16l13 -9l-5 -15l12 9l13 -9l-5 15l12 9h-15l-5 14zM305 589h-15l13 -9l-5 -15l12 9l13 -9l-5 15l12 9h-15l-5 14zM405 580l12 9h-15
l-5 14l-5 -14h-15l12 -9l-4 -15l12 9l13 -9zM57 492l13 10h-16l-5 14l-4 -14h-16l13 -10l-5 -14l12 9l13 -9zM405 492l12 10h-15l-5 14l-5 -14h-15l12 -10l-4 -14l12 9l13 -9zM57 405l13 9h-16l-5 15l-4 -15h-16l13 -9l-5 -14l12 9l13 -9zM144 405l12 9h-15l-5 15l-4 -15
h-16l13 -9l-5 -14l12 9l13 -9zM318 405l12 9h-15l-5 15l-5 -15h-15l13 -9l-5 -14l12 9l13 -9zM405 405l12 9h-15l-5 15l-5 -15h-15l12 -9l-4 -14l12 9l13 -9zM105 347l-4 15l12 9h-15l-5 14l-5 -14h-15l12 -9l-4 -15l12 9zM366 347l-5 15l13 9h-16l-4 14l-5 -14h-15l12 -9
l-5 -15l13 9zM62 303l-5 15l13 9h-16l-5 15l-4 -15h-16l13 -9l-5 -15l12 9zM149 303l-5 15l12 9h-15l-5 15l-4 -15h-16l13 -9l-5 -15l12 9zM236 303l-5 15l12 9h-15l-5 15l-4 -15h-16l13 -9l-5 -15l12 9zM323 303l-5 15l12 9h-15l-5 15l-5 -15h-15l13 -9l-5 -15l12 9z
M410 303l-5 15l12 9h-15l-5 15l-5 -15h-15l12 -9l-4 -15l12 9zM10 189v48h599v-48h-599zM10 95v47h600v-47h-600zM10 0v47h600v-47h-600z" />
    <glyph glyph-name="uni00A40301" 
d="M434 777l70 107h114l-104 -107h-80zM520 215q0 -104 -60.5 -168t-171.5 -64q-60 0 -107 22t-73.5 58.5t-40 78.5t-13.5 87l92 31q0 -88 37.5 -142.5t108.5 -54.5q135 0 135 173v474h93v-495z" />
    <glyph glyph-name="i.loclTRK" 
d="M379 720v-120h-120v120h120zM125 0v70h160v360h-145v70h230v-430h169v-70h-414z" />
    <glyph glyph-name="uni006A0301" 
d="M333 577l86 143h106l-117 -143h-75zM236 -202q-69 0 -126 18v74q63 -14 115 -14q61 0 87 27.5t26 99.5v427h-190v70h275v-502q0 -200 -187 -200z" />
    <glyph glyph-name="uni20BF.case" 
d="M544 199q0 -71 -42 -126.5t-135 -68.5v-113h-53v109h-71v-109h-53v109h-114v709h114v92h53v-92h50h21v92h53v-99q84 -16 120.5 -65.5t36.5 -109.5q0 -56 -30.5 -99.5t-88.5 -61.5q65 -11 102 -54.5t37 -112.5zM163 631v-233h129q137 0 137 121q0 112 -137 112h-129z
M308 79q75 0 108 36t33 93q0 51 -32 81.5t-99 30.5h-155v-241h145z" />
    <glyph glyph-name="g.ss01" 
d="M294 -207q-194 0 -212 161h88q16 -89 127 -89q65 0 95.5 35.5t30.5 111.5v85q-40 -106 -152 -106q-92 0 -150 74t-58 192q0 113 60 184t152 71q107 0 151 -93l20 81h62v-491q0 -216 -214 -216zM289 63q60 0 98 50.5t38 130.5v27q0 75 -37.5 120.5t-97.5 45.5
q-63 0 -100 -48.5t-37 -132.5q0 -86 37.5 -139.5t98.5 -53.5z" />
    <glyph glyph-name="gbreve.ss01" 
d="M230 720q2 -38 24.5 -62.5t55.5 -24.5t55.5 24.5t24.5 62.5h72q-4 -74 -47 -111t-105 -37t-105 37t-47 111h72zM294 -207q-194 0 -212 161h88q16 -89 127 -89q65 0 95.5 35.5t30.5 111.5v85q-40 -106 -152 -106q-92 0 -150 74t-58 192q0 113 60 184t152 71q107 0 151 -93
l20 81h62v-491q0 -216 -214 -216zM289 63q60 0 98 50.5t38 130.5v27q0 75 -37.5 120.5t-97.5 45.5q-63 0 -100 -48.5t-37 -132.5q0 -86 37.5 -139.5t98.5 -53.5z" />
    <glyph glyph-name="gcircumflex.ss01" 
d="M460 577h-84l-66 93l-66 -93h-84l103 143h94zM294 -207q-194 0 -212 161h88q16 -89 127 -89q65 0 95.5 35.5t30.5 111.5v85q-40 -106 -152 -106q-92 0 -150 74t-58 192q0 113 60 184t152 71q107 0 151 -93l20 81h62v-491q0 -216 -214 -216zM289 63q60 0 98 50.5t38 130.5
v27q0 75 -37.5 120.5t-97.5 45.5q-63 0 -100 -48.5t-37 -132.5q0 -86 37.5 -139.5t98.5 -53.5z" />
    <glyph glyph-name="uni0123.ss01" 
d="M334 771l20 -38q-30 -10 -38.5 -23t-8.5 -40h51v-90h-96v80q0 43 15.5 69.5t56.5 41.5zM294 -207q-194 0 -212 161h88q16 -89 127 -89q65 0 95.5 35.5t30.5 111.5v85q-40 -106 -152 -106q-92 0 -150 74t-58 192q0 113 60 184t152 71q107 0 151 -93l20 81h62v-491
q0 -216 -214 -216zM289 63q60 0 98 50.5t38 130.5v27q0 75 -37.5 120.5t-97.5 45.5q-63 0 -100 -48.5t-37 -132.5q0 -86 37.5 -139.5t98.5 -53.5z" />
    <glyph glyph-name="gdotaccent.ss01" 
d="M370 720v-120h-120v120h120zM294 -207q-194 0 -212 161h88q16 -89 127 -89q65 0 95.5 35.5t30.5 111.5v85q-40 -106 -152 -106q-92 0 -150 74t-58 192q0 113 60 184t152 71q107 0 151 -93l20 81h62v-491q0 -216 -214 -216zM289 63q60 0 98 50.5t38 130.5v27
q0 75 -37.5 120.5t-97.5 45.5q-63 0 -100 -48.5t-37 -132.5q0 -86 37.5 -139.5t98.5 -53.5z" />
    <glyph glyph-name="g.sups.ss01" 
d="M314 159q-152 0 -167 118h76q13 -65 93 -65q93 0 93 102v64q-28 -71 -120 -71q-68 0 -111 52.5t-43 137.5q0 84 43.5 135.5t113.5 51.5q92 0 120 -69l10 60h62v-352q0 -164 -170 -164zM312 361q43 0 70.5 34.5t27.5 87.5v25q0 52 -27 85.5t-70 33.5q-46 0 -72 -35
t-26 -96q0 -62 26 -98.5t71 -36.5z" />
    <glyph glyph-name="a.sups" 
d="M467 427q0 -81 11 -117h-77q-4 30 -6 62q-36 -71 -130 -71q-55 0 -89 29.5t-34 76.5q0 53 41 78.5t117 34.5l90 11q-1 53 -17.5 75.5t-57.5 22.5q-78 0 -81 -70h-81q5 59 48.5 92t117.5 33q76 0 112 -36.5t36 -113.5v-107zM391 487l-80 -10q-47 -6 -68 -21t-21 -42
t18.5 -43t50.5 -16q45 0 72.5 29t27.5 75v28z" />
    <glyph glyph-name="b.sups" 
d="M213 839v-221q14 30 46 48t73 18q71 0 111 -52.5t40 -138.5q0 -87 -40.5 -139.5t-113.5 -52.5q-41 0 -73.5 18t-45.5 50l-8 -59h-65v529h76zM211 481q0 -53 26 -87.5t70 -34.5q46 0 71.5 36t25.5 98q0 61 -25.5 97t-71.5 36q-43 0 -69.5 -34.5t-26.5 -88.5v-22z" />
    <glyph glyph-name="c.sups" 
d="M318 301q-86 0 -132.5 53.5t-46.5 139.5q0 85 46.5 137.5t134.5 52.5q67 0 110 -34.5t50 -95.5l-75 -11q-11 81 -90 81q-48 0 -73.5 -34.5t-25.5 -93.5q0 -61 26.5 -97t74.5 -36q77 0 90 83l74 -14q-10 -57 -51.5 -94t-111.5 -37z" />
    <glyph glyph-name="d.sups" 
d="M406 839h77v-529h-73v65q-31 -74 -122 -74q-69 0 -110.5 52t-41.5 139q0 86 43 139t117 53q83 0 110 -63v218zM408 502q0 55 -25.5 89.5t-69.5 34.5q-47 0 -72 -35.5t-25 -97.5t25 -98t70 -36q44 0 70.5 34t26.5 89v20z" />
    <glyph glyph-name="e.sups" 
d="M480 501q0 -16 -1 -24h-263q1 -53 28.5 -84.5t75.5 -31.5q65 0 97 67l61 -27q-21 -47 -61.5 -73.5t-95.5 -26.5q-88 0 -135 51.5t-47 142.5q0 86 47.5 137.5t127.5 51.5q83 0 124.5 -50t41.5 -133zM402 524q1 48 -21.5 77.5t-68.5 29.5t-72 -31.5t-25 -75.5h187z" />
    <glyph glyph-name="f.sups" 
d="M476 675v-56h-140v-309h-76v309h-116v56h116v38q0 128 151 128q35 0 65 -6v-59q-30 4 -58 4q-45 0 -63.5 -15.5t-18.5 -54.5v-35h140z" />
    <glyph glyph-name="g.sups" 
d="M368 382q62 0 94.5 -26.5t32.5 -73.5q0 -60 -51.5 -91.5t-144.5 -31.5q-84 0 -129.5 25t-45.5 68q0 59 72 75q-54 19 -54 68q0 51 58 71q-49 32 -49 94q0 57 43 90.5t109 33.5q44 0 77 -15q23 61 98 61q7 0 15 -2v-58q-24 3 -26 3q-37 0 -55 -23q42 -34 42 -89
q0 -56 -43.5 -89t-109.5 -33q-41 0 -72 12q-22 -12 -22 -32q0 -36 61 -36zM302 636q-34 0 -55 -20.5t-21 -55.5q0 -33 21 -53t54 -20q34 0 55.5 20.5t21.5 53.5q0 34 -21.5 54.5t-54.5 20.5zM306 209q114 0 114 61q0 48 -69 48l-102 1q-10 0 -15 1q-39 -12 -39 -51
q0 -60 111 -60z" />
    <glyph glyph-name="h.sups" 
d="M224 610q14 34 46 54t75 20q55 0 89 -31q38 -35 38 -119v-224h-76v216q0 95 -79 95q-46 0 -69.5 -33.5t-23.5 -77.5v-200h-76v529h76v-229z" />
    <glyph glyph-name="i.sups" 
d="M349 837v-102h-96v102h96zM148 310v58h121v249h-110v58h185v-307h127v-58h-323z" />
    <glyph glyph-name="j.sups" 
d="M437 837v-102h-95v102h95zM183 177v61q49 -11 80 -11q91 0 91 90v300h-146v58h223v-365q0 -68 -37.5 -106.5t-116.5 -38.5q-53 0 -94 12z" />
    <glyph glyph-name="k.sups" 
d="M391 310l-109 180l-66 -67v-113h-76v529h76v-342l165 178h91l-136 -141l144 -224h-89z" />
    <glyph glyph-name="l.sups" 
d="M148 310v58h119v414h-110v57h187v-471h127v-58h-323z" />
    <glyph glyph-name="m.sups" 
d="M174 622q21 62 82 62t77 -59q26 59 89 59q38 0 62 -28t24 -86v-260h-68v253q0 63 -43 63q-27 0 -41 -19.5t-14 -49.5v-247h-66v251q0 65 -43 65q-28 0 -41 -23t-13 -56v-237h-68v365h63v-53z" />
    <glyph glyph-name="n.sups" 
d="M221 607q33 77 125 77q55 0 88 -30q38 -36 38 -120v-224h-76v216q0 95 -77 95q-48 0 -71.5 -33.5t-23.5 -78.5v-199h-76v365h73v-68z" />
    <glyph glyph-name="o.sups" 
d="M310 301q-80 0 -130 51.5t-50 140.5q0 88 50 139.5t130 51.5t130 -51.5t50 -139.5q0 -89 -50 -140.5t-130 -51.5zM310 360q47 0 73.5 35t26.5 98t-26.5 97.5t-73.5 34.5t-74 -35t-27 -97q0 -63 27 -98t74 -35z" />
    <glyph glyph-name="p.sups" 
d="M210 675v-63q14 31 47 51.5t74 20.5q72 0 112 -52.5t40 -138.5q0 -87 -41 -139.5t-115 -52.5q-38 0 -69.5 17.5t-44.5 44.5v-195h-76v507h73zM211 484q0 -56 26.5 -90.5t70.5 -34.5q45 0 70.5 36t25.5 98t-24.5 97.5t-70.5 35.5q-44 0 -71 -35t-27 -91v-16z" />
    <glyph glyph-name="q.sups" 
d="M417 675h66v-507h-77v204q-14 -32 -46.5 -51.5t-73.5 -19.5q-69 0 -109.5 52.5t-40.5 138.5q0 85 42.5 138.5t114.5 53.5q40 0 71 -17.5t43 -46.5zM408 503q0 54 -26.5 88.5t-70.5 34.5q-46 0 -70.5 -36t-24.5 -97t25 -97.5t68 -36.5q45 0 72 34t27 87v23z" />
    <glyph glyph-name="r.sups" 
d="M231 562q20 58 65.5 89t101.5 31q42 0 65 -9v-68q-34 9 -71 9q-67 0 -113 -45t-46 -126v-133h-76v365h74v-113z" />
    <glyph glyph-name="s.sups" 
d="M317 301q-65 0 -108.5 27t-59.5 78l56 30q24 -79 117 -79q77 0 77 53q0 24 -14.5 35.5t-48.5 16.5l-59 8q-54 7 -82 34t-28 70q0 51 40.5 80.5t109.5 29.5q60 0 100 -24t53 -69l-53 -32q-23 70 -104 70q-75 0 -75 -50q0 -41 64 -50l64 -9q104 -14 104 -104
q0 -54 -40.5 -84.5t-112.5 -30.5z" />
    <glyph glyph-name="t.sups" 
d="M150 621v54h104v94l73 29v-123h142v-54h-142v-182q0 -71 82 -71q36 0 60 4v-59q-43 -9 -75 -9q-68 0 -104 32t-36 93v192h-104z" />
    <glyph glyph-name="u.sups" 
d="M397 372q-14 -29 -46.5 -50t-74.5 -21q-58 0 -90 31q-37 35 -37 113v230h77v-222q0 -92 77 -92q45 0 68 33.5t23 76.5v204h76v-365h-73v62z" />
    <glyph glyph-name="v.sups" 
d="M269 310l-149 365h82l92 -247q11 -28 17 -51h2q5 18 16 51l94 247h77l-145 -365h-86z" />
    <glyph glyph-name="w.sups" 
d="M96 675h71l40 -248q2 -12 3.5 -28.5t2.5 -22.5h4l10 55l49 244h68l49 -244q6 -32 9 -55h4l7 51l39 248h72l-74 -365h-83l-49 241q-6 28 -6 52h-4q-3 -32 -7 -52l-49 -241h-82z" />
    <glyph glyph-name="x.sups" 
d="M307 450l-96 -140h-84l137 190l-128 175h88l87 -127l85 127h86l-126 -176l137 -189h-89z" />
    <glyph glyph-name="y.sups" 
d="M214 675l101 -293l96 293h80l-143 -385q-26 -70 -64 -98.5t-96 -28.5q-24 0 -40 4v60q16 -4 35 -4q63 0 85 67l7 21l-146 364h85z" />
    <glyph glyph-name="z.sups" 
d="M152 360l213 257h-204v58h295v-49l-210 -257h221v-59h-315v50z" />
    <glyph glyph-name="zero.case" 
d="M310 727q253 0 253 -372q0 -370 -253 -370t-253 370q0 372 253 372zM310 650q-80 0 -122.5 -67t-42.5 -228q0 -90 14 -152l276 374q-40 73 -125 73zM310 62q80 0 122.5 67t42.5 226q0 90 -14 152l-276 -374q40 -71 125 -71z" />
    <glyph glyph-name="one.case" 
d="M363 83h171v-83h-441v83h185v489q-18 -23 -68.5 -39.5t-88.5 -16.5h-28v81h19q53 0 109 34t71 79h71v-627z" />
    <glyph glyph-name="two.case" 
d="M77 74q122 107 231 222q66 71 92.5 121.5t26.5 104.5q0 61 -33 95.5t-91 34.5q-60 0 -94.5 -35.5t-34.5 -97.5q0 -21 4 -54l-89 7q-5 25 -5 53q0 90 60.5 146t159.5 56t157 -54.5t58 -147.5q0 -68 -31 -127.5t-120 -155.5q-19 -21 -41.5 -44t-39.5 -38.5t-44.5 -40.5
t-41.5 -38h331v-81h-455v74z" />
    <glyph glyph-name="three.case" 
d="M262 406h40q45 0 85.5 32t40.5 93q0 57 -35 88t-94 31q-65 0 -100.5 -43.5t-35.5 -122.5l-83 18q0 102 59 163.5t165 61.5q95 0 154.5 -52t59.5 -144q0 -53 -35.5 -95t-87.5 -57q70 -11 108.5 -58.5t38.5 -116.5q0 -100 -69 -159.5t-171 -59.5q-105 0 -168.5 61
t-66.5 156l87 11q2 -68 43 -110t105 -42q68 0 109 35t41 107q0 18 -6 37.5t-20 41t-45.5 35.5t-75.5 14h-43v75z" />
    <glyph glyph-name="four.case" 
d="M562 180h-114v-180h-85v180h-316v62l304 468h97v-459h114v-71zM363 251v354q-8 -16 -27 -48.5t-23 -39.5l-131 -199q-7 -10 -21 -33.5t-21 -33.5h223z" />
    <glyph glyph-name="five.case" 
d="M508 710v-79h-318l-28 -257q22 46 64.5 73t96.5 27q98 0 156.5 -66.5t58.5 -174.5q0 -111 -63.5 -179.5t-167.5 -68.5q-89 0 -152 47.5t-78 130.5l93 11q10 -51 48.5 -81.5t90.5 -30.5q64 0 101.5 44.5t37.5 126.5q0 70 -33.5 117.5t-101.5 47.5q-63 0 -96 -34.5
t-45 -79.5l-89 9l38 417h387z" />
    <glyph glyph-name="six.case" 
d="M332 474q98 0 156.5 -66t58.5 -176t-63 -178.5t-166 -68.5q-250 0 -250 357q0 185 67 285t192 100q87 0 141.5 -46.5t70.5 -132.5l-90 -20q-24 124 -123 124q-165 0 -170 -279q24 48 70 74.5t106 26.5zM319 60q63 0 100.5 46.5t37.5 124.5q0 77 -38.5 122.5t-103.5 45.5
q-57 0 -97.5 -36.5t-58.5 -104.5q8 -91 51 -144.5t109 -53.5z" />
    <glyph glyph-name="seven.case" 
d="M83 631v79h460v-71q-104 -114 -170 -282.5t-72 -356.5h-99q10 163 75.5 335t168.5 296h-363z" />
    <glyph glyph-name="eight.case" 
d="M413 383q77 -28 111.5 -75.5t34.5 -121.5q0 -91 -67 -146t-179 -55q-114 0 -183 53.5t-69 141.5q0 151 143 195q-117 51 -117 173q0 80 62 129.5t162 49.5q101 0 161.5 -48t60.5 -129q0 -127 -120 -167zM308 659q-61 0 -96 -29.5t-35 -81.5q0 -48 28 -78.5t90 -49.5
l34 -10q63 25 88.5 55t25.5 81q0 53 -35.5 83t-99.5 30zM313 57q73 0 114.5 34t41.5 95q0 103 -123 141l-65 20q-69 -25 -99 -61t-30 -93q0 -61 44 -98.5t117 -37.5z" />
    <glyph glyph-name="nine.case" 
d="M301 727q249 0 249 -356q0 -386 -254 -386q-91 0 -148.5 50t-70.5 142l90 20q7 -64 39.5 -100.5t90.5 -36.5q62 0 99 38.5t50 101t14 158.5q-52 -89 -168 -89q-99 0 -161 60t-62 168q0 100 64 165t168 65zM301 344q56 0 100.5 37.5t56.5 94.5q-8 76 -45 126t-113 50
q-64 0 -102.5 -42.5t-38.5 -111.5q0 -71 39.5 -112.5t102.5 -41.5z" />
    <glyph glyph-name="zero.osf" 
d="M310 550q119 0 188.5 -78t69.5 -208q0 -127 -69.5 -203t-187.5 -76q-121 0 -190 76.5t-69 207.5q0 128 69.5 204.5t188.5 76.5zM310 473q-79 0 -125 -55.5t-46 -150.5q0 -69 25 -121l244 296q-42 31 -98 31zM311 59q79 0 124.5 55t45.5 148q0 81 -32 134l-247 -299
q43 -38 109 -38z" />
    <glyph glyph-name="one.osf" 
d="M376 77h171v-77h-441v77h185v323q-17 -23 -64 -39.5t-83 -16.5h-38v81h29q50 0 103 33t67 77h71v-458z" />
    <glyph glyph-name="two.osf" 
d="M68 0v52q12 8 41 25t64 38.5t78 49.5q93 60 131.5 105.5t38.5 105.5q0 46 -29.5 72.5t-80.5 26.5q-57 0 -90.5 -29.5t-33.5 -79.5q0 -33 4 -50l-91 11q-3 22 -3 39q0 81 59.5 132.5t153.5 51.5t147 -44.5t53 -123.5q0 -89 -81 -166q-64 -61 -207 -139h321v-77h-475z" />
    <glyph glyph-name="three.osf" 
d="M316 -165q-112 0 -176 56t-67 157l88 11q3 -73 43.5 -111t114.5 -38q69 0 109 36t40 91q0 60 -39.5 96t-112.5 36h-43v74h40q65 0 98 32.5t33 84.5q0 54 -33 84.5t-95 30.5q-69 0 -107.5 -42.5t-38.5 -118.5l-84 18q0 100 64 159t171 59q100 0 156.5 -51.5t56.5 -138.5
q0 -50 -33 -90.5t-87 -53.5q68 -12 106 -59t38 -120q0 -85 -67 -143.5t-175 -58.5z" />
    <glyph glyph-name="four.osf" 
d="M373 -150v181h-326v61l311 443h100v-434h114v-70h-114v-181h-85zM136 101h237v253q0 63 2 95h-2q-18 -40 -50 -86l-135 -196q-32 -45 -52 -66z" />
    <glyph glyph-name="five.osf" 
d="M308 -165q-92 0 -155 50t-76 135l93 11q10 -55 48.5 -87t91.5 -32q71 0 109 48t38 121q0 79 -36 123.5t-95 44.5q-56 4 -97 -28t-55 -88l-86 9l41 393h395v-78h-325l-28 -226q53 93 168 93q99 0 153.5 -63.5t54.5 -174.5q0 -106 -65.5 -178.5t-173.5 -72.5z" />
    <glyph glyph-name="six.osf" 
d="M332 464q98 0 156.5 -64.5t58.5 -172.5q0 -109 -63.5 -175.5t-165.5 -66.5q-124 0 -187 88t-63 259q0 182 67 280t192 98q87 0 141.5 -44t70.5 -128l-90 -20q-23 117 -123 117q-164 0 -170 -271q24 47 70.5 73.5t105.5 26.5zM319 60q63 0 100.5 45t37.5 121q0 75 -38 119
t-104 44q-57 0 -97.5 -36t-58.5 -105q8 -86 50.5 -137t109.5 -51z" />
    <glyph glyph-name="seven.osf" 
d="M198 -150v10q0 294 243 592h-358v83h460v-70q-122 -134 -184 -287.5t-62 -310.5v-17h-99z" />
    <glyph glyph-name="eight.osf" 
d="M411 374q73 -28 105.5 -73t32.5 -115q0 -91 -64.5 -146t-171.5 -55q-110 0 -176 53.5t-66 141.5q0 143 135 185q-57 27 -83 67t-26 99q0 80 59 129.5t155 49.5q97 0 154.5 -48t57.5 -129q0 -121 -112 -159zM308 642q-56 0 -88.5 -29.5t-32.5 -81.5q0 -45 25.5 -73.5
t82.5 -47.5l34 -10q57 23 80.5 52t23.5 77q0 53 -33 83t-92 30zM313 57q69 0 107.5 34t38.5 95q0 48 -27 79.5t-86 51.5l-64 20q-65 -23 -92.5 -56.5t-27.5 -87.5q0 -61 41.5 -98.5t109.5 -37.5z" />
    <glyph glyph-name="nine.osf" 
d="M292 550q252 0 252 -349q0 -107 -24 -187t-80.5 -129.5t-142.5 -49.5q-95 0 -152 47t-74 135l90 20q23 -127 137 -127q153 0 156 278q-52 -89 -168 -89q-99 0 -161 58.5t-62 164.5q0 100 63 164t166 64zM295 174q56 0 100.5 37.5t56.5 93.5q-9 73 -46.5 121.5
t-114.5 48.5q-62 0 -100 -42t-38 -110q0 -69 39.5 -109t102.5 -40z" />
    <glyph glyph-name="zero.subs" 
d="M311 378q95 0 144 -67t49 -198q0 -135 -47 -199.5t-146 -64.5q-195 0 -195 265q0 264 195 264zM311 315q-59 0 -86.5 -48.5t-27.5 -152.5q0 -59 9 -101l192 250q-26 52 -87 52zM311 -88q59 0 85.5 47.5t26.5 153.5q0 66 -10 106l-193 -250q28 -57 91 -57z" />
    <glyph glyph-name="one.subs" 
d="M354 -75h130v-65h-348v65h139v337q-15 -17 -53.5 -29.5t-68.5 -12.5h-15v71h11q40 0 82.5 22.5t55.5 53.5h67v-442z" />
    <glyph glyph-name="two.subs" 
d="M132 -77q119 92 186 161q75 78 75 143q0 41 -22.5 63.5t-63.5 22.5q-43 0 -66.5 -24t-23.5 -66q0 -15 3 -36l-80 7q-4 17 -4 34q0 67 47 108.5t124 41.5q79 0 123.5 -39t44.5 -109q0 -44 -20 -82.5t-71 -91.5q-53 -56 -147 -128h251v-68h-356v63z" />
    <glyph glyph-name="three.subs" 
d="M272 150h32q38 0 64 23t26 60q0 39 -23 60t-61 21q-49 0 -73.5 -28.5t-22.5 -79.5l-80 11q-1 75 46 118t132 43q75 0 119.5 -36.5t44.5 -100.5q0 -43 -26.5 -74t-70.5 -41q52 -5 82.5 -39.5t30.5 -86.5q0 -68 -49.5 -109.5t-130.5 -41.5q-86 0 -134.5 43t-50.5 116l82 7
q0 -45 28 -73.5t75 -28.5q46 0 71.5 23t25.5 67q0 40 -25.5 64t-76.5 24h-35v59z" />
    <glyph glyph-name="four.subs" 
d="M511 -16h-82v-124h-76v124h-244v56l230 327h90v-322h82v-61zM353 45v244q-13 -28 -34 -56l-107 -146q-18 -25 -35 -42h176z" />
    <glyph glyph-name="five.subs" 
d="M465 367v-66h-239l-19 -172q40 71 126 71q72 0 114.5 -47t42.5 -125q0 -83 -48.5 -131t-133.5 -48q-75 0 -122.5 36t-56.5 97l79 10q8 -37 34.5 -58t67.5 -21q49 0 75 30t26 84q0 51 -25.5 80t-72.5 29q-37 0 -64.5 -20.5t-37.5 -54.5l-73 7l29 299h298z" />
    <glyph glyph-name="six.subs" 
d="M336 201q73 0 116 -47t43 -126q0 -80 -48 -129.5t-128 -49.5q-95 0 -145 65t-50 191q0 129 51.5 201t147.5 72q69 0 111.5 -33.5t53.5 -96.5l-79 -14q-16 81 -88 81q-116 0 -118 -193q17 38 52.5 58.5t80.5 20.5zM319 -87q45 0 71 31t26 82q0 52 -26.5 82t-71.5 30
q-41 0 -71 -25.5t-42 -71.5q7 -60 36 -94t78 -34z" />
    <glyph glyph-name="seven.subs" 
d="M135 299v68h350v-64q-75 -78 -122 -194t-51 -249h-89v4q4 116 51 230.5t131 204.5h-270z" />
    <glyph glyph-name="eight.subs" 
d="M387 137q56 -19 84 -51.5t28 -89.5q0 -67 -51.5 -107t-137.5 -40q-87 0 -138 38.5t-51 103.5q0 98 104 128q-88 35 -88 124q0 61 47 98t124 37t123 -34t46 -93q0 -87 -90 -114zM306 321q-41 0 -65 -21t-24 -57q0 -32 21 -51t64 -31l29 -8q70 27 70 88q0 37 -25.5 58.5
t-69.5 21.5zM311 -89q50 0 78.5 23.5t28.5 63.5q0 68 -89 92l-45 12q-83 -30 -83 -100q0 -41 30 -66t80 -25z" />
    <glyph glyph-name="nine.subs" 
d="M301 378q195 0 195 -256q0 -128 -48 -200.5t-146 -72.5q-72 0 -116 34.5t-55 99.5l79 14q17 -83 95 -83q112 0 112 192v11q-34 -72 -125 -72q-75 0 -122 44.5t-47 119.5t48 122t130 47zM305 107q39 0 69.5 24t40.5 64q-13 120 -113 120q-46 0 -73 -28.5t-27 -75.5
t29 -75.5t74 -28.5z" />
    <glyph glyph-name="zero.dnom" 
d="M310 390q152 0 152 -200q0 -101 -37 -149.5t-115 -48.5q-153 0 -153 198q0 200 153 200zM310 339q-42 0 -61.5 -36t-19.5 -113q0 -44 6 -72l140 176q-19 45 -65 45zM310 43q43 0 61 33.5t18 113.5q0 40 -5 73l-139 -176q19 -44 65 -44z" />
    <glyph glyph-name="one.dnom" 
d="M348 51h104v-51h-284v51h110v250q-13 -13 -44 -24t-56 -11h-5v61h4q32 0 66 15.5t46 38.5h59v-330z" />
    <glyph glyph-name="two.dnom" 
d="M167 52q100 68 151 118t51 96q0 67 -64 67q-31 0 -48 -16.5t-17 -47.5q0 -18 2 -24l-71 6q-2 18 -2 22q0 53 37.5 85t98.5 32q65 0 100 -31.5t35 -88.5q0 -97 -179 -215h192v-55h-286v52z" />
    <glyph glyph-name="three.dnom" 
d="M277 216h26q29 0 48.5 14.5t19.5 44.5q0 29 -17 44.5t-46 15.5q-33 0 -50 -20.5t-15 -54.5l-74 6q-2 57 35 90.5t104 33.5q63 0 99 -28t36 -77q0 -36 -21.5 -60t-57.5 -30q41 -2 65 -27t24 -67q0 -49 -39 -79t-103 -30q-68 0 -105.5 32t-38.5 89l74 5q-1 -31 18.5 -52
t51.5 -21q30 0 49 16t19 46q0 63 -73 63h-29v46z" />
    <glyph glyph-name="four.dnom" 
d="M473 90h-63v-90h-66v90h-197v50l184 241h79v-239h63v-52zM344 142v183l-143 -183h143z" />
    <glyph glyph-name="five.dnom" 
d="M434 381v-56h-186l-13 -124q32 55 100 55q55 0 87 -34.5t32 -92.5q0 -66 -39 -101.5t-108 -35.5q-59 0 -98 29t-44 77l65 7q6 -28 27 -44t51 -16q36 0 57.5 22t21.5 61q0 35 -20 55.5t-55 20.5q-60 0 -77 -55l-59 6l23 226h235z" />
    <glyph glyph-name="six.dnom" 
d="M337 258q55 0 88 -34.5t33 -94.5t-37.5 -98.5t-100.5 -38.5q-74 0 -116 49t-42 146q0 93 41 148t115 55q116 0 132 -104l-67 -8q-10 58 -68 58q-40 0 -63 -36t-23 -92v-25q11 37 40 56t68 19zM317 45q34 0 54 22.5t20 56.5q0 39 -19.5 61.5t-52.5 22.5q-31 0 -55 -20
t-32 -54q13 -89 85 -89z" />
    <glyph glyph-name="seven.dnom" 
d="M173 322v59h274v-58q-57 -55 -91 -139.5t-36 -183.5h-77v5q-1 87 36.5 171.5t101.5 145.5h-208z" />
    <glyph glyph-name="eight.dnom" 
d="M367 212q45 -11 70.5 -36t25.5 -75q0 -51 -42 -80t-114 -29q-70 0 -110.5 28t-40.5 77q0 72 88 90q-79 23 -79 98q0 47 39 76t102 29t101.5 -25.5t38.5 -69.5q0 -63 -79 -83zM305 341q-33 0 -52 -15t-19 -42q0 -45 70 -59l27 -5q50 16 50 62q0 28 -20.5 43.5t-55.5 15.5z
M310 44q38 0 60 16t22 44q0 31 -20 45.5t-58 22.5l-28 6q-60 -22 -60 -71q0 -30 22 -46.5t62 -16.5z" />
    <glyph glyph-name="nine.dnom" 
d="M303 390q72 0 113.5 -48.5t41.5 -147.5q0 -202 -157 -202q-116 0 -131 101l67 11q11 -57 69 -57q41 0 63.5 33t22.5 90v42q-8 -38 -35.5 -58t-64.5 -20q-60 0 -95.5 35.5t-35.5 90.5q0 57 37.5 93.5t104.5 36.5zM307 185q31 0 53.5 18t29.5 52q-13 84 -84 84
q-35 0 -56 -21.5t-21 -54.5q0 -35 21.5 -56.5t56.5 -21.5z" />
    <glyph glyph-name="zero.numr" 
d="M310 718q152 0 152 -200q0 -101 -37 -149.5t-115 -48.5q-153 0 -153 198q0 200 153 200zM310 667q-42 0 -61.5 -36t-19.5 -113q0 -44 6 -72l140 176q-19 45 -65 45zM310 371q43 0 61 33.5t18 113.5q0 40 -5 73l-139 -176q19 -44 65 -44z" />
    <glyph glyph-name="one.numr" 
d="M348 379h104v-51h-284v51h110v250q-13 -13 -44 -24t-56 -11h-5v61h4q32 0 66 15.5t46 38.5h59v-330z" />
    <glyph glyph-name="two.numr" 
d="M167 380q100 68 151 118t51 96q0 67 -64 67q-31 0 -48 -16.5t-17 -47.5q0 -18 2 -24l-71 6q-2 18 -2 22q0 53 37.5 85t98.5 32q65 0 100 -31.5t35 -88.5q0 -97 -179 -215h192v-55h-286v52z" />
    <glyph glyph-name="three.numr" 
d="M277 544h26q29 0 48.5 14.5t19.5 44.5q0 29 -17 44.5t-46 15.5q-33 0 -50 -20.5t-15 -54.5l-74 6q-2 57 35 90.5t104 33.5q63 0 99 -28t36 -77q0 -36 -21.5 -60t-57.5 -30q41 -2 65 -27t24 -67q0 -49 -39 -79t-103 -30q-68 0 -105.5 32t-38.5 89l74 5q-1 -31 18.5 -52
t51.5 -21q30 0 49 16t19 46q0 63 -73 63h-29v46z" />
    <glyph glyph-name="four.numr" 
d="M473 418h-63v-90h-66v90h-197v50l184 241h79v-239h63v-52zM344 470v183l-143 -183h143z" />
    <glyph glyph-name="five.numr" 
d="M434 709v-56h-186l-13 -124q32 55 100 55q55 0 87 -34.5t32 -92.5q0 -66 -39 -101.5t-108 -35.5q-59 0 -98 29t-44 77l65 7q6 -28 27 -44t51 -16q36 0 57.5 22t21.5 61q0 35 -20 55.5t-55 20.5q-60 0 -77 -55l-59 6l23 226h235z" />
    <glyph glyph-name="six.numr" 
d="M337 586q55 0 88 -34.5t33 -94.5t-37.5 -98.5t-100.5 -38.5q-74 0 -116 49t-42 146q0 93 41 148t115 55q116 0 132 -104l-67 -8q-10 58 -68 58q-40 0 -63 -36t-23 -92v-25q11 37 40 56t68 19zM317 373q34 0 54 22.5t20 56.5q0 39 -19.5 61.5t-52.5 22.5q-31 0 -55 -20
t-32 -54q13 -89 85 -89z" />
    <glyph glyph-name="seven.numr" 
d="M173 650v59h274v-58q-57 -55 -91 -139.5t-36 -183.5h-77v5q-1 87 36.5 171.5t101.5 145.5h-208z" />
    <glyph glyph-name="eight.numr" 
d="M367 540q45 -11 70.5 -36t25.5 -75q0 -51 -42 -80t-114 -29q-70 0 -110.5 28t-40.5 77q0 72 88 90q-79 23 -79 98q0 47 39 76t102 29t101.5 -25.5t38.5 -69.5q0 -63 -79 -83zM305 669q-33 0 -52 -15t-19 -42q0 -45 70 -59l27 -5q50 16 50 62q0 28 -20.5 43.5t-55.5 15.5z
M310 372q38 0 60 16t22 44q0 31 -20 45.5t-58 22.5l-28 6q-60 -22 -60 -71q0 -30 22 -46.5t62 -16.5z" />
    <glyph glyph-name="nine.numr" 
d="M303 718q72 0 113.5 -48.5t41.5 -147.5q0 -202 -157 -202q-116 0 -131 101l67 11q11 -57 69 -57q41 0 63.5 33t22.5 90v42q-8 -38 -35.5 -58t-64.5 -20q-60 0 -95.5 35.5t-35.5 90.5q0 57 37.5 93.5t104.5 36.5zM307 513q31 0 53.5 18t29.5 52q-13 84 -84 84
q-35 0 -56 -21.5t-21 -54.5q0 -35 21.5 -56.5t56.5 -21.5z" />
    <glyph glyph-name="zero.sups" 
d="M311 828q95 0 144 -67t49 -198q0 -135 -47 -199.5t-146 -64.5q-195 0 -195 265q0 264 195 264zM311 765q-59 0 -86.5 -48.5t-27.5 -152.5q0 -59 9 -101l192 250q-26 52 -87 52zM311 362q59 0 85.5 47.5t26.5 153.5q0 66 -10 106l-193 -250q28 -57 91 -57z" />
    <glyph glyph-name="one.sups" 
d="M354 375h130v-65h-348v65h139v337q-15 -17 -53.5 -29.5t-68.5 -12.5h-15v71h11q40 0 82.5 22.5t55.5 53.5h67v-442z" />
    <glyph glyph-name="two.sups" 
d="M132 373q119 92 186 161q75 78 75 143q0 41 -22.5 63.5t-63.5 22.5q-43 0 -66.5 -24t-23.5 -66q0 -15 3 -36l-80 7q-4 17 -4 34q0 67 47 108.5t124 41.5q79 0 123.5 -39t44.5 -109q0 -44 -20 -82.5t-71 -91.5q-53 -56 -147 -128h251v-68h-356v63z" />
    <glyph glyph-name="three.sups" 
d="M272 600h32q38 0 64 23t26 60q0 39 -23 60t-61 21q-49 0 -73.5 -28.5t-22.5 -79.5l-80 11q-1 75 46 118t132 43q75 0 119.5 -36.5t44.5 -100.5q0 -43 -26.5 -74t-70.5 -41q52 -5 82.5 -39.5t30.5 -86.5q0 -68 -49.5 -109.5t-130.5 -41.5q-86 0 -134.5 43t-50.5 116l82 7
q0 -45 28 -73.5t75 -28.5q46 0 71.5 23t25.5 67q0 40 -25.5 64t-76.5 24h-35v59z" />
    <glyph glyph-name="four.sups" 
d="M511 434h-82v-124h-76v124h-244v56l230 327h90v-322h82v-61zM353 495v244q-13 -28 -34 -56l-107 -146q-18 -25 -35 -42h176z" />
    <glyph glyph-name="five.sups" 
d="M465 817v-66h-239l-19 -172q40 71 126 71q72 0 114.5 -47t42.5 -125q0 -83 -48.5 -131t-133.5 -48q-75 0 -122.5 36t-56.5 97l79 10q8 -37 34.5 -58t67.5 -21q49 0 75 30t26 84q0 51 -25.5 80t-72.5 29q-37 0 -64.5 -20.5t-37.5 -54.5l-73 7l29 299h298z" />
    <glyph glyph-name="six.sups" 
d="M336 651q73 0 116 -47t43 -126q0 -80 -48 -129.5t-128 -49.5q-95 0 -145 65t-50 191q0 129 51.5 201t147.5 72q69 0 111.5 -33.5t53.5 -96.5l-79 -14q-16 81 -88 81q-116 0 -118 -193q17 38 52.5 58.5t80.5 20.5zM319 363q45 0 71 31t26 82q0 52 -26.5 82t-71.5 30
q-41 0 -71 -25.5t-42 -71.5q7 -60 36 -94t78 -34z" />
    <glyph glyph-name="seven.sups" 
d="M135 749v68h350v-64q-75 -78 -122 -194t-51 -249h-89v4q4 116 51 230.5t131 204.5h-270z" />
    <glyph glyph-name="eight.sups" 
d="M387 587q56 -19 84 -51.5t28 -89.5q0 -67 -51.5 -107t-137.5 -40q-87 0 -138 38.5t-51 103.5q0 98 104 128q-88 35 -88 124q0 61 47 98t124 37t123 -34t46 -93q0 -87 -90 -114zM306 771q-41 0 -65 -21t-24 -57q0 -32 21 -51t64 -31l29 -8q70 27 70 88q0 37 -25.5 58.5
t-69.5 21.5zM311 361q50 0 78.5 23.5t28.5 63.5q0 68 -89 92l-45 12q-83 -30 -83 -100q0 -41 30 -66t80 -25z" />
    <glyph glyph-name="nine.sups" 
d="M301 828q195 0 195 -256q0 -128 -48 -200.5t-146 -72.5q-72 0 -116 34.5t-55 99.5l79 14q17 -83 95 -83q112 0 112 192v11q-34 -72 -125 -72q-75 0 -122 44.5t-47 119.5t48 122t130 47zM305 557q39 0 69.5 24t40.5 64q-13 120 -113 120q-46 0 -73 -28.5t-27 -75.5
t29 -75.5t74 -28.5z" />
    <glyph glyph-name="backslash.case" 
d="M392 -25l-244 760h79l244 -760h-79z" />
    <glyph glyph-name="bullet.case" 
d="M309 450q42 0 68.5 -26t26.5 -69q0 -41 -26.5 -66.5t-68.5 -25.5q-41 0 -67.5 25.5t-26.5 66.5q0 42 26.5 68.5t67.5 26.5z" />
    <glyph glyph-name="colon.case" 
d="M376 550v-128h-133v128h133zM376 128v-128h-133v128h133z" />
    <glyph glyph-name="exclamdown.case" 
d="M376 582h-133v128h133v-128zM275 484h69l16 -484h-101z" />
    <glyph glyph-name="questiondown.case" 
d="M244 582v128h133v-128h-133zM527 237q4 -26 4 -52q0 -92 -59 -147t-162 -55q-111 0 -166.5 46.5t-55.5 130.5q0 95 90 170l54 45q41 35 41 91v18h85v-42q0 -18 -2.5 -30t-15.5 -33t-39 -43l-51 -43q-67 -58 -67 -133q0 -45 32 -73.5t95 -28.5q60 0 95.5 34.5t35.5 102.5
q0 31 -5 53z" />
    <glyph glyph-name="semicolon.case" 
d="M376 550v-128h-133v128h133zM275 -148l-26 46q41 18 54 38.5t13 63.5h-73v128h133v-128q0 -59 -22 -92t-79 -56z" />
    <glyph glyph-name="slash.case" 
d="M227 -25h-79l244 760h79z" />
    <glyph glyph-name="underscore.case" 
d="M0 -18h620v-70h-620v70z" />
    <glyph glyph-name="asterisk.ss04" 
d="M310 710l-31 -93h-97l79 -57l-30 -93l79 57l79 -57l-31 93l79 57h-97z" />
    <glyph glyph-name="braceleft.case" 
d="M405 -80q-83 0 -131 40t-48 107v141q0 26 -2 41.5t-9.5 31.5t-24.5 23.5t-44 7.5v77q28 0 44.5 6t23.5 21t9 30t2 43v144q0 67 48 107t131 40h79v-70h-79q-48 0 -74.5 -26t-26.5 -72v-113q0 -59 -13 -96.5t-52 -51.5q38 -16 51 -55.5t13 -98.5v-109q0 -45 27.5 -71.5
t75.5 -26.5h78v-70h-78z" />
    <glyph glyph-name="braceright.case" 
d="M215 -80h-78v70h78q48 0 75.5 26.5t27.5 71.5v109q0 59 13 98.5t51 55.5q-39 14 -52 51.5t-13 96.5v113q0 46 -26.5 72t-74.5 26h-79v70h79q83 0 131 -40t48 -107v-144q0 -28 2 -43t9 -30t23.5 -21t44.5 -6v-77q-27 0 -44 -7.5t-24.5 -23.5t-9.5 -31.5t-2 -41.5v-141
q0 -67 -48 -107t-131 -40z" />
    <glyph glyph-name="bracketleft.case" 
d="M200 -80v860h283v-70h-207v-720h207v-70h-283z" />
    <glyph glyph-name="bracketright.case" 
d="M420 -80h-283v70h207v720h-207v70h283v-860z" />
    <glyph glyph-name="parenleft.case" 
d="M443 -82q-114 70 -183.5 186t-69.5 243t69.5 243t183.5 186l50 -45q-106 -82 -159 -174.5t-53 -209.5t53.5 -209.5t158.5 -174.5z" />
    <glyph glyph-name="parenright.case" 
d="M177 -82l-50 45q105 82 158.5 174.5t53.5 209.5t-53 209.5t-159 174.5l50 45q114 -70 183.5 -186t69.5 -243t-69.5 -243t-183.5 -186z" />
    <glyph glyph-name="emdash.case" 
d="M42 392h535v-64h-535v64z" />
    <glyph glyph-name="endash.case" 
d="M104 392h412v-64h-412v64z" />
    <glyph glyph-name="hyphen.case" 
d="M165 400h289v-80h-289v80z" />
    <glyph glyph-name="guillemotleft.case" 
d="M233 136l-168 208l173 207h90l-167 -206l164 -209h-92zM425 136l-168 208l173 207h90l-167 -206l164 -209h-92z" />
    <glyph glyph-name="guillemotright.case" 
d="M165 136l168 208l-173 207h-90l167 -206l-164 -209h92zM357 136l168 208l-173 207h-90l167 -206l-164 -209h92z" />
    <glyph glyph-name="guilsinglleft.case" 
d="M336 136l-168 208l173 207h90l-167 -206l164 -209h-92z" />
    <glyph glyph-name="guilsinglright.case" 
d="M284 136h-92l164 209l-167 206h90l173 -207z" />
    <glyph glyph-name="parenleft.subs" 
d="M483 -241q-86 57 -134 148t-48 190q0 101 48 189.5t136 142.5l52 -37q-78 -61 -115 -132t-37 -163q0 -177 153 -298z" />
    <glyph glyph-name="parenright.subs" 
d="M139 -240l-51 36q79 64 116 137t37 165q0 178 -152 296l48 34q87 -55 134.5 -143t47.5 -187t-47 -189.5t-133 -148.5z" />
    <glyph glyph-name="parenleft.sups" 
d="M481 210q-86 58 -133 148.5t-47 189.5t47.5 187t134.5 143l48 -34q-152 -118 -152 -296q0 -92 37 -165t116 -137z" />
    <glyph glyph-name="parenright.sups" 
d="M139 210l-51 36q79 64 116 137t37 165q0 178 -152 296l48 34q87 -55 134.5 -143t47.5 -187t-47 -189.5t-133 -148.5z" />
    <glyph glyph-name="uni0E3F.case" 
d="M403 363q64 -11 101 -55t37 -113q0 -80 -53.5 -137.5t-170.5 -57.5h-9v-109h-53v109h-177v710h177v92h53v-92q60 -2 103.5 -19.5t66.5 -45.5t33 -57.5t10 -61.5q0 -56 -30 -100t-88 -63zM162 634v-239h93v239h-93zM431 518q0 110 -123 116v-239q123 6 123 123zM162 77h93
v241h-93v-241zM311 77q75 0 107.5 35.5t32.5 91.5q0 51 -32 82.5t-98 31.5h-13v-241h3z" />
    <glyph glyph-name="currency.case" 
d="M535 353q0 -88 -49 -148l53 -59l-40 -36l-53 57q-57 -40 -132 -40q-79 0 -137 43l-56 -61l-40 36l58 63q-47 60 -47 145q0 86 47 146l-58 63l40 36l58 -61q58 42 135 42q74 0 130 -39l55 59l40 -36l-55 -60q51 -61 51 -150zM314 198q61 0 102 42.5t41 112.5t-41 112.5
t-102 42.5t-102.5 -42.5t-41.5 -112.5t41.5 -112.5t102.5 -42.5z" />
    <glyph glyph-name="dollar.case" 
d="M558 189q0 -81 -54.5 -140t-163.5 -64v-94h-45v95q-106 8 -163.5 68.5t-70.5 151.5l90 19q27 -149 144 -165v261l-34 9q-81 21 -129 72.5t-48 131.5q0 77 58 132t153 59v91h45v-92q91 -7 147 -56t65 -144l-89 -27q-11 136 -123 152v-250l34 -9q86 -22 135 -65.5
t49 -135.5zM290 411l5 -1v240q-67 -3 -96.5 -36.5t-29.5 -77.5q0 -46 33 -78.5t88 -46.5zM340 58q133 8 133 118q0 32 -10.5 56t-30 38t-38.5 22t-45 15l-9 2v-251z" />
    <glyph glyph-name="Euro.case" 
d="M541 169l66 -48q-74 -136 -230 -136q-114 0 -184.5 73.5t-89.5 204.5h-90v62h84q-1 12 -1 37q0 26 1 39h-84v61h90q21 129 94.5 197t189.5 68q144 0 219 -128l-70 -57q-58 104 -156 104q-72 0 -119.5 -46t-63.5 -138h271v-61h-278q-1 -12 -1 -38t1 -38h278v-62h-272
q17 -99 65 -148.5t118 -49.5q101 0 162 104z" />
    <glyph glyph-name="florin.case" 
d="M430 648q-46 0 -63 -27t-24 -84l-12 -92h106v-67h-114l-67 -531h-86l66 531h-94v67h102l10 78q6 52 14.5 83.5t27 61.5t51 43.5t82.5 13.5q32 0 49 -7v-75q-22 5 -48 5z" />
    <glyph glyph-name="uni20BA.case" 
d="M471 247l81 -19q-9 -43 -25 -79.5t-44 -72t-75 -56t-109 -20.5h-161v277l-71 -22v69l71 22v79l-71 -22v68l71 22v217h90v-189l217 68v-69l-217 -67v-79l217 67v-69l-217 -67v-223h57q44 0 77.5 14t54.5 39.5t33 51.5t21 60z" />
    <glyph glyph-name="uni20BD.case" 
d="M323 291h-106v-86h157v-61h-157v-144h-90v144h-71v61h71v86h-70v66h70v353h196q67 0 116 -19t75 -51t38 -67t12 -73t-12 -72.5t-38 -66.5t-75 -51t-116 -19zM217 629v-272h101q80 0 116.5 41.5t36.5 96.5q0 53 -36.5 93.5t-116.5 40.5h-101z" />
    <glyph glyph-name="uni20B9.case" 
d="M550 710v-66h-214q59 -38 69 -114h145v-62h-144q-18 -178 -226 -178l239 -290h-107l-243 302v58h102q128 0 144 108h-246v62h246q-8 51 -43 82.5t-101 31.5h-102v66h481z" />
    <glyph glyph-name="sterling.case" 
d="M503 175l80 -17q-12 -91 -62.5 -132t-114.5 -41q-37 0 -95 13t-103 13q-75 0 -153 -19l-19 64q142 49 142 190q0 48 -8 93h-109v64h97q-13 63 -13 107q0 102 57 159.5t145 57.5q79 0 128.5 -41.5t67.5 -116.5l-88 -22q-23 103 -109 103q-48 0 -77 -34t-29 -103
q0 -43 13 -110h171v-64h-160q6 -36 6 -75q0 -130 -100 -183q28 7 74 7q31 0 81 -9t80 -9q37 0 64 24.5t34 80.5z" />
    <glyph glyph-name="uni20A9.case" 
d="M579 414h-39l-7 -76h46v-56h-52l-28 -282h-114l-34 282h-83l-34 -282h-114l-28 282h-52v56h46l-7 76h-39v56h33l-24 240h74l21 -240h86l31 240h97l31 -240h86l21 240h74l-24 -240h33v-56zM301 561l-11 -91h39l-11 91q-5 43 -6 70h-5q-1 -27 -6 -70zM149 414l6 -76h58
l10 76h-74zM274 338h71l-9 76h-53zM464 338l6 76h-74l10 -76h58zM187 131l19 151h-46l13 -151q4 -32 4 -50h4q2 25 6 50zM446 131l13 151h-46l19 -151l6 -50h4q0 18 4 50z" />
    <glyph glyph-name="yen.case" 
d="M572 710l-217 -369h184v-61h-184v-73h184v-61h-184v-146h-90v146h-187v61h187v73h-187v61h187l-218 369h101l161 -286l162 286h101z" />
    <glyph glyph-name="plus.case" 
d="M545 409v-73h-193v-202h-85v202h-192v73h192v190h85v-190h193z" />
    <glyph glyph-name="minus.case" 
d="M75 333v80h470v-80h-470z" />
    <glyph glyph-name="multiply.case" 
d="M553 556l-186 -186l186 -185l-57 -58l-186 186l-186 -186l-57 57l186 186l-186 186l57 57l186 -185l185 185z" />
    <glyph glyph-name="divide.case" 
d="M310 509q-23 0 -37.5 14.5t-14.5 37.5t14.5 37.5t37.5 14.5t37.5 -14t14.5 -38q0 -23 -14.5 -37.5t-37.5 -14.5zM75 335v76h470v-76h-470zM310 133q-23 0 -37.5 14.5t-14.5 37.5t14.5 37.5t37.5 14.5t37.5 -14t14.5 -38q0 -23 -14.5 -37.5t-37.5 -14.5z" />
    <glyph glyph-name="equal.case" 
d="M75 428v80h470v-80h-470zM75 238v80h470v-80h-470z" />
    <glyph glyph-name="notequal.case" 
d="M545 428h-185l-43 -110h228v-80h-259l-51 -131h-56l51 131h-155v80h186l43 110h-229v80h260l50 127h56l-50 -127h154v-80z" />
    <glyph glyph-name="greater.case" 
d="M51 132v81l371 161l-371 161v79l465 -205v-72z" />
    <glyph glyph-name="less.case" 
d="M562 132l-465 205v72l465 205v-79l-371 -161l371 -161v-81z" />
    <glyph glyph-name="plusminus.case" 
d="M353 465h192v-73h-192v-160h-86v160h-192v73h192v161h86v-161zM75 100v80h470v-80h-470z" />
    <glyph glyph-name="approxequal.case" 
d="M421 414q-38 0 -106 25t-104 25q-37 0 -75 -11.5t-61 -28.5v80q20 17 56 28.5t70 11.5q45 0 109.5 -25t100.5 -25q37 0 74.5 11.5t59.5 28.5v-80q-18 -17 -53.5 -28.5t-70.5 -11.5zM421 224q-38 0 -106 25t-104 25q-37 0 -75 -11.5t-61 -28.5v80q20 17 56 28.5t70 11.5
q45 0 109.5 -25t100.5 -25q37 0 74.5 11.5t59.5 28.5v-80q-18 -17 -53.5 -28.5t-70.5 -11.5z" />
    <glyph glyph-name="logicalnot.case" 
d="M87 418h465v-243h-80v163h-385v80z" />
    <glyph glyph-name="infinity.case" 
d="M428 508q56 0 93 -38.5t37 -101.5q0 -61 -39 -100t-92 -39q-33 0 -65 23.5t-53 56.5q-53 -81 -120 -81q-51 0 -89 37t-38 102q0 63 37.5 102t90.5 39q34 0 67.5 -22t52.5 -55q54 77 118 77zM196 300q43 0 79 68q-38 68 -84 68q-24 0 -41.5 -17t-17.5 -52q0 -32 21 -49.5
t43 -17.5zM425 300q24 0 42.5 18.5t18.5 48.5q0 34 -17.5 51.5t-42.5 17.5t-42.5 -16.5t-39.5 -51.5q39 -68 81 -68z" />
    <glyph glyph-name="integral.case" 
d="M86 -15v73q11 -1 30 -1q88 0 120.5 35t32.5 127v265q0 107 51.5 168.5t163.5 60.5q24 0 49 -3v-73q-24 4 -49 4q-71 0 -100 -41t-29 -124v-265q0 -114 -56.5 -171t-183.5 -56q-19 0 -29 1z" />
    <glyph glyph-name="carriagereturn.alt" 
d="M325 352h87v57q0 134 -36.5 196.5t-114.5 62.5q-77 0 -113 -62.5t-36 -196.5v-109q0 -134 36.5 -196.5t114.5 -62.5q95 0 129 88l56 -23q-54 -123 -185 -123q-108 0 -161.5 82t-53.5 231v113q0 151 53.5 234t159.5 83q108 0 161.5 -82t53.5 -231v-61h95l-123 -164z" />
    <glyph glyph-name="arrowright.case" 
d="M55 387h359v95l164 -123l-164 -123v95h-359v56z" />
    <glyph glyph-name="arrowleft.case" 
d="M565 331h-359v-95l-164 123l164 123v-95h359v-56z" />
    <glyph glyph-name="arrowright.ss03.case" 
d="M473 324l-211 -204l49 -49l288 288l-288 287l-48 -49l210 -203h-438v-70h438z" />
    <glyph glyph-name="arrowleft.ss03.case" 
d="M147 324l211 -204l-49 -49l-288 288l288 287l48 -49l-210 -203h438v-70h-438z" />
    <glyph glyph-name="arrowup.ss03" 
d="M274 625l-204 -212l-47 50l288 287l286 -287l-48 -50l-203 212v-660h-72v660z" />
    <glyph glyph-name="uni2197.ss03" 
d="M489 597l-374 -375l-50 50l376 375l-294 -5v68h406v-407h-69z" />
    <glyph glyph-name="arrowright.ss03" 
d="M473 295h-438v70h438l-210 203l48 49l288 -287l-288 -288l-49 49z" />
    <glyph glyph-name="uni2198.ss03" 
d="M489 101l-5 294h69v-407h-406v68l294 -5l-376 375l50 50z" />
    <glyph glyph-name="arrowdown.ss03" 
d="M277 85v660h72v-660l203 212l48 -50l-286 -287l-288 287l47 50z" />
    <glyph glyph-name="uni2199.ss03" 
d="M131 101l374 375l50 -50l-376 -375l294 5v-68h-406v407h69z" />
    <glyph glyph-name="arrowleft.ss03" 
d="M147 295l211 -204l-49 -49l-288 288l288 287l48 -49l-210 -203h438v-70h-438z" />
    <glyph glyph-name="uni2196.ss03" 
d="M131 597l5 -294h-69v407h406v-68l-294 5l376 -375l-50 -50z" />
    <glyph glyph-name="at.case" 
d="M329 -17q-127 0 -200 74t-73 202v185q0 132 72 212.5t190 80.5q112 0 178.5 -73t66.5 -196v-127q0 -164 -103 -164q-31 0 -51.5 15.5t-25.5 41.5q-16 -27 -44 -42.5t-60 -15.5q-47 0 -77 29t-30 75q0 86 107 104l98 17v7q0 43 -14.5 62t-47.5 19q-69 0 -69 -69h-64
q0 59 37 93.5t100 34.5q62 0 91.5 -37.5t29.5 -116.5v-104q0 -59 29 -59q34 0 34 83v146q0 105 -50 163.5t-139 58.5q-92 0 -144.5 -61.5t-52.5 -170.5v-195q0 -98 59 -157t156 -59q62 0 125 29l21 -48q-68 -37 -149 -37zM297 231q35 0 57.5 25t22.5 64v32l-79 -17
q-60 -12 -60 -54q0 -23 16 -36.5t43 -13.5z" />
    <glyph glyph-name="section.case" 
d="M452 213q47 -38 47 -89q0 -68 -56.5 -105t-148.5 -37q-86 0 -140 40t-60 103l85 18q10 -41 43.5 -65t82.5 -24q47 0 76.5 16t29.5 44q0 27 -20 44.5t-81 40.5l-80 30q-76 28 -109.5 63t-33.5 84q0 81 80 117q-41 37 -41 94q0 65 54.5 102.5t140.5 37.5q82 0 130.5 -34.5
t58.5 -96.5l-84 -20q-18 86 -116 86q-41 0 -67.5 -18.5t-26.5 -48.5q0 -28 18 -45.5t76 -39.5l80 -30q75 -29 109 -64.5t34 -83.5q0 -83 -81 -119zM291 293l81 -34q14 -5 29 -14q41 31 41 70q0 13 -3.5 24.5t-12.5 21t-17.5 16t-25 15t-28 13t-34 14t-35.5 14.5l-66 28
q-1 0 -1 1q-41 -30 -41 -69q0 -34 23.5 -53t89.5 -47z" />
    <glyph glyph-name="bar.case" 
d="M348 725v-743h-77v743h77z" />
    <glyph glyph-name="brokenbar.case" 
d="M348 725v-293h-77v293h77zM348 311v-329h-77v329h77z" />
    <glyph glyph-name="plus.subs" 
d="M487 131v-62h-142v-144h-70v144h-142v62h142v137h70v-137h142z" />
    <glyph glyph-name="minus.subs" 
d="M132 68v64h356v-64h-356z" />
    <glyph glyph-name="multiply.subs" 
d="M496 233l-137 -134l137 -133l-48 -49l-138 135l-138 -135l-48 48l137 134l-137 134l48 47l138 -134l137 134z" />
    <glyph glyph-name="divide.subs" 
d="M310 189q-19 0 -31.5 11.5t-12.5 30.5t12.5 31.5t31.5 12.5t31 -12t12 -32q0 -19 -12 -30.5t-31 -11.5zM132 68v62h356v-62h-356zM310 -78q-19 0 -31.5 12t-12.5 31t12.5 31t31.5 12t31 -12t12 -31t-12 -31t-31 -12z" />
    <glyph glyph-name="plus.sups" 
d="M487 579v-58h-145v-146h-64v146h-145v58h145v139h64v-139h145z" />
    <glyph glyph-name="minus.sups" 
d="M132 521v59h356v-59h-356z" />
    <glyph glyph-name="multiply.sups" 
d="M494 685l-139 -136l139 -135l-44 -45l-140 137l-140 -137l-44 44l139 136l-139 136l44 43l140 -136l139 136z" />
    <glyph glyph-name="divide.sups" 
d="M310 642q-18 0 -30 11t-12 29q0 19 12 30.5t30 11.5t29.5 -11.5t11.5 -30.5q0 -18 -11.5 -29t-29.5 -11zM132 521v57h356v-57h-356zM310 374q-18 0 -30 11.5t-12 29.5t12 29t30 11t29.5 -11t11.5 -29t-11.5 -29.5t-29.5 -11.5z" />
    <glyph glyph-name="caronaccentcomb" 
d="M283 531l-18 35q27 7 36.5 18.5t9.5 35.5h-51v90h96v-80q0 -42 -17 -65t-56 -34z" />
  </font>
</defs>
</svg>
